%TF.GenerationSoftware,KiCad,Pcbnew,8.0.6*%
%TF.CreationDate,2024-10-29T18:21:18+01:00*%
%TF.ProjectId,openWifiDecoder,6f70656e-5769-4666-9944-65636f646572,rev?*%
%TF.SameCoordinates,Original*%
%TF.FileFunction,Copper,L1,Top*%
%TF.FilePolarity,Positive*%
%FSLAX46Y46*%
G04 Gerber Fmt 4.6, Leading zero omitted, Abs format (unit mm)*
G04 Created by KiCad (PCBNEW 8.0.6) date 2024-10-29 18:21:18*
%MOMM*%
%LPD*%
G01*
G04 APERTURE LIST*
G04 Aperture macros list*
%AMRoundRect*
0 Rectangle with rounded corners*
0 $1 Rounding radius*
0 $2 $3 $4 $5 $6 $7 $8 $9 X,Y pos of 4 corners*
0 Add a 4 corners polygon primitive as box body*
4,1,4,$2,$3,$4,$5,$6,$7,$8,$9,$2,$3,0*
0 Add four circle primitives for the rounded corners*
1,1,$1+$1,$2,$3*
1,1,$1+$1,$4,$5*
1,1,$1+$1,$6,$7*
1,1,$1+$1,$8,$9*
0 Add four rect primitives between the rounded corners*
20,1,$1+$1,$2,$3,$4,$5,0*
20,1,$1+$1,$4,$5,$6,$7,0*
20,1,$1+$1,$6,$7,$8,$9,0*
20,1,$1+$1,$8,$9,$2,$3,0*%
%AMOutline5P*
0 Free polygon, 5 corners , with rotation*
0 The origin of the aperture is its center*
0 number of corners: always 5*
0 $1 to $10 corner X, Y*
0 $11 Rotation angle, in degrees counterclockwise*
0 create outline with 5 corners*
4,1,5,$1,$2,$3,$4,$5,$6,$7,$8,$9,$10,$1,$2,$11*%
%AMOutline6P*
0 Free polygon, 6 corners , with rotation*
0 The origin of the aperture is its center*
0 number of corners: always 6*
0 $1 to $12 corner X, Y*
0 $13 Rotation angle, in degrees counterclockwise*
0 create outline with 6 corners*
4,1,6,$1,$2,$3,$4,$5,$6,$7,$8,$9,$10,$11,$12,$1,$2,$13*%
%AMOutline7P*
0 Free polygon, 7 corners , with rotation*
0 The origin of the aperture is its center*
0 number of corners: always 7*
0 $1 to $14 corner X, Y*
0 $15 Rotation angle, in degrees counterclockwise*
0 create outline with 7 corners*
4,1,7,$1,$2,$3,$4,$5,$6,$7,$8,$9,$10,$11,$12,$13,$14,$1,$2,$15*%
%AMOutline8P*
0 Free polygon, 8 corners , with rotation*
0 The origin of the aperture is its center*
0 number of corners: always 8*
0 $1 to $16 corner X, Y*
0 $17 Rotation angle, in degrees counterclockwise*
0 create outline with 8 corners*
4,1,8,$1,$2,$3,$4,$5,$6,$7,$8,$9,$10,$11,$12,$13,$14,$15,$16,$1,$2,$17*%
G04 Aperture macros list end*
%TA.AperFunction,ComponentPad*%
%ADD10O,2.100000X1.200000*%
%TD*%
%TA.AperFunction,ComponentPad*%
%ADD11C,0.700000*%
%TD*%
%TA.AperFunction,SMDPad,CuDef*%
%ADD12RoundRect,0.135000X0.135000X0.185000X-0.135000X0.185000X-0.135000X-0.185000X0.135000X-0.185000X0*%
%TD*%
%TA.AperFunction,SMDPad,CuDef*%
%ADD13R,0.550000X0.550000*%
%TD*%
%TA.AperFunction,SMDPad,CuDef*%
%ADD14R,0.800000X0.400000*%
%TD*%
%TA.AperFunction,SMDPad,CuDef*%
%ADD15R,0.400000X0.800000*%
%TD*%
%TA.AperFunction,SMDPad,CuDef*%
%ADD16Outline5P,-0.600000X0.204000X-0.204000X0.600000X0.600000X0.600000X0.600000X-0.600000X-0.600000X-0.600000X0.000000*%
%TD*%
%TA.AperFunction,SMDPad,CuDef*%
%ADD17R,1.200000X1.200000*%
%TD*%
%TA.AperFunction,SMDPad,CuDef*%
%ADD18R,0.800000X0.800000*%
%TD*%
%TA.AperFunction,ComponentPad*%
%ADD19C,0.600000*%
%TD*%
%TA.AperFunction,SMDPad,CuDef*%
%ADD20R,2.600000X1.950000*%
%TD*%
%TA.AperFunction,ViaPad*%
%ADD21C,0.600000*%
%TD*%
%TA.AperFunction,ViaPad*%
%ADD22C,0.500000*%
%TD*%
%TA.AperFunction,Conductor*%
%ADD23C,0.200000*%
%TD*%
%TA.AperFunction,Conductor*%
%ADD24C,0.150000*%
%TD*%
%ADD25C,0.300000*%
%ADD26O,1.610000X0.610000*%
%ADD27C,0.350000*%
G04 APERTURE END LIST*
D10*
%TO.P,USB1,1,1*%
%TO.N,GND*%
X100500000Y-82350000D03*
%TO.P,USB1,2,2*%
X104500000Y-82350000D03*
%TO.P,USB1,3,3*%
X100500000Y-86210000D03*
%TO.P,USB1,4,4*%
X104500000Y-86210000D03*
D11*
%TO.P,USB1,A1,GND*%
X105750000Y-85000000D03*
%TO.P,USB1,A4,VBUS*%
%TO.N,+5V*%
X104800000Y-85000000D03*
%TO.P,USB1,A5,CC1*%
%TO.N,Net-(USB1-CC1)*%
X103850000Y-85000000D03*
%TO.P,USB1,A6,D+*%
%TO.N,D+*%
X102950000Y-85000000D03*
%TO.P,USB1,A7,D-*%
%TO.N,D-*%
X102050000Y-85000000D03*
%TO.P,USB1,A9,VBUS*%
%TO.N,+5V*%
X100200000Y-85000000D03*
%TO.P,USB1,A12,GND*%
%TO.N,GND*%
X99250000Y-85000000D03*
%TO.P,USB1,B1,GND*%
X99250000Y-83560000D03*
%TO.P,USB1,B4,VBUS*%
%TO.N,+5V*%
X100200000Y-83560000D03*
%TO.P,USB1,B5,CC2*%
%TO.N,Net-(USB1-CC2)*%
X101150000Y-83560000D03*
%TO.P,USB1,B6,D+*%
%TO.N,D+*%
X102050000Y-83560000D03*
%TO.P,USB1,B7,D-*%
%TO.N,D-*%
X102950000Y-83560000D03*
%TO.P,USB1,B9,VBUS*%
%TO.N,+5V*%
X104800000Y-83560000D03*
%TO.P,USB1,B12,GND*%
%TO.N,GND*%
X105750000Y-83560000D03*
%TD*%
D12*
%TO.P,R2,1*%
%TO.N,+3V3*%
X109510000Y-80400000D03*
%TO.P,R2,2*%
%TO.N,SCL*%
X108490000Y-80400000D03*
%TD*%
D13*
%TO.P,FLASH1,1,1*%
%TO.N,GND*%
X95820000Y-85520000D03*
%TO.P,FLASH1,2,2*%
X96580000Y-85520000D03*
%TO.P,FLASH1,3,3*%
%TO.N,Net-(U3-IO0)*%
X95820000Y-82880000D03*
%TO.P,FLASH1,4,4*%
X96580000Y-82880000D03*
%TD*%
D12*
%TO.P,R3,1*%
%TO.N,+5V*%
X104810000Y-80800000D03*
%TO.P,R3,2*%
%TO.N,D+*%
X103790000Y-80800000D03*
%TD*%
%TO.P,R11,1*%
%TO.N,Net-(USB1-CC2)*%
X101510000Y-81100000D03*
%TO.P,R11,2*%
%TO.N,GND*%
X100490000Y-81100000D03*
%TD*%
D13*
%TO.P,RESET1,1,1*%
%TO.N,GND*%
X108340000Y-85520000D03*
%TO.P,RESET1,2,2*%
X109100000Y-85520000D03*
%TO.P,RESET1,3,3*%
%TO.N,Net-(U3-EN)*%
X108340000Y-82880000D03*
%TO.P,RESET1,4,4*%
X109100000Y-82880000D03*
%TD*%
D12*
%TO.P,R1,1*%
%TO.N,+3V3*%
X109510000Y-81500000D03*
%TO.P,R1,2*%
%TO.N,SDA*%
X108490000Y-81500000D03*
%TD*%
D14*
%TO.P,U3,1,GND*%
%TO.N,GND*%
X95400000Y-65850000D03*
%TO.P,U3,2,GND*%
X95400000Y-66700000D03*
%TO.P,U3,3,3V3*%
%TO.N,+3V3*%
X95400000Y-67550000D03*
%TO.P,U3,4,IO0*%
%TO.N,Net-(U3-IO0)*%
X95400000Y-68400000D03*
%TO.P,U3,5,IO1*%
%TO.N,Net-(IO8-Pin_1)*%
X95400000Y-69250000D03*
%TO.P,U3,6,IO2*%
%TO.N,Net-(IO7-Pin_1)*%
X95400000Y-70100000D03*
%TO.P,U3,7,IO3*%
%TO.N,Net-(IO6-Pin_1)*%
X95400000Y-70950000D03*
%TO.P,U3,8,IO4*%
%TO.N,Net-(IO5-Pin_1)*%
X95400000Y-71800000D03*
%TO.P,U3,9,IO5*%
%TO.N,unconnected-(U3-IO5-Pad9)*%
X95400000Y-72650000D03*
%TO.P,U3,10,IO6*%
%TO.N,Net-(IO4-Pin_1)*%
X95400000Y-73500000D03*
%TO.P,U3,11,IO7*%
%TO.N,Net-(IO9-Pin_1)*%
X95400000Y-74350000D03*
%TO.P,U3,12,IO8*%
%TO.N,Net-(IO10-Pin_1)*%
X95400000Y-75200000D03*
%TO.P,U3,13,IO9*%
%TO.N,Net-(IO3-Pin_1)*%
X95400000Y-76050000D03*
%TO.P,U3,14,IO10*%
%TO.N,Net-(IO2-Pin_1)*%
X95400000Y-76900000D03*
%TO.P,U3,15,IO11*%
%TO.N,Net-(IO1-Pin_1)*%
X95400000Y-77750000D03*
D15*
%TO.P,U3,16,IO12*%
%TO.N,Net-(IO11-Pin_1)*%
X96450000Y-78800000D03*
%TO.P,U3,17,IO13*%
%TO.N,Net-(IO12-Pin_1)*%
X97300000Y-78800000D03*
%TO.P,U3,18,IO14*%
%TO.N,Net-(IO13-Pin_1)*%
X98150000Y-78800000D03*
%TO.P,U3,19,IO15*%
%TO.N,Net-(IO14-Pin_1)*%
X99000000Y-78800000D03*
%TO.P,U3,20,IO16*%
%TO.N,unconnected-(U3-IO16-Pad20)*%
X99850000Y-78800000D03*
%TO.P,U3,21,IO17*%
%TO.N,IMU_INT*%
X100700000Y-78800000D03*
%TO.P,U3,22,IO18*%
%TO.N,FSYNC*%
X101550000Y-78800000D03*
%TO.P,U3,23,IO19*%
%TO.N,D-*%
X102400000Y-78800000D03*
%TO.P,U3,24,IO20*%
%TO.N,D+*%
X103250000Y-78800000D03*
%TO.P,U3,25,IO21*%
%TO.N,unconnected-(U3-IO21-Pad25)*%
X104100000Y-78800000D03*
%TO.P,U3,26,IO26*%
%TO.N,COMP_DAC*%
X104950000Y-78800000D03*
%TO.P,U3,27,IO47*%
%TO.N,GAUGE_INT*%
X105800000Y-78800000D03*
%TO.P,U3,28,IO33*%
%TO.N,DIG_HALL*%
X106650000Y-78800000D03*
%TO.P,U3,29,IO34*%
%TO.N,SDA*%
X107500000Y-78800000D03*
%TO.P,U3,30,IO48*%
%TO.N,SCL*%
X108350000Y-78800000D03*
D14*
%TO.P,U3,31,IO35*%
%TO.N,Net-(IO18-Pin_1)*%
X109400000Y-77750000D03*
%TO.P,U3,32,IO36*%
%TO.N,Net-(IO19-Pin_1)*%
X109400000Y-76900000D03*
%TO.P,U3,33,IO37*%
%TO.N,Net-(IO17-Pin_1)*%
X109400000Y-76050000D03*
%TO.P,U3,34,IO38*%
%TO.N,unconnected-(U3-IO38-Pad34)*%
X109400000Y-75200000D03*
%TO.P,U3,35,IO39*%
%TO.N,unconnected-(U3-IO39-Pad35)*%
X109400000Y-74350000D03*
%TO.P,U3,36,IO40*%
%TO.N,Net-(IO16-Pin_1)*%
X109400000Y-73500000D03*
%TO.P,U3,37,IO41*%
%TO.N,MPWM1*%
X109400000Y-72650000D03*
%TO.P,U3,38,IO42*%
%TO.N,MPWM2*%
X109400000Y-71800000D03*
%TO.P,U3,39,TXD0*%
%TO.N,TX*%
X109400000Y-70950000D03*
%TO.P,U3,40,RXD0*%
%TO.N,RX*%
X109400000Y-70100000D03*
%TO.P,U3,41,IO45*%
%TO.N,Net-(IO15-Pin_1)*%
X109400000Y-69250000D03*
%TO.P,U3,42,GND*%
%TO.N,GND*%
X109400000Y-68400000D03*
%TO.P,U3,43,GND*%
X109400000Y-67550000D03*
%TO.P,U3,44,IO46*%
%TO.N,unconnected-(U3-IO46-Pad44)*%
X109400000Y-66700000D03*
%TO.P,U3,45,EN*%
%TO.N,Net-(U3-EN)*%
X109400000Y-65850000D03*
D15*
%TO.P,U3,46,GND*%
%TO.N,GND*%
X108350000Y-64800000D03*
%TO.P,U3,47,GND*%
X107500000Y-64800000D03*
%TO.P,U3,48,GND*%
X106650000Y-64800000D03*
%TO.P,U3,49,GND*%
X105800000Y-64800000D03*
%TO.P,U3,50,GND*%
X104950000Y-64800000D03*
%TO.P,U3,51,GND*%
X104100000Y-64800000D03*
%TO.P,U3,52,GND*%
X103250000Y-64800000D03*
%TO.P,U3,53,GND*%
X102400000Y-64800000D03*
%TO.P,U3,54,GND*%
X101550000Y-64800000D03*
%TO.P,U3,55,GND*%
X100700000Y-64800000D03*
%TO.P,U3,56,GND*%
X99850000Y-64800000D03*
%TO.P,U3,57,GND*%
X99000000Y-64800000D03*
%TO.P,U3,58,GND*%
X98150000Y-64800000D03*
%TO.P,U3,59,GND*%
X97300000Y-64800000D03*
%TO.P,U3,60,GND*%
X96450000Y-64800000D03*
D16*
%TO.P,U3,61,GND*%
X100750000Y-70150000D03*
D17*
X100750000Y-71800000D03*
X100750000Y-73450000D03*
X102400000Y-70150000D03*
X102400000Y-71800000D03*
X102400000Y-73450000D03*
X104050000Y-70150000D03*
X104050000Y-71800000D03*
X104050000Y-73450000D03*
D18*
%TO.P,U3,62,GND*%
X95400000Y-64800000D03*
%TO.P,U3,63,GND*%
X95400000Y-78800000D03*
%TO.P,U3,64,GND*%
X109400000Y-78800000D03*
%TO.P,U3,65,GND*%
X109400000Y-64800000D03*
%TD*%
D19*
%TO.P,U7,13,PAD*%
%TO.N,GND*%
X103800000Y-73600000D03*
X103800000Y-74600000D03*
X104700000Y-73600000D03*
D20*
X104700000Y-74100000D03*
D19*
X104700000Y-74600000D03*
X105600000Y-73600000D03*
X105600000Y-74600000D03*
%TD*%
D21*
%TO.N,+3V3*%
X96600000Y-67400000D03*
D22*
X109056929Y-80998452D03*
D21*
X104900000Y-77200000D03*
X102900000Y-68300000D03*
X98990000Y-86650000D03*
X101100000Y-69000000D03*
X95400000Y-86800000D03*
X105900000Y-86800000D03*
%TO.N,GND*%
X97400000Y-65500000D03*
D22*
X108800000Y-67600000D03*
D21*
X99114318Y-81106682D03*
X109650000Y-85450000D03*
D22*
X95400000Y-64800000D03*
D21*
X99900000Y-65500000D03*
X100900000Y-66700000D03*
X99400000Y-71800000D03*
X106600000Y-69000000D03*
X98100000Y-77800000D03*
X102600000Y-77200000D03*
X106600000Y-77900000D03*
X109500000Y-64800000D03*
X107000000Y-80600000D03*
X107600000Y-65500000D03*
X104100000Y-70000000D03*
X96200000Y-87100000D03*
X107210000Y-83300000D03*
X101500000Y-73200000D03*
X102500000Y-65500000D03*
X99400000Y-73500000D03*
X105900000Y-65500000D03*
X104400000Y-67200000D03*
X108010000Y-76730000D03*
X106100000Y-86000000D03*
D22*
X96200000Y-79700000D03*
D21*
X99400000Y-70100000D03*
X104500000Y-79800000D03*
X100990000Y-79900000D03*
D22*
X108400000Y-72800000D03*
D21*
X104200000Y-65500000D03*
D22*
%TO.N,+BATT*%
X106600000Y-72500000D03*
X108400000Y-74490000D03*
%TO.N,+1V8*%
X98325000Y-85375000D03*
X97900000Y-80000000D03*
%TO.N,Net-(BAT1-Pin_2)*%
X100100000Y-75000000D03*
X107610000Y-71600000D03*
%TO.N,+5V*%
X105200000Y-81300000D03*
%TO.N,MPWM1*%
X108400000Y-71900000D03*
%TO.N,MPWM2*%
X107600000Y-70300000D03*
%TO.N,SCL*%
X101100000Y-75000000D03*
X99800000Y-77100000D03*
X97300000Y-82400000D03*
%TO.N,GAUGE_INT*%
X105800000Y-78000000D03*
X106800000Y-75600000D03*
%TO.N,SDA*%
X101067675Y-77200000D03*
X104500000Y-76500000D03*
X98500000Y-81700000D03*
%TO.N,Net-(IO1-Pin_1)*%
X96200000Y-77800000D03*
D21*
%TO.N,DIG_HALL*%
X106750000Y-78800000D03*
X109200000Y-83900000D03*
%TO.N,COMP_DAC*%
X107180000Y-84300000D03*
D22*
%TO.N,Net-(U3-EN)*%
X109100000Y-82880000D03*
X109750000Y-65900000D03*
%TO.N,Net-(U3-IO0)*%
X95926207Y-68666576D03*
D21*
X95394479Y-80649999D03*
D22*
%TO.N,Net-(IO2-Pin_1)*%
X96200000Y-76900000D03*
%TO.N,Net-(IO3-Pin_1)*%
X96300000Y-76050000D03*
D21*
%TO.N,Net-(IO4-Pin_1)*%
X96400000Y-73500000D03*
%TO.N,RX*%
X107350000Y-67640001D03*
%TO.N,TX*%
X106000000Y-67300000D03*
%TO.N,Net-(IO5-Pin_1)*%
X96400000Y-71800000D03*
%TO.N,Net-(IO6-Pin_1)*%
X96400000Y-70900000D03*
%TO.N,Net-(IO7-Pin_1)*%
X96400000Y-69800000D03*
D22*
%TO.N,IMU_INT*%
X101800000Y-76800000D03*
X95493504Y-84828936D03*
%TO.N,FSYNC*%
X101403345Y-79213976D03*
X96267377Y-84132624D03*
D21*
%TO.N,Net-(IO8-Pin_1)*%
X96400000Y-66500000D03*
%TO.N,Net-(IO9-Pin_1)*%
X97400000Y-66400000D03*
%TO.N,Net-(IO10-Pin_1)*%
X98508006Y-65621349D03*
D22*
%TO.N,Net-(IO11-Pin_1)*%
X101200000Y-65900000D03*
%TO.N,Net-(IO12-Pin_1)*%
X102300000Y-66300000D03*
%TO.N,Net-(IO13-Pin_1)*%
X103367573Y-66100000D03*
%TO.N,Net-(IO15-Pin_1)*%
X108550000Y-65750000D03*
%TO.N,Net-(IO16-Pin_1)*%
X106845608Y-65928145D03*
%TO.N,Net-(IO17-Pin_1)*%
X108900000Y-76200000D03*
%TO.N,Net-(IO14-Pin_1)*%
X104700000Y-66197944D03*
%TO.N,Net-(IO18-Pin_1)*%
X109500000Y-77750000D03*
%TO.N,Net-(IO19-Pin_1)*%
X108700000Y-77200000D03*
%TD*%
D23*
%TO.N,+3V3*%
X109056929Y-80853071D02*
X109510000Y-80400000D01*
X96450000Y-67550000D02*
X95500000Y-67550000D01*
X109056929Y-81046929D02*
X109510000Y-81500000D01*
X109056929Y-80998452D02*
X109056929Y-80853071D01*
X96600000Y-67400000D02*
X96450000Y-67550000D01*
X109056929Y-80998452D02*
X109056929Y-81046929D01*
%TO.N,GND*%
X109100000Y-85520000D02*
X108340000Y-85520000D01*
X109650000Y-85450000D02*
X109580000Y-85520000D01*
X95500000Y-79000000D02*
X95500000Y-78800000D01*
D24*
X109500000Y-78800000D02*
X109450000Y-78800000D01*
D23*
X95870000Y-85570000D02*
X96630000Y-85570000D01*
X96200000Y-85900000D02*
X95820000Y-85520000D01*
D24*
X109450000Y-78800000D02*
X108010000Y-77360000D01*
D23*
X96200000Y-87100000D02*
X96200000Y-85900000D01*
X109500000Y-67900000D02*
X109500000Y-67550000D01*
X109500000Y-68400000D02*
X109500000Y-67900000D01*
X99114318Y-81106682D02*
X100483318Y-81106682D01*
X109580000Y-85520000D02*
X109100000Y-85520000D01*
X96200000Y-79700000D02*
X95500000Y-79000000D01*
D24*
X108010000Y-77360000D02*
X108010000Y-76730000D01*
D23*
%TO.N,+1V8*%
X97900000Y-80000000D02*
X97900000Y-84700000D01*
X98325000Y-85125000D02*
X98325000Y-85375000D01*
X97900000Y-84700000D02*
X98325000Y-85125000D01*
%TO.N,+5V*%
X105200000Y-81300000D02*
X104810000Y-80910000D01*
X104810000Y-80910000D02*
X104810000Y-80800000D01*
%TO.N,MPWM1*%
X109150000Y-72650000D02*
X109500000Y-72650000D01*
X108400000Y-71900000D02*
X109150000Y-72650000D01*
%TO.N,MPWM2*%
X107650000Y-70300000D02*
X109150000Y-71800000D01*
X109150000Y-71800000D02*
X109500000Y-71800000D01*
X107600000Y-70300000D02*
X107650000Y-70300000D01*
%TO.N,SCL*%
X101500000Y-75893000D02*
X102575692Y-75893000D01*
X102582692Y-75900000D02*
X105910977Y-75900000D01*
X101344552Y-75893000D02*
X101500000Y-75893000D01*
X102575692Y-75893000D02*
X102582692Y-75900000D01*
X101500000Y-75400000D02*
X101100000Y-75000000D01*
X105910977Y-75900000D02*
X108450000Y-78439023D01*
X108450000Y-78439023D02*
X108450000Y-80360000D01*
X99800000Y-77100000D02*
X100137552Y-77100000D01*
X100137552Y-77100000D02*
X101344552Y-75893000D01*
X101500000Y-75893000D02*
X101500000Y-75400000D01*
%TO.N,GAUGE_INT*%
X105900000Y-78100000D02*
X105900000Y-78800000D01*
X105800000Y-78000000D02*
X105900000Y-78100000D01*
%TO.N,SDA*%
X101067675Y-76632325D02*
X101480000Y-76220000D01*
X105775529Y-76227000D02*
X107600000Y-78051471D01*
X107600000Y-80610000D02*
X108490000Y-81500000D01*
X102440244Y-76220000D02*
X102447244Y-76227000D01*
X107600000Y-78051471D02*
X107600000Y-80610000D01*
X102447244Y-76227000D02*
X105775529Y-76227000D01*
X101480000Y-76220000D02*
X102440244Y-76220000D01*
X101067675Y-77200000D02*
X101067675Y-76632325D01*
%TO.N,Net-(IO1-Pin_1)*%
X95500000Y-77750000D02*
X96150000Y-77750000D01*
X96150000Y-77750000D02*
X96200000Y-77800000D01*
%TO.N,D+*%
X103150000Y-81568200D02*
X103150000Y-80800000D01*
X101369988Y-84718330D02*
X101369988Y-85281670D01*
X102950000Y-85000000D02*
X102725001Y-84775001D01*
X102725001Y-84746681D02*
X103630012Y-83841670D01*
X102331670Y-85680012D02*
X102950000Y-85061682D01*
X103150000Y-79600001D02*
X103350000Y-79400001D01*
X102725001Y-81993199D02*
X103150000Y-81568200D01*
X103150000Y-80800000D02*
X103150000Y-79600001D01*
X103231670Y-82879988D02*
X102968038Y-82879988D01*
X103630012Y-83841670D02*
X103630012Y-83278330D01*
X102050000Y-84038318D02*
X101369988Y-84718330D01*
X102725001Y-82636951D02*
X102725001Y-81993199D01*
X102050000Y-83560000D02*
X102050000Y-84038318D01*
X103350000Y-79400001D02*
X103350000Y-78800000D01*
X102968038Y-82879988D02*
X102725001Y-82636951D01*
X102725001Y-84775001D02*
X102725001Y-84746681D01*
X103790000Y-80800000D02*
X103150000Y-80800000D01*
X101768330Y-85680012D02*
X102331670Y-85680012D01*
X103630012Y-83278330D02*
X103231670Y-82879988D01*
X101369988Y-85281670D02*
X101768330Y-85680012D01*
%TO.N,DIG_HALL*%
X109800000Y-82430000D02*
X109490000Y-82120000D01*
X106420000Y-80840244D02*
X106420000Y-79130000D01*
X107699756Y-82120000D02*
X106420000Y-80840244D01*
X109490000Y-82120000D02*
X107699756Y-82120000D01*
X109200000Y-83900000D02*
X109800000Y-83300000D01*
X109800000Y-83300000D02*
X109800000Y-82430000D01*
X106420000Y-79130000D02*
X106750000Y-78800000D01*
%TO.N,Net-(USB1-CC2)*%
X101768330Y-82879988D02*
X101198318Y-83450000D01*
X101900000Y-81490000D02*
X101900000Y-82750000D01*
X101510000Y-81100000D02*
X101900000Y-81490000D01*
X101198318Y-83450000D02*
X101150000Y-83450000D01*
X101900000Y-82750000D02*
X101770012Y-82879988D01*
X101770012Y-82879988D02*
X101768330Y-82879988D01*
%TO.N,COMP_DAC*%
X105050000Y-79250000D02*
X105050000Y-79000000D01*
X105900000Y-80100000D02*
X105050000Y-79250000D01*
X105900000Y-81000000D02*
X105900000Y-80100000D01*
X106500000Y-81600000D02*
X105900000Y-81000000D01*
X107180000Y-84300000D02*
X107180000Y-84200244D01*
X107180000Y-84200244D02*
X106500000Y-83520244D01*
X106500000Y-83520244D02*
X106500000Y-81600000D01*
%TO.N,Net-(U3-EN)*%
X109700000Y-65850000D02*
X109500000Y-65850000D01*
X109100000Y-82880000D02*
X108340000Y-82880000D01*
X109750000Y-65900000D02*
X109700000Y-65850000D01*
%TO.N,Net-(U3-IO0)*%
X95926207Y-68666576D02*
X95659631Y-68400000D01*
X95394479Y-80649999D02*
X94900000Y-81144478D01*
X95659631Y-68400000D02*
X95500000Y-68400000D01*
X94900000Y-81960000D02*
X95820000Y-82880000D01*
X96630000Y-82930000D02*
X95870000Y-82930000D01*
X94900000Y-81144478D02*
X94900000Y-81960000D01*
%TO.N,Net-(IO2-Pin_1)*%
X95500000Y-76900000D02*
X96200000Y-76900000D01*
%TO.N,D-*%
X102500000Y-79400001D02*
X102500000Y-78800000D01*
X102274999Y-81806801D02*
X102700000Y-81381800D01*
X102700000Y-79600001D02*
X102500000Y-79400001D01*
X102730012Y-84015590D02*
X102730012Y-83278330D01*
X102730012Y-83278330D02*
X102274999Y-82823317D01*
X102050000Y-85000000D02*
X102274999Y-84775001D01*
X102274999Y-84470603D02*
X102730012Y-84015590D01*
X102274999Y-82823317D02*
X102274999Y-81806801D01*
X102700000Y-81381800D02*
X102700000Y-79600001D01*
X102274999Y-84775001D02*
X102274999Y-84470603D01*
%TO.N,Net-(IO3-Pin_1)*%
X95500000Y-76050000D02*
X96300000Y-76050000D01*
%TO.N,Net-(IO4-Pin_1)*%
X95500000Y-73500000D02*
X96400000Y-73500000D01*
%TO.N,RX*%
X107700000Y-67990001D02*
X107700000Y-68650000D01*
X107700000Y-68650000D02*
X109150000Y-70100000D01*
X109150000Y-70100000D02*
X109300000Y-70100000D01*
X107350000Y-67640001D02*
X107700000Y-67990001D01*
%TO.N,TX*%
X106000000Y-67300000D02*
X107300000Y-68600000D01*
X107300000Y-68600000D02*
X107300000Y-69100000D01*
X107300000Y-69100000D02*
X109150000Y-70950000D01*
X109150000Y-70950000D02*
X109300000Y-70950000D01*
%TO.N,Net-(IO5-Pin_1)*%
X95500000Y-71800000D02*
X96400000Y-71800000D01*
%TO.N,Net-(IO6-Pin_1)*%
X96350000Y-70950000D02*
X96400000Y-70900000D01*
X95500000Y-70950000D02*
X96350000Y-70950000D01*
%TO.N,Net-(IO7-Pin_1)*%
X96100000Y-70100000D02*
X95500000Y-70100000D01*
X96400000Y-69800000D02*
X96100000Y-70100000D01*
%TO.N,IMU_INT*%
X101800000Y-77433557D02*
X100800000Y-78433557D01*
X100800000Y-78433557D02*
X100800000Y-78800000D01*
X101800000Y-76800000D02*
X101800000Y-77433557D01*
%TO.N,Net-(IO8-Pin_1)*%
X96159756Y-69220000D02*
X96129756Y-69250000D01*
X97300000Y-67120244D02*
X97300000Y-67825312D01*
X96699000Y-68426312D02*
X96699000Y-68901000D01*
X97300000Y-67825312D02*
X96699000Y-68426312D01*
X96380000Y-69220000D02*
X96159756Y-69220000D01*
X96129756Y-69250000D02*
X95500000Y-69250000D01*
X96400000Y-66500000D02*
X96679756Y-66500000D01*
X96679756Y-66500000D02*
X97300000Y-67120244D01*
X96699000Y-68901000D02*
X96380000Y-69220000D01*
%TO.N,Net-(IO9-Pin_1)*%
X97026000Y-68561760D02*
X97900000Y-67687760D01*
X97026000Y-73774000D02*
X97026000Y-68561760D01*
X97900000Y-66900000D02*
X97400000Y-66400000D01*
X96450000Y-74350000D02*
X97026000Y-73774000D01*
X95500000Y-74350000D02*
X96450000Y-74350000D01*
X97900000Y-67687760D02*
X97900000Y-66900000D01*
%TO.N,Net-(IO10-Pin_1)*%
X98508006Y-67542202D02*
X97353000Y-68697208D01*
X97353000Y-68697208D02*
X97353000Y-74784552D01*
X97353000Y-74784552D02*
X96937552Y-75200000D01*
X98508006Y-65621349D02*
X98508006Y-67542202D01*
X96937552Y-75200000D02*
X95500000Y-75200000D01*
%TO.N,Net-(IO11-Pin_1)*%
X97680000Y-74920000D02*
X96900000Y-75700000D01*
X99139656Y-67373000D02*
X97680000Y-68832656D01*
X96550000Y-78275000D02*
X96550000Y-78800000D01*
X101114552Y-67373000D02*
X99139656Y-67373000D01*
X97680000Y-68832656D02*
X97680000Y-74920000D01*
X101480000Y-66180000D02*
X101480000Y-67007552D01*
X96900000Y-77925000D02*
X96550000Y-78275000D01*
X101480000Y-67007552D02*
X101114552Y-67373000D01*
X101200000Y-65900000D02*
X101480000Y-66180000D01*
X96900000Y-75700000D02*
X96900000Y-77925000D01*
%TO.N,Net-(IO12-Pin_1)*%
X97400000Y-75700000D02*
X97400000Y-78800000D01*
X101250000Y-67700000D02*
X99275104Y-67700000D01*
X102300000Y-66300000D02*
X102300000Y-66650000D01*
X99275104Y-67700000D02*
X98007000Y-68968104D01*
X102300000Y-66650000D02*
X101250000Y-67700000D01*
X98007000Y-75093000D02*
X97400000Y-75700000D01*
X98007000Y-68968104D02*
X98007000Y-75093000D01*
%TO.N,Net-(IO13-Pin_1)*%
X99364552Y-68073000D02*
X98334000Y-69103552D01*
X103367573Y-66100000D02*
X101394573Y-68073000D01*
X101394573Y-68073000D02*
X99364552Y-68073000D01*
X98250000Y-78525000D02*
X98250000Y-78800000D01*
X98680000Y-75530000D02*
X98680000Y-78095000D01*
X98680000Y-78095000D02*
X98250000Y-78525000D01*
X98334000Y-75184000D02*
X98680000Y-75530000D01*
X98334000Y-69103552D02*
X98334000Y-75184000D01*
%TO.N,Net-(IO15-Pin_1)*%
X108200000Y-67200000D02*
X108200000Y-68500000D01*
X108950000Y-69250000D02*
X109500000Y-69250000D01*
X108600000Y-65800000D02*
X108600000Y-66800000D01*
X108550000Y-65750000D02*
X108600000Y-65800000D01*
X108200000Y-68500000D02*
X108950000Y-69250000D01*
X108600000Y-66800000D02*
X108200000Y-67200000D01*
%TO.N,Net-(IO16-Pin_1)*%
X106845608Y-65928145D02*
X106471855Y-65928145D01*
X107820000Y-72899756D02*
X107820000Y-73040244D01*
X106200000Y-71279756D02*
X107820000Y-72899756D01*
X108279756Y-73500000D02*
X109500000Y-73500000D01*
X105200000Y-67200000D02*
X105200000Y-68720244D01*
X107820000Y-73040244D02*
X108279756Y-73500000D01*
X105200000Y-68720244D02*
X106200000Y-69720244D01*
X106200000Y-69720244D02*
X106200000Y-71279756D01*
X106471855Y-65928145D02*
X105200000Y-67200000D01*
D24*
%TO.N,Net-(IO17-Pin_1)*%
X109050000Y-76050000D02*
X108900000Y-76200000D01*
X109500000Y-76050000D02*
X109050000Y-76050000D01*
D23*
%TO.N,Net-(IO14-Pin_1)*%
X99100000Y-75487552D02*
X99100000Y-78800000D01*
X104700000Y-66197944D02*
X104119520Y-66197944D01*
X98661000Y-69239000D02*
X98661000Y-75048552D01*
X98661000Y-75048552D02*
X99100000Y-75487552D01*
X104119520Y-66197944D02*
X101917464Y-68400000D01*
X99500000Y-68400000D02*
X98661000Y-69239000D01*
X101917464Y-68400000D02*
X99500000Y-68400000D01*
%TO.N,Net-(IO19-Pin_1)*%
X108900000Y-77200000D02*
X109200000Y-77200000D01*
X109200000Y-77200000D02*
X109500000Y-76900000D01*
%TD*%
%TA.AperFunction,Conductor*%
%TO.N,GND*%
G36*
X110185648Y-64214852D02*
G01*
X110200000Y-64249500D01*
X110200000Y-65351000D01*
X110185648Y-65385648D01*
X110151000Y-65400000D01*
X108853048Y-65400000D01*
X108826557Y-65392221D01*
X108739069Y-65335996D01*
X108739068Y-65335995D01*
X108739067Y-65335995D01*
X108614776Y-65299500D01*
X108614772Y-65299500D01*
X108485228Y-65299500D01*
X108485223Y-65299500D01*
X108360932Y-65335995D01*
X108337584Y-65351000D01*
X108273442Y-65392221D01*
X108246952Y-65400000D01*
X98988632Y-65400000D01*
X98953984Y-65385648D01*
X98944060Y-65371356D01*
X98933383Y-65347976D01*
X98923002Y-65335996D01*
X98839134Y-65239206D01*
X98718059Y-65161396D01*
X98718056Y-65161395D01*
X98579971Y-65120849D01*
X98579967Y-65120849D01*
X98436045Y-65120849D01*
X98436040Y-65120849D01*
X98297955Y-65161395D01*
X98176877Y-65239206D01*
X98082631Y-65347972D01*
X98082630Y-65347974D01*
X98071952Y-65371356D01*
X98044503Y-65396911D01*
X98027380Y-65400000D01*
X96100000Y-65400000D01*
X96100000Y-66071095D01*
X96085648Y-66105743D01*
X96077493Y-66112315D01*
X96068874Y-66117854D01*
X96068872Y-66117855D01*
X95974625Y-66226623D01*
X95974624Y-66226625D01*
X95914833Y-66357545D01*
X95894353Y-66499997D01*
X95894353Y-66500002D01*
X95914833Y-66642454D01*
X95946935Y-66712746D01*
X95974623Y-66773373D01*
X95974624Y-66773374D01*
X95974625Y-66773376D01*
X96068871Y-66882142D01*
X96068872Y-66882143D01*
X96077490Y-66887681D01*
X96098880Y-66918485D01*
X96100000Y-66928903D01*
X96100000Y-66951000D01*
X96085648Y-66985648D01*
X96051000Y-67000000D01*
X94949000Y-67000000D01*
X94914352Y-66985648D01*
X94900000Y-66951000D01*
X94900000Y-64249500D01*
X94914352Y-64214852D01*
X94949000Y-64200500D01*
X110151000Y-64200500D01*
X110185648Y-64214852D01*
G37*
%TD.AperFunction*%
%TD*%
%TA.AperFunction,Conductor*%
%TO.N,GND*%
G36*
X100709965Y-69314352D02*
G01*
X100712349Y-69316912D01*
X100752693Y-69363471D01*
X100768872Y-69382143D01*
X100889947Y-69459953D01*
X100966785Y-69482514D01*
X101028034Y-69500499D01*
X101028037Y-69500499D01*
X101028039Y-69500500D01*
X101028040Y-69500500D01*
X101171960Y-69500500D01*
X101171961Y-69500500D01*
X101171963Y-69500499D01*
X101171965Y-69500499D01*
X101194795Y-69493795D01*
X101310053Y-69459953D01*
X101431128Y-69382143D01*
X101487651Y-69316912D01*
X101521187Y-69300125D01*
X101524683Y-69300000D01*
X105051000Y-69300000D01*
X105085648Y-69314352D01*
X105100000Y-69349000D01*
X105100000Y-74451000D01*
X105085648Y-74485648D01*
X105051000Y-74500000D01*
X99010500Y-74500000D01*
X98975852Y-74485648D01*
X98961500Y-74451000D01*
X98961500Y-69383767D01*
X98975852Y-69349119D01*
X99010619Y-69314352D01*
X99045267Y-69300000D01*
X100675317Y-69300000D01*
X100709965Y-69314352D01*
G37*
%TD.AperFunction*%
%TD*%
D25*
X96600000Y-67400000D03*
X109056929Y-80998452D03*
X104900000Y-77200000D03*
X102900000Y-68300000D03*
X98990000Y-86650000D03*
X101100000Y-69000000D03*
X95400000Y-86800000D03*
X105900000Y-86800000D03*
X97400000Y-65500000D03*
X108800000Y-67600000D03*
X99114318Y-81106682D03*
X109650000Y-85450000D03*
X95400000Y-64800000D03*
X99900000Y-65500000D03*
X100900000Y-66700000D03*
X99400000Y-71800000D03*
X106600000Y-69000000D03*
X98100000Y-77800000D03*
X102600000Y-77200000D03*
X106600000Y-77900000D03*
X109500000Y-64800000D03*
X107000000Y-80600000D03*
X107600000Y-65500000D03*
X104100000Y-70000000D03*
X96200000Y-87100000D03*
X107210000Y-83300000D03*
X101500000Y-73200000D03*
X102500000Y-65500000D03*
X99400000Y-73500000D03*
X105900000Y-65500000D03*
X104400000Y-67200000D03*
X108010000Y-76730000D03*
X106100000Y-86000000D03*
X96200000Y-79700000D03*
X99400000Y-70100000D03*
X104500000Y-79800000D03*
X100990000Y-79900000D03*
X108400000Y-72800000D03*
X104200000Y-65500000D03*
X106600000Y-72500000D03*
X108400000Y-74490000D03*
X98325000Y-85375000D03*
X97900000Y-80000000D03*
X100100000Y-75000000D03*
X107610000Y-71600000D03*
X105200000Y-81300000D03*
X108400000Y-71900000D03*
X107600000Y-70300000D03*
X101100000Y-75000000D03*
X99800000Y-77100000D03*
X97300000Y-82400000D03*
X105800000Y-78000000D03*
X106800000Y-75600000D03*
X101067675Y-77200000D03*
X104500000Y-76500000D03*
X98500000Y-81700000D03*
X96200000Y-77800000D03*
X106750000Y-78800000D03*
X109200000Y-83900000D03*
X107180000Y-84300000D03*
X109100000Y-82880000D03*
X109750000Y-65900000D03*
X95926207Y-68666576D03*
X95394479Y-80649999D03*
X96200000Y-76900000D03*
X96300000Y-76050000D03*
X96400000Y-73500000D03*
X107350000Y-67640001D03*
X106000000Y-67300000D03*
X96400000Y-71800000D03*
X96400000Y-70900000D03*
X96400000Y-69800000D03*
X101800000Y-76800000D03*
X95493504Y-84828936D03*
X101403345Y-79213976D03*
X96267377Y-84132624D03*
X96400000Y-66500000D03*
X97400000Y-66400000D03*
X98508006Y-65621349D03*
X101200000Y-65900000D03*
X102300000Y-66300000D03*
X103367573Y-66100000D03*
X108550000Y-65750000D03*
X106845608Y-65928145D03*
X108900000Y-76200000D03*
X104700000Y-66197944D03*
X109500000Y-77750000D03*
X108700000Y-77200000D03*
D26*
X100500000Y-82350000D03*
X104500000Y-82350000D03*
X100500000Y-86210000D03*
X104500000Y-86210000D03*
D27*
X105750000Y-85000000D03*
X104800000Y-85000000D03*
X103850000Y-85000000D03*
X102950000Y-85000000D03*
X102050000Y-85000000D03*
X100200000Y-85000000D03*
X99250000Y-85000000D03*
X99250000Y-83560000D03*
X100200000Y-83560000D03*
X101150000Y-83560000D03*
X102050000Y-83560000D03*
X102950000Y-83560000D03*
X104800000Y-83560000D03*
X105750000Y-83560000D03*
D25*
X103800000Y-73600000D03*
X103800000Y-74600000D03*
X104700000Y-73600000D03*
X104700000Y-74600000D03*
X105600000Y-73600000D03*
X105600000Y-74600000D03*
M02*
