M48
METRIC,TZ
T1C0.300
T2C0.300
T3C0.500
T4C0.610
%
G90
G05
T1
X95394Y-80650
X95400Y-64800
X95400Y-86800
X95494Y-84829
X95926Y-68667
X96200Y-76900
X96200Y-77800
X96200Y-79700
X96200Y-87100
X96267Y-84133
X96300Y-76050
X96400Y-66500
X96400Y-69800
X96400Y-70900
X96400Y-71800
X96400Y-73500
X96600Y-67400
X97300Y-82400
X97400Y-65500
X97400Y-66400
X97900Y-80000
X98100Y-77800
X98325Y-85375
X98500Y-81700
X98508Y-65621
X98990Y-86650
X99114Y-81107
X99400Y-70100
X99400Y-71800
X99400Y-73500
X99800Y-77100
X99900Y-65500
X100100Y-75000
X100900Y-66700
X100990Y-79900
X101068Y-77200
X101100Y-69000
X101100Y-75000
X101200Y-65900
X101403Y-79214
X101500Y-73200
X101800Y-76800
X102300Y-66300
X102500Y-65500
X102600Y-77200
X102900Y-68300
X103368Y-66100
X104100Y-70000
X104200Y-65500
X104400Y-67200
X104500Y-76500
X104500Y-79800
X104700Y-66198
X104900Y-77200
X105200Y-81300
X105800Y-78000
X105900Y-65500
X105900Y-86800
X106000Y-67300
X106100Y-86000
X106600Y-69000
X106600Y-72500
X106600Y-77900
X106750Y-78800
X106800Y-75600
X106846Y-65928
X107000Y-80600
X107180Y-84300
X107210Y-83300
X107350Y-67640
X107600Y-65500
X107600Y-70300
X107610Y-71600
X108010Y-76730
X108400Y-71900
X108400Y-72800
X108400Y-74490
X108550Y-65750
X108700Y-77200
X108800Y-67600
X108900Y-76200
X109057Y-80998
X109100Y-82880
X109200Y-83900
X109500Y-64800
X109500Y-77750
X109650Y-85450
X109750Y-65900
T2
X103800Y-73600
X103800Y-74600
X104700Y-73600
X104700Y-74600
X105600Y-73600
X105600Y-74600
T3
X99250Y-83560
X99250Y-85000
X100200Y-83560
X100200Y-85000
X101150Y-83560
X102050Y-83560
X102050Y-85000
X102950Y-83560
X102950Y-85000
X103850Y-85000
X104800Y-83560
X104800Y-85000
X105750Y-83560
X105750Y-85000
T4
G00X101000Y-82350
M15
G01X100000Y-82350
M16
G05
G00X101000Y-86210
M15
G01X100000Y-86210
M16
G05
G00X105000Y-82350
M15
G01X104000Y-82350
M16
G05
G00X105000Y-86210
M15
G01X104000Y-86210
M16
G05
M30
