%TF.GenerationSoftware,KiCad,Pcbnew,8.0.6*%
%TF.CreationDate,2024-10-29T18:21:18+01:00*%
%TF.ProjectId,openWifiDecoder,6f70656e-5769-4666-9944-65636f646572,rev?*%
%TF.SameCoordinates,Original*%
%TF.FileFunction,Copper,L3,Inr*%
%TF.FilePolarity,Positive*%
%FSLAX46Y46*%
G04 Gerber Fmt 4.6, Leading zero omitted, Abs format (unit mm)*
G04 Created by KiCad (PCBNEW 8.0.6) date 2024-10-29 18:21:18*
%MOMM*%
%LPD*%
G01*
G04 APERTURE LIST*
%TA.AperFunction,ComponentPad*%
%ADD10O,2.100000X1.200000*%
%TD*%
%TA.AperFunction,ComponentPad*%
%ADD11C,0.700000*%
%TD*%
%TA.AperFunction,ComponentPad*%
%ADD12C,0.600000*%
%TD*%
%TA.AperFunction,ViaPad*%
%ADD13C,0.600000*%
%TD*%
%TA.AperFunction,ViaPad*%
%ADD14C,0.500000*%
%TD*%
%ADD15C,0.300000*%
%ADD16O,1.610000X0.610000*%
%ADD17C,0.350000*%
G04 APERTURE END LIST*
D10*
%TO.N,GND*%
%TO.C,USB1*%
X100500000Y-82350000D03*
X104500000Y-82350000D03*
X100500000Y-86210000D03*
X104500000Y-86210000D03*
D11*
X105750000Y-85000000D03*
%TO.N,+5V*%
X104800000Y-85000000D03*
%TO.N,Net-(USB1-CC1)*%
X103850000Y-85000000D03*
%TO.N,D+*%
X102950000Y-85000000D03*
%TO.N,D-*%
X102050000Y-85000000D03*
%TO.N,+5V*%
X100200000Y-85000000D03*
%TO.N,GND*%
X99250000Y-85000000D03*
X99250000Y-83560000D03*
%TO.N,+5V*%
X100200000Y-83560000D03*
%TO.N,Net-(USB1-CC2)*%
X101150000Y-83560000D03*
%TO.N,D+*%
X102050000Y-83560000D03*
%TO.N,D-*%
X102950000Y-83560000D03*
%TO.N,+5V*%
X104800000Y-83560000D03*
%TO.N,GND*%
X105750000Y-83560000D03*
%TD*%
D12*
%TO.N,GND*%
%TO.C,U7*%
X103800000Y-73600000D03*
X103800000Y-74600000D03*
X104700000Y-73600000D03*
X104700000Y-74600000D03*
X105600000Y-73600000D03*
X105600000Y-74600000D03*
%TD*%
D13*
%TO.N,+3V3*%
X96600000Y-67400000D03*
D14*
X109056929Y-80998452D03*
D13*
X104900000Y-77200000D03*
X102900000Y-68300000D03*
X98990000Y-86650000D03*
X101100000Y-69000000D03*
X95400000Y-86800000D03*
X105900000Y-86800000D03*
%TO.N,GND*%
X97400000Y-65500000D03*
D14*
X108800000Y-67600000D03*
D13*
X99114318Y-81106682D03*
X109650000Y-85450000D03*
D14*
X95400000Y-64800000D03*
D13*
X99900000Y-65500000D03*
X100900000Y-66700000D03*
X99400000Y-71800000D03*
X106600000Y-69000000D03*
X98100000Y-77800000D03*
X102600000Y-77200000D03*
X106600000Y-77900000D03*
X109500000Y-64800000D03*
X107000000Y-80600000D03*
X107600000Y-65500000D03*
X104100000Y-70000000D03*
X96200000Y-87100000D03*
X107210000Y-83300000D03*
X101500000Y-73200000D03*
X102500000Y-65500000D03*
X99400000Y-73500000D03*
X105900000Y-65500000D03*
X104400000Y-67200000D03*
X108010000Y-76730000D03*
X106100000Y-86000000D03*
D14*
X96200000Y-79700000D03*
D13*
X99400000Y-70100000D03*
X104500000Y-79800000D03*
X100990000Y-79900000D03*
D14*
X108400000Y-72800000D03*
D13*
X104200000Y-65500000D03*
D14*
%TO.N,+BATT*%
X106600000Y-72500000D03*
X108400000Y-74490000D03*
%TO.N,+1V8*%
X98325000Y-85375000D03*
X97900000Y-80000000D03*
%TO.N,Net-(BAT1-Pin_2)*%
X100100000Y-75000000D03*
X107610000Y-71600000D03*
%TO.N,+5V*%
X105200000Y-81300000D03*
%TO.N,MPWM1*%
X108400000Y-71900000D03*
%TO.N,MPWM2*%
X107600000Y-70300000D03*
%TO.N,SCL*%
X101100000Y-75000000D03*
X99800000Y-77100000D03*
X97300000Y-82400000D03*
%TO.N,GAUGE_INT*%
X105800000Y-78000000D03*
X106800000Y-75600000D03*
%TO.N,SDA*%
X101067675Y-77200000D03*
X104500000Y-76500000D03*
X98500000Y-81700000D03*
%TO.N,Net-(IO1-Pin_1)*%
X96200000Y-77800000D03*
D13*
%TO.N,DIG_HALL*%
X106750000Y-78800000D03*
X109200000Y-83900000D03*
%TO.N,COMP_DAC*%
X107180000Y-84300000D03*
D14*
%TO.N,Net-(U3-EN)*%
X109100000Y-82880000D03*
X109750000Y-65900000D03*
%TO.N,Net-(U3-IO0)*%
X95926207Y-68666576D03*
D13*
X95394479Y-80649999D03*
D14*
%TO.N,Net-(IO2-Pin_1)*%
X96200000Y-76900000D03*
%TO.N,Net-(IO3-Pin_1)*%
X96300000Y-76050000D03*
D13*
%TO.N,Net-(IO4-Pin_1)*%
X96400000Y-73500000D03*
%TO.N,RX*%
X107350000Y-67640001D03*
%TO.N,TX*%
X106000000Y-67300000D03*
%TO.N,Net-(IO5-Pin_1)*%
X96400000Y-71800000D03*
%TO.N,Net-(IO6-Pin_1)*%
X96400000Y-70900000D03*
%TO.N,Net-(IO7-Pin_1)*%
X96400000Y-69800000D03*
D14*
%TO.N,IMU_INT*%
X101800000Y-76800000D03*
X95493504Y-84828936D03*
%TO.N,FSYNC*%
X101403345Y-79213976D03*
X96267377Y-84132624D03*
D13*
%TO.N,Net-(IO8-Pin_1)*%
X96400000Y-66500000D03*
%TO.N,Net-(IO9-Pin_1)*%
X97400000Y-66400000D03*
%TO.N,Net-(IO10-Pin_1)*%
X98508006Y-65621349D03*
D14*
%TO.N,Net-(IO11-Pin_1)*%
X101200000Y-65900000D03*
%TO.N,Net-(IO12-Pin_1)*%
X102300000Y-66300000D03*
%TO.N,Net-(IO13-Pin_1)*%
X103367573Y-66100000D03*
%TO.N,Net-(IO15-Pin_1)*%
X108550000Y-65750000D03*
%TO.N,Net-(IO16-Pin_1)*%
X106845608Y-65928145D03*
%TO.N,Net-(IO17-Pin_1)*%
X108900000Y-76200000D03*
%TO.N,Net-(IO14-Pin_1)*%
X104700000Y-66197944D03*
%TO.N,Net-(IO18-Pin_1)*%
X109500000Y-77750000D03*
%TO.N,Net-(IO19-Pin_1)*%
X108700000Y-77200000D03*
%TD*%
%TA.AperFunction,Conductor*%
%TO.N,GND*%
G36*
X110225000Y-64220462D02*
G01*
X110279538Y-64275000D01*
X110299500Y-64349500D01*
X110299500Y-65447652D01*
X110279538Y-65522152D01*
X110225000Y-65576690D01*
X110150500Y-65596652D01*
X110076000Y-65576690D01*
X110052925Y-65560258D01*
X110048049Y-65556033D01*
X109939072Y-65485998D01*
X109939069Y-65485996D01*
X109814772Y-65449500D01*
X109685228Y-65449500D01*
X109560931Y-65485996D01*
X109560928Y-65485997D01*
X109560927Y-65485998D01*
X109451955Y-65556030D01*
X109451952Y-65556031D01*
X109451951Y-65556033D01*
X109451949Y-65556034D01*
X109451948Y-65556036D01*
X109367118Y-65653935D01*
X109313302Y-65771776D01*
X109294867Y-65899996D01*
X109294867Y-65900003D01*
X109313302Y-66028223D01*
X109313302Y-66028224D01*
X109313303Y-66028226D01*
X109318701Y-66040046D01*
X109367118Y-66146064D01*
X109412069Y-66197940D01*
X109451951Y-66243967D01*
X109560931Y-66314004D01*
X109685228Y-66350500D01*
X109685231Y-66350500D01*
X109814769Y-66350500D01*
X109814772Y-66350500D01*
X109939069Y-66314004D01*
X110048049Y-66243967D01*
X110048054Y-66243961D01*
X110052920Y-66239745D01*
X110122295Y-66206041D01*
X110199226Y-66211540D01*
X110263102Y-66254767D01*
X110296806Y-66324142D01*
X110299500Y-66352347D01*
X110299500Y-87250500D01*
X110279538Y-87325000D01*
X110225000Y-87379538D01*
X110150500Y-87399500D01*
X106369051Y-87399500D01*
X106294551Y-87379538D01*
X106240013Y-87325000D01*
X106220051Y-87250500D01*
X106240013Y-87176000D01*
X106256444Y-87152926D01*
X106325377Y-87073373D01*
X106385165Y-86942457D01*
X106405647Y-86800000D01*
X106405647Y-86799996D01*
X106385165Y-86657545D01*
X106385165Y-86657543D01*
X106325377Y-86526627D01*
X106231128Y-86417857D01*
X106231127Y-86417856D01*
X106166974Y-86376628D01*
X106110053Y-86340047D01*
X106110050Y-86340046D01*
X105971967Y-86299501D01*
X105971962Y-86299500D01*
X105971961Y-86299500D01*
X105828039Y-86299500D01*
X105828037Y-86299500D01*
X105828032Y-86299501D01*
X105689949Y-86340046D01*
X105568872Y-86417856D01*
X105568870Y-86417859D01*
X105474622Y-86526628D01*
X105414834Y-86657545D01*
X105394353Y-86799996D01*
X105394353Y-86800003D01*
X105414834Y-86942454D01*
X105414834Y-86942455D01*
X105414835Y-86942457D01*
X105474623Y-87073373D01*
X105543556Y-87152926D01*
X105577257Y-87222302D01*
X105571754Y-87299234D01*
X105528523Y-87363107D01*
X105459147Y-87396808D01*
X105430949Y-87399500D01*
X99250264Y-87399500D01*
X99175764Y-87379538D01*
X99121226Y-87325000D01*
X99101264Y-87250500D01*
X99121226Y-87176000D01*
X99175764Y-87121462D01*
X99190675Y-87115076D01*
X99190358Y-87114381D01*
X99200048Y-87109955D01*
X99200049Y-87109954D01*
X99200053Y-87109953D01*
X99321128Y-87032143D01*
X99415377Y-86923373D01*
X99475165Y-86792457D01*
X99485406Y-86721228D01*
X99495647Y-86650003D01*
X99495647Y-86649996D01*
X99475165Y-86507545D01*
X99475165Y-86507543D01*
X99415377Y-86376627D01*
X99321128Y-86267857D01*
X99321127Y-86267856D01*
X99287465Y-86246223D01*
X99200053Y-86190047D01*
X99200050Y-86190046D01*
X99061967Y-86149501D01*
X99061962Y-86149500D01*
X99061961Y-86149500D01*
X98918039Y-86149500D01*
X98918037Y-86149500D01*
X98918032Y-86149501D01*
X98779949Y-86190046D01*
X98658872Y-86267856D01*
X98658870Y-86267859D01*
X98564622Y-86376628D01*
X98504834Y-86507545D01*
X98484353Y-86649996D01*
X98484353Y-86650003D01*
X98504834Y-86792454D01*
X98504834Y-86792455D01*
X98504835Y-86792457D01*
X98564623Y-86923373D01*
X98658872Y-87032143D01*
X98779947Y-87109953D01*
X98779948Y-87109953D01*
X98779951Y-87109955D01*
X98789642Y-87114381D01*
X98788184Y-87117573D01*
X98837577Y-87147683D01*
X98874537Y-87215378D01*
X98872699Y-87292484D01*
X98832553Y-87358341D01*
X98764858Y-87395301D01*
X98729736Y-87399500D01*
X95869051Y-87399500D01*
X95794551Y-87379538D01*
X95740013Y-87325000D01*
X95720051Y-87250500D01*
X95740013Y-87176000D01*
X95756444Y-87152926D01*
X95825377Y-87073373D01*
X95885165Y-86942457D01*
X95905647Y-86800000D01*
X95905647Y-86799996D01*
X95885165Y-86657545D01*
X95885165Y-86657543D01*
X95825377Y-86526627D01*
X95731128Y-86417857D01*
X95731127Y-86417856D01*
X95666974Y-86376628D01*
X95610053Y-86340047D01*
X95610050Y-86340046D01*
X95471967Y-86299501D01*
X95471962Y-86299500D01*
X95471961Y-86299500D01*
X95328039Y-86299500D01*
X95328037Y-86299500D01*
X95328032Y-86299501D01*
X95189949Y-86340046D01*
X95068872Y-86417856D01*
X95068870Y-86417859D01*
X94974623Y-86526627D01*
X94974622Y-86526628D01*
X94967645Y-86534681D01*
X94966601Y-86533776D01*
X94917767Y-86578164D01*
X94842400Y-86594554D01*
X94768936Y-86571064D01*
X94717059Y-86513990D01*
X94700500Y-86445723D01*
X94700500Y-85374996D01*
X97869867Y-85374996D01*
X97869867Y-85375003D01*
X97888302Y-85503223D01*
X97942118Y-85621064D01*
X97997282Y-85684727D01*
X98026951Y-85718967D01*
X98135931Y-85789004D01*
X98260228Y-85825500D01*
X98260231Y-85825500D01*
X98389769Y-85825500D01*
X98389772Y-85825500D01*
X98514069Y-85789004D01*
X98623049Y-85718967D01*
X98707882Y-85621063D01*
X98761697Y-85503226D01*
X98776719Y-85398745D01*
X98780133Y-85375003D01*
X98780133Y-85374996D01*
X98761697Y-85246776D01*
X98761697Y-85246774D01*
X98707882Y-85128937D01*
X98707881Y-85128936D01*
X98707881Y-85128935D01*
X98661145Y-85074999D01*
X98623049Y-85031033D01*
X98574756Y-84999997D01*
X99644750Y-84999997D01*
X99644750Y-85000002D01*
X99663668Y-85143706D01*
X99719138Y-85277625D01*
X99786910Y-85365945D01*
X99807379Y-85392621D01*
X99840706Y-85418194D01*
X99922374Y-85480861D01*
X100056293Y-85536331D01*
X100199997Y-85555250D01*
X100200000Y-85555250D01*
X100200003Y-85555250D01*
X100343706Y-85536331D01*
X100343708Y-85536330D01*
X100343709Y-85536330D01*
X100477625Y-85480861D01*
X100592621Y-85392621D01*
X100680861Y-85277625D01*
X100736330Y-85143709D01*
X100736330Y-85143708D01*
X100736331Y-85143706D01*
X100755250Y-85000002D01*
X100755250Y-84999997D01*
X101494750Y-84999997D01*
X101494750Y-85000002D01*
X101513668Y-85143706D01*
X101569138Y-85277625D01*
X101636910Y-85365945D01*
X101657379Y-85392621D01*
X101690706Y-85418194D01*
X101772374Y-85480861D01*
X101906293Y-85536331D01*
X102049997Y-85555250D01*
X102050000Y-85555250D01*
X102050003Y-85555250D01*
X102193706Y-85536331D01*
X102193708Y-85536330D01*
X102193709Y-85536330D01*
X102327625Y-85480861D01*
X102409294Y-85418194D01*
X102480551Y-85388678D01*
X102557019Y-85398745D01*
X102590706Y-85418194D01*
X102672374Y-85480861D01*
X102806293Y-85536331D01*
X102949997Y-85555250D01*
X102950000Y-85555250D01*
X102950003Y-85555250D01*
X103093706Y-85536331D01*
X103093708Y-85536330D01*
X103093709Y-85536330D01*
X103227625Y-85480861D01*
X103309294Y-85418194D01*
X103380551Y-85388678D01*
X103457019Y-85398745D01*
X103490706Y-85418194D01*
X103572374Y-85480861D01*
X103706293Y-85536331D01*
X103849997Y-85555250D01*
X103850000Y-85555250D01*
X103850003Y-85555250D01*
X103993706Y-85536331D01*
X103993708Y-85536330D01*
X103993709Y-85536330D01*
X104127625Y-85480861D01*
X104234296Y-85399008D01*
X104305550Y-85369494D01*
X104382019Y-85379560D01*
X104415699Y-85399005D01*
X104522375Y-85480861D01*
X104576370Y-85503226D01*
X104656293Y-85536331D01*
X104799997Y-85555250D01*
X104800000Y-85555250D01*
X104800003Y-85555250D01*
X104943706Y-85536331D01*
X104943708Y-85536330D01*
X104943709Y-85536330D01*
X105077625Y-85480861D01*
X105192621Y-85392621D01*
X105280861Y-85277625D01*
X105336330Y-85143709D01*
X105336330Y-85143708D01*
X105336331Y-85143706D01*
X105355250Y-85000002D01*
X105355250Y-84999997D01*
X105336331Y-84856293D01*
X105280861Y-84722374D01*
X105210366Y-84630505D01*
X105192621Y-84607379D01*
X105164228Y-84585592D01*
X105077625Y-84519138D01*
X104943706Y-84463668D01*
X104800003Y-84444750D01*
X104799997Y-84444750D01*
X104656293Y-84463668D01*
X104522374Y-84519139D01*
X104415706Y-84600989D01*
X104344449Y-84630505D01*
X104267981Y-84620438D01*
X104234294Y-84600989D01*
X104127625Y-84519139D01*
X103993706Y-84463668D01*
X103850003Y-84444750D01*
X103849997Y-84444750D01*
X103706293Y-84463668D01*
X103572374Y-84519138D01*
X103490706Y-84581806D01*
X103419449Y-84611322D01*
X103342981Y-84601255D01*
X103309294Y-84581806D01*
X103227625Y-84519138D01*
X103093706Y-84463668D01*
X102950003Y-84444750D01*
X102949997Y-84444750D01*
X102806293Y-84463668D01*
X102672374Y-84519138D01*
X102590706Y-84581806D01*
X102519449Y-84611322D01*
X102442981Y-84601255D01*
X102409294Y-84581806D01*
X102327625Y-84519138D01*
X102193706Y-84463668D01*
X102050003Y-84444750D01*
X102049997Y-84444750D01*
X101906293Y-84463668D01*
X101772374Y-84519138D01*
X101657381Y-84607377D01*
X101657377Y-84607381D01*
X101569138Y-84722374D01*
X101513668Y-84856293D01*
X101494750Y-84999997D01*
X100755250Y-84999997D01*
X100736331Y-84856293D01*
X100680861Y-84722374D01*
X100610366Y-84630505D01*
X100592621Y-84607379D01*
X100564228Y-84585592D01*
X100477625Y-84519138D01*
X100343706Y-84463668D01*
X100200003Y-84444750D01*
X100199997Y-84444750D01*
X100056293Y-84463668D01*
X99922374Y-84519138D01*
X99807381Y-84607377D01*
X99807377Y-84607381D01*
X99719138Y-84722374D01*
X99663668Y-84856293D01*
X99644750Y-84999997D01*
X98574756Y-84999997D01*
X98514069Y-84960996D01*
X98389772Y-84924500D01*
X98260228Y-84924500D01*
X98135931Y-84960996D01*
X98135928Y-84960997D01*
X98135927Y-84960998D01*
X98026955Y-85031030D01*
X98026952Y-85031031D01*
X98026951Y-85031033D01*
X98026949Y-85031034D01*
X98026948Y-85031036D01*
X97942118Y-85128935D01*
X97888302Y-85246776D01*
X97869867Y-85374996D01*
X94700500Y-85374996D01*
X94700500Y-84828932D01*
X95038371Y-84828932D01*
X95038371Y-84828939D01*
X95056806Y-84957159D01*
X95056806Y-84957160D01*
X95056807Y-84957162D01*
X95058559Y-84960998D01*
X95110622Y-85075000D01*
X95157357Y-85128935D01*
X95195455Y-85172903D01*
X95304435Y-85242940D01*
X95428732Y-85279436D01*
X95428735Y-85279436D01*
X95558273Y-85279436D01*
X95558276Y-85279436D01*
X95682573Y-85242940D01*
X95791553Y-85172903D01*
X95876386Y-85074999D01*
X95930201Y-84957162D01*
X95948637Y-84828936D01*
X95948636Y-84828932D01*
X95933538Y-84723919D01*
X95942694Y-84647337D01*
X95988915Y-84585592D01*
X96059816Y-84555231D01*
X96122998Y-84559749D01*
X96202605Y-84583124D01*
X96202608Y-84583124D01*
X96332146Y-84583124D01*
X96332149Y-84583124D01*
X96456446Y-84546628D01*
X96565426Y-84476591D01*
X96650259Y-84378687D01*
X96686196Y-84299996D01*
X106674353Y-84299996D01*
X106674353Y-84300003D01*
X106694834Y-84442454D01*
X106694834Y-84442455D01*
X106694835Y-84442457D01*
X106729855Y-84519139D01*
X106748401Y-84559750D01*
X106754623Y-84573373D01*
X106848872Y-84682143D01*
X106969947Y-84759953D01*
X107108039Y-84800500D01*
X107108041Y-84800500D01*
X107251959Y-84800500D01*
X107251961Y-84800500D01*
X107390053Y-84759953D01*
X107511128Y-84682143D01*
X107605377Y-84573373D01*
X107665165Y-84442457D01*
X107685647Y-84300000D01*
X107685647Y-84299996D01*
X107665165Y-84157545D01*
X107665165Y-84157543D01*
X107605377Y-84026627D01*
X107511128Y-83917857D01*
X107511127Y-83917856D01*
X107462427Y-83886559D01*
X107390053Y-83840047D01*
X107390050Y-83840046D01*
X107251967Y-83799501D01*
X107251962Y-83799500D01*
X107251961Y-83799500D01*
X107108039Y-83799500D01*
X107108037Y-83799500D01*
X107108032Y-83799501D01*
X106969949Y-83840046D01*
X106848872Y-83917856D01*
X106848870Y-83917859D01*
X106754622Y-84026628D01*
X106694834Y-84157545D01*
X106674353Y-84299996D01*
X96686196Y-84299996D01*
X96704074Y-84260850D01*
X96722510Y-84132624D01*
X96722510Y-84132621D01*
X96722510Y-84132620D01*
X96704074Y-84004400D01*
X96704074Y-84004398D01*
X96650259Y-83886561D01*
X96650258Y-83886560D01*
X96650258Y-83886559D01*
X96574821Y-83799500D01*
X96565426Y-83788657D01*
X96456446Y-83718620D01*
X96332149Y-83682124D01*
X96202605Y-83682124D01*
X96078308Y-83718620D01*
X96078305Y-83718621D01*
X96078304Y-83718622D01*
X95969332Y-83788654D01*
X95969329Y-83788655D01*
X95969328Y-83788657D01*
X95969326Y-83788658D01*
X95969325Y-83788660D01*
X95884495Y-83886559D01*
X95830679Y-84004400D01*
X95812244Y-84132620D01*
X95812244Y-84132621D01*
X95812244Y-84132624D01*
X95818103Y-84173373D01*
X95827343Y-84237641D01*
X95818186Y-84314223D01*
X95771964Y-84375967D01*
X95701063Y-84406329D01*
X95637882Y-84401810D01*
X95558277Y-84378436D01*
X95558276Y-84378436D01*
X95428732Y-84378436D01*
X95304435Y-84414932D01*
X95304432Y-84414933D01*
X95304431Y-84414934D01*
X95195459Y-84484966D01*
X95195456Y-84484967D01*
X95195455Y-84484969D01*
X95195453Y-84484970D01*
X95195452Y-84484972D01*
X95110622Y-84582871D01*
X95056806Y-84700712D01*
X95038371Y-84828932D01*
X94700500Y-84828932D01*
X94700500Y-83559997D01*
X99644750Y-83559997D01*
X99644750Y-83560002D01*
X99663668Y-83703706D01*
X99719138Y-83837625D01*
X99780705Y-83917859D01*
X99807379Y-83952621D01*
X99840706Y-83978194D01*
X99922374Y-84040861D01*
X100056293Y-84096331D01*
X100199997Y-84115250D01*
X100200000Y-84115250D01*
X100200003Y-84115250D01*
X100343706Y-84096331D01*
X100343708Y-84096330D01*
X100343709Y-84096330D01*
X100477625Y-84040861D01*
X100584296Y-83959008D01*
X100655550Y-83929494D01*
X100732019Y-83939560D01*
X100765699Y-83959005D01*
X100872375Y-84040861D01*
X100967067Y-84080083D01*
X101006293Y-84096331D01*
X101149997Y-84115250D01*
X101150000Y-84115250D01*
X101150003Y-84115250D01*
X101293706Y-84096331D01*
X101293708Y-84096330D01*
X101293709Y-84096330D01*
X101427625Y-84040861D01*
X101509294Y-83978194D01*
X101580551Y-83948678D01*
X101657019Y-83958745D01*
X101690706Y-83978194D01*
X101772374Y-84040861D01*
X101906293Y-84096331D01*
X102049997Y-84115250D01*
X102050000Y-84115250D01*
X102050003Y-84115250D01*
X102193706Y-84096331D01*
X102193708Y-84096330D01*
X102193709Y-84096330D01*
X102327625Y-84040861D01*
X102409294Y-83978194D01*
X102480551Y-83948678D01*
X102557019Y-83958745D01*
X102590706Y-83978194D01*
X102672374Y-84040861D01*
X102806293Y-84096331D01*
X102949997Y-84115250D01*
X102950000Y-84115250D01*
X102950003Y-84115250D01*
X103093706Y-84096331D01*
X103093708Y-84096330D01*
X103093709Y-84096330D01*
X103227625Y-84040861D01*
X103342621Y-83952621D01*
X103430861Y-83837625D01*
X103486330Y-83703709D01*
X103486330Y-83703708D01*
X103486331Y-83703706D01*
X103505250Y-83560002D01*
X103505250Y-83559997D01*
X104244750Y-83559997D01*
X104244750Y-83560002D01*
X104263668Y-83703706D01*
X104319138Y-83837625D01*
X104380705Y-83917859D01*
X104407379Y-83952621D01*
X104440706Y-83978194D01*
X104522374Y-84040861D01*
X104656293Y-84096331D01*
X104799997Y-84115250D01*
X104800000Y-84115250D01*
X104800003Y-84115250D01*
X104943706Y-84096331D01*
X104943708Y-84096330D01*
X104943709Y-84096330D01*
X105077625Y-84040861D01*
X105192621Y-83952621D01*
X105280861Y-83837625D01*
X105336330Y-83703709D01*
X105336330Y-83703708D01*
X105336331Y-83703706D01*
X105355250Y-83560002D01*
X105355250Y-83559997D01*
X105336331Y-83416293D01*
X105280861Y-83282374D01*
X105210366Y-83190505D01*
X105192621Y-83167379D01*
X105138779Y-83126064D01*
X105077625Y-83079138D01*
X104943706Y-83023668D01*
X104800003Y-83004750D01*
X104799997Y-83004750D01*
X104656293Y-83023668D01*
X104522374Y-83079138D01*
X104407381Y-83167377D01*
X104407377Y-83167381D01*
X104319138Y-83282374D01*
X104263668Y-83416293D01*
X104244750Y-83559997D01*
X103505250Y-83559997D01*
X103486331Y-83416293D01*
X103430861Y-83282374D01*
X103360366Y-83190505D01*
X103342621Y-83167379D01*
X103288779Y-83126064D01*
X103227625Y-83079138D01*
X103093706Y-83023668D01*
X102950003Y-83004750D01*
X102949997Y-83004750D01*
X102806293Y-83023668D01*
X102672374Y-83079138D01*
X102590706Y-83141806D01*
X102519449Y-83171322D01*
X102442981Y-83161255D01*
X102409294Y-83141806D01*
X102327625Y-83079138D01*
X102193706Y-83023668D01*
X102050003Y-83004750D01*
X102049997Y-83004750D01*
X101906293Y-83023668D01*
X101772374Y-83079138D01*
X101690706Y-83141806D01*
X101619449Y-83171322D01*
X101542981Y-83161255D01*
X101509294Y-83141806D01*
X101427625Y-83079138D01*
X101293706Y-83023668D01*
X101150003Y-83004750D01*
X101149997Y-83004750D01*
X101006293Y-83023668D01*
X100872374Y-83079139D01*
X100765706Y-83160989D01*
X100694449Y-83190505D01*
X100617981Y-83180438D01*
X100584294Y-83160989D01*
X100477625Y-83079139D01*
X100343706Y-83023668D01*
X100200003Y-83004750D01*
X100199997Y-83004750D01*
X100056293Y-83023668D01*
X99922374Y-83079138D01*
X99807381Y-83167377D01*
X99807377Y-83167381D01*
X99719138Y-83282374D01*
X99663668Y-83416293D01*
X99644750Y-83559997D01*
X94700500Y-83559997D01*
X94700500Y-82879996D01*
X108644867Y-82879996D01*
X108644867Y-82880003D01*
X108663302Y-83008223D01*
X108717118Y-83126064D01*
X108764233Y-83180438D01*
X108801951Y-83223967D01*
X108869020Y-83267069D01*
X108920900Y-83324138D01*
X108937295Y-83399503D01*
X108913812Y-83472969D01*
X108876450Y-83510334D01*
X108876924Y-83510881D01*
X108869285Y-83517499D01*
X108869030Y-83517755D01*
X108868877Y-83517853D01*
X108868870Y-83517859D01*
X108774622Y-83626628D01*
X108714834Y-83757545D01*
X108694353Y-83899996D01*
X108694353Y-83900003D01*
X108714834Y-84042454D01*
X108767394Y-84157545D01*
X108774623Y-84173373D01*
X108868872Y-84282143D01*
X108989947Y-84359953D01*
X109128039Y-84400500D01*
X109128041Y-84400500D01*
X109271959Y-84400500D01*
X109271961Y-84400500D01*
X109410053Y-84359953D01*
X109531128Y-84282143D01*
X109625377Y-84173373D01*
X109685165Y-84042457D01*
X109699959Y-83939560D01*
X109705647Y-83900003D01*
X109705647Y-83899996D01*
X109685165Y-83757545D01*
X109685165Y-83757543D01*
X109625377Y-83626627D01*
X109531128Y-83517857D01*
X109426734Y-83450767D01*
X109374855Y-83393697D01*
X109358461Y-83318332D01*
X109381945Y-83244866D01*
X109394685Y-83227848D01*
X109398046Y-83223968D01*
X109398049Y-83223967D01*
X109482882Y-83126063D01*
X109536697Y-83008226D01*
X109555133Y-82880000D01*
X109555133Y-82879996D01*
X109536697Y-82751776D01*
X109536697Y-82751774D01*
X109482882Y-82633937D01*
X109482881Y-82633936D01*
X109482881Y-82633935D01*
X109436216Y-82580080D01*
X109398049Y-82536033D01*
X109289069Y-82465996D01*
X109164772Y-82429500D01*
X109035228Y-82429500D01*
X108910931Y-82465996D01*
X108910928Y-82465997D01*
X108910927Y-82465998D01*
X108801955Y-82536030D01*
X108801952Y-82536031D01*
X108801951Y-82536033D01*
X108801949Y-82536034D01*
X108801948Y-82536036D01*
X108717118Y-82633935D01*
X108663302Y-82751776D01*
X108644867Y-82879996D01*
X94700500Y-82879996D01*
X94700500Y-82399996D01*
X96844867Y-82399996D01*
X96844867Y-82400003D01*
X96863302Y-82528223D01*
X96863302Y-82528224D01*
X96863303Y-82528226D01*
X96866870Y-82536036D01*
X96917118Y-82646064D01*
X96972282Y-82709727D01*
X97001951Y-82743967D01*
X97110931Y-82814004D01*
X97235228Y-82850500D01*
X97235231Y-82850500D01*
X97364769Y-82850500D01*
X97364772Y-82850500D01*
X97489069Y-82814004D01*
X97598049Y-82743967D01*
X97682882Y-82646063D01*
X97736697Y-82528226D01*
X97755133Y-82400000D01*
X97755133Y-82399996D01*
X97736697Y-82271776D01*
X97736697Y-82271774D01*
X97682882Y-82153937D01*
X97682881Y-82153936D01*
X97682881Y-82153935D01*
X97636216Y-82100080D01*
X97598049Y-82056033D01*
X97489069Y-81985996D01*
X97364772Y-81949500D01*
X97235228Y-81949500D01*
X97110931Y-81985996D01*
X97110928Y-81985997D01*
X97110927Y-81985998D01*
X97001955Y-82056030D01*
X97001952Y-82056031D01*
X97001951Y-82056033D01*
X97001949Y-82056034D01*
X97001948Y-82056036D01*
X96917118Y-82153935D01*
X96863302Y-82271776D01*
X96844867Y-82399996D01*
X94700500Y-82399996D01*
X94700500Y-81699996D01*
X98044867Y-81699996D01*
X98044867Y-81700003D01*
X98063302Y-81828223D01*
X98117118Y-81946064D01*
X98151720Y-81985997D01*
X98201951Y-82043967D01*
X98310931Y-82114004D01*
X98435228Y-82150500D01*
X98435231Y-82150500D01*
X98564769Y-82150500D01*
X98564772Y-82150500D01*
X98689069Y-82114004D01*
X98798049Y-82043967D01*
X98882882Y-81946063D01*
X98936697Y-81828226D01*
X98955133Y-81700000D01*
X98955133Y-81699996D01*
X98936697Y-81571776D01*
X98936697Y-81571774D01*
X98882882Y-81453937D01*
X98882881Y-81453936D01*
X98882881Y-81453935D01*
X98836216Y-81400080D01*
X98798049Y-81356033D01*
X98710853Y-81299996D01*
X104744867Y-81299996D01*
X104744867Y-81300003D01*
X104763302Y-81428223D01*
X104763302Y-81428224D01*
X104763303Y-81428226D01*
X104775044Y-81453935D01*
X104817118Y-81546064D01*
X104839396Y-81571774D01*
X104901951Y-81643967D01*
X105010931Y-81714004D01*
X105135228Y-81750500D01*
X105135231Y-81750500D01*
X105264769Y-81750500D01*
X105264772Y-81750500D01*
X105389069Y-81714004D01*
X105498049Y-81643967D01*
X105582882Y-81546063D01*
X105636697Y-81428226D01*
X105655133Y-81300000D01*
X105655133Y-81299996D01*
X105636697Y-81171776D01*
X105636697Y-81171774D01*
X105582882Y-81053937D01*
X105582881Y-81053936D01*
X105582881Y-81053935D01*
X105534801Y-80998448D01*
X108601796Y-80998448D01*
X108601796Y-80998455D01*
X108620231Y-81126675D01*
X108674047Y-81244516D01*
X108722121Y-81299996D01*
X108758880Y-81342419D01*
X108867860Y-81412456D01*
X108992157Y-81448952D01*
X108992160Y-81448952D01*
X109121698Y-81448952D01*
X109121701Y-81448952D01*
X109245998Y-81412456D01*
X109354978Y-81342419D01*
X109439811Y-81244515D01*
X109493626Y-81126678D01*
X109512062Y-80998452D01*
X109512062Y-80998448D01*
X109499771Y-80912968D01*
X109493626Y-80870226D01*
X109439811Y-80752389D01*
X109439810Y-80752388D01*
X109439810Y-80752387D01*
X109393145Y-80698532D01*
X109354978Y-80654485D01*
X109245998Y-80584448D01*
X109121701Y-80547952D01*
X108992157Y-80547952D01*
X108867860Y-80584448D01*
X108867857Y-80584449D01*
X108867856Y-80584450D01*
X108758884Y-80654482D01*
X108758881Y-80654483D01*
X108758880Y-80654485D01*
X108758878Y-80654486D01*
X108758877Y-80654488D01*
X108674047Y-80752387D01*
X108620231Y-80870228D01*
X108601796Y-80998448D01*
X105534801Y-80998448D01*
X105498049Y-80956033D01*
X105389069Y-80885996D01*
X105264772Y-80849500D01*
X105135228Y-80849500D01*
X105010931Y-80885996D01*
X105010928Y-80885997D01*
X105010927Y-80885998D01*
X104901955Y-80956030D01*
X104901952Y-80956031D01*
X104901951Y-80956033D01*
X104901949Y-80956034D01*
X104901948Y-80956036D01*
X104817118Y-81053935D01*
X104763302Y-81171776D01*
X104744867Y-81299996D01*
X98710853Y-81299996D01*
X98689069Y-81285996D01*
X98564772Y-81249500D01*
X98435228Y-81249500D01*
X98310931Y-81285996D01*
X98310928Y-81285997D01*
X98310927Y-81285998D01*
X98201955Y-81356030D01*
X98201952Y-81356031D01*
X98201951Y-81356033D01*
X98201949Y-81356034D01*
X98201948Y-81356036D01*
X98117118Y-81453935D01*
X98063302Y-81571776D01*
X98044867Y-81699996D01*
X94700500Y-81699996D01*
X94700500Y-81012865D01*
X94720462Y-80938365D01*
X94775000Y-80883827D01*
X94849500Y-80863865D01*
X94924000Y-80883827D01*
X94959281Y-80917781D01*
X94962124Y-80915318D01*
X94969101Y-80923370D01*
X94969102Y-80923372D01*
X95063351Y-81032142D01*
X95184426Y-81109952D01*
X95322518Y-81150499D01*
X95322520Y-81150499D01*
X95466438Y-81150499D01*
X95466440Y-81150499D01*
X95604532Y-81109952D01*
X95725607Y-81032142D01*
X95819856Y-80923372D01*
X95879644Y-80792456D01*
X95899481Y-80654485D01*
X95900126Y-80650002D01*
X95900126Y-80649995D01*
X95879644Y-80507544D01*
X95879644Y-80507542D01*
X95819856Y-80376626D01*
X95725607Y-80267856D01*
X95725606Y-80267855D01*
X95691696Y-80246063D01*
X95604532Y-80190046D01*
X95604529Y-80190045D01*
X95466446Y-80149500D01*
X95466441Y-80149499D01*
X95466440Y-80149499D01*
X95322518Y-80149499D01*
X95322516Y-80149499D01*
X95322511Y-80149500D01*
X95184428Y-80190045D01*
X95063351Y-80267855D01*
X95063349Y-80267858D01*
X94969102Y-80376626D01*
X94969101Y-80376627D01*
X94962124Y-80384680D01*
X94959174Y-80382124D01*
X94916731Y-80420102D01*
X94841238Y-80435903D01*
X94767960Y-80411840D01*
X94716530Y-80354363D01*
X94700500Y-80287132D01*
X94700500Y-79999996D01*
X97444867Y-79999996D01*
X97444867Y-80000003D01*
X97463302Y-80128223D01*
X97517118Y-80246064D01*
X97536001Y-80267856D01*
X97601951Y-80343967D01*
X97710931Y-80414004D01*
X97835228Y-80450500D01*
X97835231Y-80450500D01*
X97964769Y-80450500D01*
X97964772Y-80450500D01*
X98089069Y-80414004D01*
X98198049Y-80343967D01*
X98282882Y-80246063D01*
X98336697Y-80128226D01*
X98355133Y-80000000D01*
X98355133Y-79999996D01*
X98336697Y-79871776D01*
X98336697Y-79871774D01*
X98282882Y-79753937D01*
X98282881Y-79753936D01*
X98282881Y-79753935D01*
X98236216Y-79700080D01*
X98198049Y-79656033D01*
X98089069Y-79585996D01*
X97964772Y-79549500D01*
X97835228Y-79549500D01*
X97710931Y-79585996D01*
X97710928Y-79585997D01*
X97710927Y-79585998D01*
X97601955Y-79656030D01*
X97601952Y-79656031D01*
X97601951Y-79656033D01*
X97601949Y-79656034D01*
X97601948Y-79656036D01*
X97517118Y-79753935D01*
X97463302Y-79871776D01*
X97444867Y-79999996D01*
X94700500Y-79999996D01*
X94700500Y-79213972D01*
X100948212Y-79213972D01*
X100948212Y-79213979D01*
X100966647Y-79342199D01*
X101020463Y-79460040D01*
X101075627Y-79523703D01*
X101105296Y-79557943D01*
X101214276Y-79627980D01*
X101338573Y-79664476D01*
X101338576Y-79664476D01*
X101468114Y-79664476D01*
X101468117Y-79664476D01*
X101592414Y-79627980D01*
X101701394Y-79557943D01*
X101786227Y-79460039D01*
X101840042Y-79342202D01*
X101858478Y-79213976D01*
X101858478Y-79213972D01*
X101840042Y-79085752D01*
X101840042Y-79085750D01*
X101786227Y-78967913D01*
X101786226Y-78967912D01*
X101786226Y-78967911D01*
X101739561Y-78914056D01*
X101701394Y-78870009D01*
X101592451Y-78799996D01*
X106244353Y-78799996D01*
X106244353Y-78800003D01*
X106264834Y-78942454D01*
X106264834Y-78942455D01*
X106264835Y-78942457D01*
X106324623Y-79073373D01*
X106418872Y-79182143D01*
X106539947Y-79259953D01*
X106678039Y-79300500D01*
X106678041Y-79300500D01*
X106821959Y-79300500D01*
X106821961Y-79300500D01*
X106960053Y-79259953D01*
X107081128Y-79182143D01*
X107175377Y-79073373D01*
X107235165Y-78942457D01*
X107255647Y-78800000D01*
X107255647Y-78799996D01*
X107235165Y-78657545D01*
X107235165Y-78657543D01*
X107175377Y-78526627D01*
X107081128Y-78417857D01*
X107081127Y-78417856D01*
X107047465Y-78396223D01*
X106960053Y-78340047D01*
X106953780Y-78338205D01*
X106821967Y-78299501D01*
X106821962Y-78299500D01*
X106821961Y-78299500D01*
X106678039Y-78299500D01*
X106678037Y-78299500D01*
X106678032Y-78299501D01*
X106539949Y-78340046D01*
X106539947Y-78340046D01*
X106539947Y-78340047D01*
X106499588Y-78365983D01*
X106418868Y-78417859D01*
X106416142Y-78420222D01*
X106412256Y-78422108D01*
X106409907Y-78423619D01*
X106409726Y-78423337D01*
X106346763Y-78453916D01*
X106335793Y-78453130D01*
X106331787Y-78509309D01*
X106326507Y-78522500D01*
X106264834Y-78657543D01*
X106244353Y-78799996D01*
X101592451Y-78799996D01*
X101592414Y-78799972D01*
X101468117Y-78763476D01*
X101338573Y-78763476D01*
X101214276Y-78799972D01*
X101214273Y-78799973D01*
X101214272Y-78799974D01*
X101105300Y-78870006D01*
X101105297Y-78870007D01*
X101105296Y-78870009D01*
X101105294Y-78870010D01*
X101105293Y-78870012D01*
X101020463Y-78967911D01*
X100966647Y-79085752D01*
X100948212Y-79213972D01*
X94700500Y-79213972D01*
X94700500Y-76899996D01*
X95744867Y-76899996D01*
X95744867Y-76900003D01*
X95763302Y-77028223D01*
X95763302Y-77028224D01*
X95763303Y-77028226D01*
X95783191Y-77071774D01*
X95817118Y-77146064D01*
X95908929Y-77252020D01*
X95905996Y-77254561D01*
X95937623Y-77301349D01*
X95943081Y-77378283D01*
X95909340Y-77447640D01*
X95908468Y-77448511D01*
X95817118Y-77553935D01*
X95763302Y-77671776D01*
X95744867Y-77799996D01*
X95744867Y-77800003D01*
X95763302Y-77928223D01*
X95817118Y-78046064D01*
X95858623Y-78093963D01*
X95901951Y-78143967D01*
X96010931Y-78214004D01*
X96135228Y-78250500D01*
X96135231Y-78250500D01*
X96264769Y-78250500D01*
X96264772Y-78250500D01*
X96389069Y-78214004D01*
X96498049Y-78143967D01*
X96582882Y-78046063D01*
X96636697Y-77928226D01*
X96645915Y-77864113D01*
X96655133Y-77800003D01*
X96655133Y-77799996D01*
X96636697Y-77671776D01*
X96636697Y-77671774D01*
X96582882Y-77553937D01*
X96582881Y-77553936D01*
X96582881Y-77553935D01*
X96491071Y-77447980D01*
X96494017Y-77445427D01*
X96462427Y-77398800D01*
X96456888Y-77321871D01*
X96490556Y-77252479D01*
X96491434Y-77251600D01*
X96498046Y-77243968D01*
X96498049Y-77243967D01*
X96582882Y-77146063D01*
X96603920Y-77099996D01*
X99344867Y-77099996D01*
X99344867Y-77100003D01*
X99363302Y-77228223D01*
X99363302Y-77228224D01*
X99363303Y-77228226D01*
X99374379Y-77252479D01*
X99417118Y-77346064D01*
X99469084Y-77406036D01*
X99501951Y-77443967D01*
X99610931Y-77514004D01*
X99735228Y-77550500D01*
X99735231Y-77550500D01*
X99864769Y-77550500D01*
X99864772Y-77550500D01*
X99989069Y-77514004D01*
X100098049Y-77443967D01*
X100182882Y-77346063D01*
X100236697Y-77228226D01*
X100240756Y-77199996D01*
X100612542Y-77199996D01*
X100612542Y-77200003D01*
X100630977Y-77328223D01*
X100630977Y-77328224D01*
X100630978Y-77328226D01*
X100640922Y-77350000D01*
X100684793Y-77446064D01*
X100731463Y-77499924D01*
X100769626Y-77543967D01*
X100878606Y-77614004D01*
X101002903Y-77650500D01*
X101002906Y-77650500D01*
X101132444Y-77650500D01*
X101132447Y-77650500D01*
X101256744Y-77614004D01*
X101365724Y-77543967D01*
X101450557Y-77446063D01*
X101504372Y-77328226D01*
X101504372Y-77328225D01*
X101508799Y-77318532D01*
X101512184Y-77320077D01*
X101541863Y-77271379D01*
X101609553Y-77234410D01*
X101686658Y-77236238D01*
X101735228Y-77250500D01*
X101735231Y-77250500D01*
X101864769Y-77250500D01*
X101864772Y-77250500D01*
X101989069Y-77214004D01*
X102098049Y-77143967D01*
X102182882Y-77046063D01*
X102236697Y-76928226D01*
X102248812Y-76843963D01*
X102255133Y-76800003D01*
X102255133Y-76799996D01*
X102240683Y-76699500D01*
X102236697Y-76671774D01*
X102182882Y-76553937D01*
X102182881Y-76553936D01*
X102182881Y-76553935D01*
X102136142Y-76499996D01*
X104044867Y-76499996D01*
X104044867Y-76500003D01*
X104063302Y-76628223D01*
X104063302Y-76628224D01*
X104063303Y-76628226D01*
X104075042Y-76653931D01*
X104117118Y-76746064D01*
X104172282Y-76809727D01*
X104201951Y-76843967D01*
X104310931Y-76914004D01*
X104310938Y-76914006D01*
X104320625Y-76918430D01*
X104319600Y-76920672D01*
X104372405Y-76952858D01*
X104409370Y-77020551D01*
X104412054Y-77076885D01*
X104394353Y-77200002D01*
X104394353Y-77200003D01*
X104414834Y-77342454D01*
X104414834Y-77342455D01*
X104414835Y-77342457D01*
X104474623Y-77473373D01*
X104568872Y-77582143D01*
X104689947Y-77659953D01*
X104828039Y-77700500D01*
X104828041Y-77700500D01*
X104971959Y-77700500D01*
X104971961Y-77700500D01*
X105110053Y-77659953D01*
X105178540Y-77615938D01*
X105252000Y-77592456D01*
X105327365Y-77608850D01*
X105384437Y-77660730D01*
X105407922Y-77734196D01*
X105394627Y-77803183D01*
X105363302Y-77871776D01*
X105344867Y-77999996D01*
X105344867Y-78000003D01*
X105363302Y-78128223D01*
X105363302Y-78128224D01*
X105363303Y-78128226D01*
X105387390Y-78180970D01*
X105417118Y-78246064D01*
X105472282Y-78309727D01*
X105501951Y-78343967D01*
X105610931Y-78414004D01*
X105735228Y-78450500D01*
X105735231Y-78450500D01*
X105864769Y-78450500D01*
X105864772Y-78450500D01*
X105989069Y-78414004D01*
X106098049Y-78343967D01*
X106098049Y-78343966D01*
X106107015Y-78338205D01*
X106108572Y-78340629D01*
X106162745Y-78314301D01*
X106173750Y-78315085D01*
X106177777Y-78258860D01*
X106183044Y-78245708D01*
X106236697Y-78128226D01*
X106255133Y-78000003D01*
X106255133Y-77999996D01*
X106242842Y-77914516D01*
X106236697Y-77871774D01*
X106182882Y-77753937D01*
X106182881Y-77753936D01*
X106182881Y-77753935D01*
X106111688Y-77671774D01*
X106098049Y-77656033D01*
X105989069Y-77585996D01*
X105864772Y-77549500D01*
X105735228Y-77549500D01*
X105610931Y-77585996D01*
X105610929Y-77585997D01*
X105560845Y-77618184D01*
X105487379Y-77641667D01*
X105412013Y-77625272D01*
X105354943Y-77573390D01*
X105331460Y-77499924D01*
X105344755Y-77430940D01*
X105385165Y-77342457D01*
X105398386Y-77250500D01*
X105405647Y-77200003D01*
X105405647Y-77199996D01*
X108244867Y-77199996D01*
X108244867Y-77200003D01*
X108263302Y-77328223D01*
X108263302Y-77328224D01*
X108263303Y-77328226D01*
X108273247Y-77350000D01*
X108317118Y-77446064D01*
X108363788Y-77499924D01*
X108401951Y-77543967D01*
X108510931Y-77614004D01*
X108635228Y-77650500D01*
X108635231Y-77650500D01*
X108764769Y-77650500D01*
X108764772Y-77650500D01*
X108854807Y-77624063D01*
X108931911Y-77622228D01*
X108999604Y-77659191D01*
X109039747Y-77725049D01*
X109044266Y-77745823D01*
X109063302Y-77878223D01*
X109117118Y-77996064D01*
X109160443Y-78046064D01*
X109201951Y-78093967D01*
X109310931Y-78164004D01*
X109435228Y-78200500D01*
X109435231Y-78200500D01*
X109564769Y-78200500D01*
X109564772Y-78200500D01*
X109689069Y-78164004D01*
X109798049Y-78093967D01*
X109882882Y-77996063D01*
X109936697Y-77878226D01*
X109945915Y-77814113D01*
X109955133Y-77750003D01*
X109955133Y-77749996D01*
X109936697Y-77621776D01*
X109936697Y-77621774D01*
X109882882Y-77503937D01*
X109882881Y-77503936D01*
X109882881Y-77503935D01*
X109834101Y-77447640D01*
X109798049Y-77406033D01*
X109689069Y-77335996D01*
X109564772Y-77299500D01*
X109435228Y-77299500D01*
X109435226Y-77299500D01*
X109345193Y-77325936D01*
X109268087Y-77327771D01*
X109200393Y-77290806D01*
X109160251Y-77224948D01*
X109155732Y-77204175D01*
X109155132Y-77200004D01*
X109155133Y-77200000D01*
X109136697Y-77071774D01*
X109082882Y-76953937D01*
X109082881Y-76953936D01*
X109082881Y-76953935D01*
X109034536Y-76898142D01*
X109001153Y-76859615D01*
X108967454Y-76790241D01*
X108972956Y-76713309D01*
X109016187Y-76649436D01*
X109071783Y-76619079D01*
X109089069Y-76614004D01*
X109198049Y-76543967D01*
X109282882Y-76446063D01*
X109336697Y-76328226D01*
X109355133Y-76200000D01*
X109355133Y-76199996D01*
X109336697Y-76071776D01*
X109336697Y-76071774D01*
X109282882Y-75953937D01*
X109282881Y-75953936D01*
X109282881Y-75953935D01*
X109236216Y-75900080D01*
X109198049Y-75856033D01*
X109089069Y-75785996D01*
X108964772Y-75749500D01*
X108835228Y-75749500D01*
X108710931Y-75785996D01*
X108710928Y-75785997D01*
X108710927Y-75785998D01*
X108601955Y-75856030D01*
X108601952Y-75856031D01*
X108601951Y-75856033D01*
X108601949Y-75856034D01*
X108601948Y-75856036D01*
X108517118Y-75953935D01*
X108463302Y-76071776D01*
X108444867Y-76199996D01*
X108444867Y-76200003D01*
X108463302Y-76328223D01*
X108517118Y-76446064D01*
X108598845Y-76540382D01*
X108632545Y-76609758D01*
X108627043Y-76686690D01*
X108583812Y-76750563D01*
X108528219Y-76780920D01*
X108510933Y-76785995D01*
X108510927Y-76785998D01*
X108401955Y-76856030D01*
X108401952Y-76856031D01*
X108401951Y-76856033D01*
X108401949Y-76856034D01*
X108401948Y-76856036D01*
X108317118Y-76953935D01*
X108263302Y-77071776D01*
X108244867Y-77199996D01*
X105405647Y-77199996D01*
X105385165Y-77057545D01*
X105385165Y-77057543D01*
X105325377Y-76926627D01*
X105231128Y-76817857D01*
X105231127Y-76817856D01*
X105149850Y-76765623D01*
X105110053Y-76740047D01*
X105110052Y-76740046D01*
X105110051Y-76740046D01*
X105052171Y-76723051D01*
X104986313Y-76682908D01*
X104949350Y-76615215D01*
X104946667Y-76558881D01*
X104947077Y-76556033D01*
X104955133Y-76500000D01*
X104955133Y-76499996D01*
X104936697Y-76371776D01*
X104936697Y-76371774D01*
X104882882Y-76253937D01*
X104882881Y-76253936D01*
X104882881Y-76253935D01*
X104817276Y-76178223D01*
X104798049Y-76156033D01*
X104689069Y-76085996D01*
X104564772Y-76049500D01*
X104435228Y-76049500D01*
X104310931Y-76085996D01*
X104310928Y-76085997D01*
X104310927Y-76085998D01*
X104201955Y-76156030D01*
X104201952Y-76156031D01*
X104201951Y-76156033D01*
X104201949Y-76156034D01*
X104201948Y-76156036D01*
X104117118Y-76253935D01*
X104063302Y-76371776D01*
X104044867Y-76499996D01*
X102136142Y-76499996D01*
X102128394Y-76491054D01*
X102098049Y-76456033D01*
X101989069Y-76385996D01*
X101864772Y-76349500D01*
X101735228Y-76349500D01*
X101610931Y-76385996D01*
X101610928Y-76385997D01*
X101610927Y-76385998D01*
X101501955Y-76456030D01*
X101501952Y-76456031D01*
X101501951Y-76456033D01*
X101501949Y-76456034D01*
X101501948Y-76456036D01*
X101417118Y-76553935D01*
X101358876Y-76681468D01*
X101355506Y-76679928D01*
X101325706Y-76728720D01*
X101257979Y-76765623D01*
X101181005Y-76763757D01*
X101132451Y-76749501D01*
X101132449Y-76749500D01*
X101132447Y-76749500D01*
X101002903Y-76749500D01*
X100878606Y-76785996D01*
X100878603Y-76785997D01*
X100878602Y-76785998D01*
X100769630Y-76856030D01*
X100769627Y-76856031D01*
X100769626Y-76856033D01*
X100769624Y-76856034D01*
X100769623Y-76856036D01*
X100684793Y-76953935D01*
X100630977Y-77071776D01*
X100612542Y-77199996D01*
X100240756Y-77199996D01*
X100255133Y-77100000D01*
X100255133Y-77099996D01*
X100236697Y-76971776D01*
X100236697Y-76971774D01*
X100182882Y-76853937D01*
X100182881Y-76853936D01*
X100182881Y-76853935D01*
X100124013Y-76785998D01*
X100098049Y-76756033D01*
X99989069Y-76685996D01*
X99864772Y-76649500D01*
X99735228Y-76649500D01*
X99610931Y-76685996D01*
X99610928Y-76685997D01*
X99610927Y-76685998D01*
X99501955Y-76756030D01*
X99501952Y-76756031D01*
X99501951Y-76756033D01*
X99501949Y-76756034D01*
X99501948Y-76756036D01*
X99417118Y-76853935D01*
X99363302Y-76971776D01*
X99344867Y-77099996D01*
X96603920Y-77099996D01*
X96636697Y-77028226D01*
X96651075Y-76928223D01*
X96655133Y-76900003D01*
X96655133Y-76899996D01*
X96638742Y-76785996D01*
X96636697Y-76771774D01*
X96582882Y-76653937D01*
X96582881Y-76653936D01*
X96582881Y-76653935D01*
X96582878Y-76653931D01*
X96556222Y-76623168D01*
X96522521Y-76553792D01*
X96528024Y-76476861D01*
X96571256Y-76412988D01*
X96588271Y-76400250D01*
X96598049Y-76393967D01*
X96682882Y-76296063D01*
X96736697Y-76178226D01*
X96749957Y-76085998D01*
X96755133Y-76050003D01*
X96755133Y-76049996D01*
X96736697Y-75921776D01*
X96736697Y-75921774D01*
X96682882Y-75803937D01*
X96682881Y-75803936D01*
X96682881Y-75803935D01*
X96617276Y-75728223D01*
X96598049Y-75706033D01*
X96489069Y-75635996D01*
X96366461Y-75599996D01*
X106344867Y-75599996D01*
X106344867Y-75600003D01*
X106363302Y-75728223D01*
X106417118Y-75846064D01*
X106472282Y-75909727D01*
X106501951Y-75943967D01*
X106610931Y-76014004D01*
X106735228Y-76050500D01*
X106735231Y-76050500D01*
X106864769Y-76050500D01*
X106864772Y-76050500D01*
X106989069Y-76014004D01*
X107098049Y-75943967D01*
X107182882Y-75846063D01*
X107236697Y-75728226D01*
X107249957Y-75635998D01*
X107255133Y-75600003D01*
X107255133Y-75599996D01*
X107236697Y-75471776D01*
X107236697Y-75471774D01*
X107182882Y-75353937D01*
X107182881Y-75353936D01*
X107182881Y-75353935D01*
X107136216Y-75300080D01*
X107098049Y-75256033D01*
X106989069Y-75185996D01*
X106864772Y-75149500D01*
X106735228Y-75149500D01*
X106610931Y-75185996D01*
X106610928Y-75185997D01*
X106610927Y-75185998D01*
X106501955Y-75256030D01*
X106501952Y-75256031D01*
X106501951Y-75256033D01*
X106501949Y-75256034D01*
X106501948Y-75256036D01*
X106417118Y-75353935D01*
X106363302Y-75471776D01*
X106344867Y-75599996D01*
X96366461Y-75599996D01*
X96364772Y-75599500D01*
X96235228Y-75599500D01*
X96110931Y-75635996D01*
X96110928Y-75635997D01*
X96110927Y-75635998D01*
X96001955Y-75706030D01*
X96001952Y-75706031D01*
X96001951Y-75706033D01*
X96001949Y-75706034D01*
X96001948Y-75706036D01*
X95917118Y-75803935D01*
X95863302Y-75921776D01*
X95844867Y-76049996D01*
X95844867Y-76050003D01*
X95863302Y-76178223D01*
X95863302Y-76178224D01*
X95863303Y-76178226D01*
X95887390Y-76230970D01*
X95917118Y-76296064D01*
X95943778Y-76326831D01*
X95977478Y-76396207D01*
X95971975Y-76473138D01*
X95928743Y-76537012D01*
X95911728Y-76549749D01*
X95901956Y-76556028D01*
X95901948Y-76556036D01*
X95817118Y-76653935D01*
X95763302Y-76771776D01*
X95744867Y-76899996D01*
X94700500Y-76899996D01*
X94700500Y-74999996D01*
X99644867Y-74999996D01*
X99644867Y-75000003D01*
X99663302Y-75128223D01*
X99717118Y-75246064D01*
X99772282Y-75309727D01*
X99801951Y-75343967D01*
X99910931Y-75414004D01*
X100035228Y-75450500D01*
X100035231Y-75450500D01*
X100164769Y-75450500D01*
X100164772Y-75450500D01*
X100289069Y-75414004D01*
X100398049Y-75343967D01*
X100482882Y-75246063D01*
X100482882Y-75246062D01*
X100487393Y-75240857D01*
X100551266Y-75197626D01*
X100628197Y-75192123D01*
X100697574Y-75225824D01*
X100712607Y-75240857D01*
X100717118Y-75246063D01*
X100801951Y-75343967D01*
X100910931Y-75414004D01*
X101035228Y-75450500D01*
X101035231Y-75450500D01*
X101164769Y-75450500D01*
X101164772Y-75450500D01*
X101289069Y-75414004D01*
X101398049Y-75343967D01*
X101482882Y-75246063D01*
X101536697Y-75128226D01*
X101555133Y-75000000D01*
X101555133Y-74999996D01*
X101541331Y-74904002D01*
X101536697Y-74871774D01*
X101482882Y-74753937D01*
X101482881Y-74753936D01*
X101482881Y-74753935D01*
X101436216Y-74700080D01*
X101398049Y-74656033D01*
X101289069Y-74585996D01*
X101164772Y-74549500D01*
X101035228Y-74549500D01*
X100910931Y-74585996D01*
X100910928Y-74585997D01*
X100910927Y-74585998D01*
X100801955Y-74656030D01*
X100801952Y-74656031D01*
X100801951Y-74656033D01*
X100801949Y-74656034D01*
X100801948Y-74656036D01*
X100712607Y-74759142D01*
X100648733Y-74802373D01*
X100571802Y-74807875D01*
X100502426Y-74774175D01*
X100487393Y-74759142D01*
X100433511Y-74696959D01*
X100398049Y-74656033D01*
X100289069Y-74585996D01*
X100164772Y-74549500D01*
X100035228Y-74549500D01*
X99910931Y-74585996D01*
X99910928Y-74585997D01*
X99910927Y-74585998D01*
X99801955Y-74656030D01*
X99801952Y-74656031D01*
X99801951Y-74656033D01*
X99801949Y-74656034D01*
X99801948Y-74656036D01*
X99717118Y-74753935D01*
X99663302Y-74871776D01*
X99644867Y-74999996D01*
X94700500Y-74999996D01*
X94700500Y-74489996D01*
X107944867Y-74489996D01*
X107944867Y-74490003D01*
X107963302Y-74618223D01*
X107963302Y-74618224D01*
X107963303Y-74618226D01*
X107987390Y-74670970D01*
X108017118Y-74736064D01*
X108072282Y-74799727D01*
X108101951Y-74833967D01*
X108210931Y-74904004D01*
X108335228Y-74940500D01*
X108335231Y-74940500D01*
X108464769Y-74940500D01*
X108464772Y-74940500D01*
X108589069Y-74904004D01*
X108698049Y-74833967D01*
X108782882Y-74736063D01*
X108836697Y-74618226D01*
X108855133Y-74490000D01*
X108855133Y-74489996D01*
X108836697Y-74361776D01*
X108836697Y-74361774D01*
X108782882Y-74243937D01*
X108782881Y-74243936D01*
X108782881Y-74243935D01*
X108736216Y-74190080D01*
X108698049Y-74146033D01*
X108589069Y-74075996D01*
X108464772Y-74039500D01*
X108335228Y-74039500D01*
X108210931Y-74075996D01*
X108210928Y-74075997D01*
X108210927Y-74075998D01*
X108101955Y-74146030D01*
X108101952Y-74146031D01*
X108101951Y-74146033D01*
X108101949Y-74146034D01*
X108101948Y-74146036D01*
X108017118Y-74243935D01*
X107963302Y-74361776D01*
X107944867Y-74489996D01*
X94700500Y-74489996D01*
X94700500Y-73499996D01*
X95894353Y-73499996D01*
X95894353Y-73500003D01*
X95914834Y-73642454D01*
X95914834Y-73642455D01*
X95914835Y-73642457D01*
X95974623Y-73773373D01*
X96068872Y-73882143D01*
X96189947Y-73959953D01*
X96328039Y-74000500D01*
X96328041Y-74000500D01*
X96471959Y-74000500D01*
X96471961Y-74000500D01*
X96610053Y-73959953D01*
X96731128Y-73882143D01*
X96825377Y-73773373D01*
X96885165Y-73642457D01*
X96905647Y-73500000D01*
X96905647Y-73499996D01*
X96885165Y-73357545D01*
X96885165Y-73357543D01*
X96825377Y-73226627D01*
X96731128Y-73117857D01*
X96731127Y-73117856D01*
X96697465Y-73096223D01*
X96610053Y-73040047D01*
X96610050Y-73040046D01*
X96471967Y-72999501D01*
X96471962Y-72999500D01*
X96471961Y-72999500D01*
X96328039Y-72999500D01*
X96328037Y-72999500D01*
X96328032Y-72999501D01*
X96189949Y-73040046D01*
X96068872Y-73117856D01*
X96068870Y-73117859D01*
X95974622Y-73226628D01*
X95914834Y-73357545D01*
X95894353Y-73499996D01*
X94700500Y-73499996D01*
X94700500Y-72499996D01*
X106144867Y-72499996D01*
X106144867Y-72500003D01*
X106163302Y-72628223D01*
X106217118Y-72746064D01*
X106272282Y-72809727D01*
X106301951Y-72843967D01*
X106410931Y-72914004D01*
X106535228Y-72950500D01*
X106535231Y-72950500D01*
X106664769Y-72950500D01*
X106664772Y-72950500D01*
X106789069Y-72914004D01*
X106898049Y-72843967D01*
X106982882Y-72746063D01*
X107036697Y-72628226D01*
X107055133Y-72500000D01*
X107055133Y-72499996D01*
X107036697Y-72371776D01*
X107036697Y-72371774D01*
X106982882Y-72253937D01*
X106982881Y-72253936D01*
X106982881Y-72253935D01*
X106920670Y-72182140D01*
X106898049Y-72156033D01*
X106789069Y-72085996D01*
X106664772Y-72049500D01*
X106535228Y-72049500D01*
X106410931Y-72085996D01*
X106410928Y-72085997D01*
X106410927Y-72085998D01*
X106301955Y-72156030D01*
X106301952Y-72156031D01*
X106301951Y-72156033D01*
X106301949Y-72156034D01*
X106301948Y-72156036D01*
X106217118Y-72253935D01*
X106163302Y-72371776D01*
X106144867Y-72499996D01*
X94700500Y-72499996D01*
X94700500Y-69799996D01*
X95894353Y-69799996D01*
X95894353Y-69800003D01*
X95914834Y-69942454D01*
X95914834Y-69942455D01*
X95914835Y-69942457D01*
X95974623Y-70073373D01*
X96068872Y-70182143D01*
X96068874Y-70182144D01*
X96135020Y-70224654D01*
X96186901Y-70281725D01*
X96203295Y-70357090D01*
X96179810Y-70430556D01*
X96135020Y-70475346D01*
X96068874Y-70517855D01*
X96068870Y-70517859D01*
X95974622Y-70626628D01*
X95914834Y-70757545D01*
X95894353Y-70899996D01*
X95894353Y-70900003D01*
X95914834Y-71042454D01*
X95914834Y-71042455D01*
X95914835Y-71042457D01*
X95974623Y-71173373D01*
X95985561Y-71185996D01*
X96043123Y-71252427D01*
X96076823Y-71321803D01*
X96071320Y-71398735D01*
X96043123Y-71447573D01*
X95974622Y-71526628D01*
X95914834Y-71657545D01*
X95894353Y-71799996D01*
X95894353Y-71800003D01*
X95914834Y-71942454D01*
X95914834Y-71942455D01*
X95914835Y-71942457D01*
X95974623Y-72073373D01*
X96068872Y-72182143D01*
X96189947Y-72259953D01*
X96328039Y-72300500D01*
X96328041Y-72300500D01*
X96471959Y-72300500D01*
X96471961Y-72300500D01*
X96610053Y-72259953D01*
X96731128Y-72182143D01*
X96825377Y-72073373D01*
X96885165Y-71942457D01*
X96905647Y-71800000D01*
X96905647Y-71799996D01*
X96885165Y-71657545D01*
X96885165Y-71657543D01*
X96858884Y-71599996D01*
X107154867Y-71599996D01*
X107154867Y-71600003D01*
X107173302Y-71728223D01*
X107227118Y-71846064D01*
X107274951Y-71901266D01*
X107311951Y-71943967D01*
X107420931Y-72014004D01*
X107545228Y-72050500D01*
X107545231Y-72050500D01*
X107674769Y-72050500D01*
X107674772Y-72050500D01*
X107799069Y-72014004D01*
X107799072Y-72014002D01*
X107809293Y-72011001D01*
X107810058Y-72013606D01*
X107870083Y-72003501D01*
X107942353Y-72030441D01*
X107991471Y-72089906D01*
X107991483Y-72089931D01*
X108017118Y-72146064D01*
X108048378Y-72182140D01*
X108101951Y-72243967D01*
X108210931Y-72314004D01*
X108335228Y-72350500D01*
X108335231Y-72350500D01*
X108464769Y-72350500D01*
X108464772Y-72350500D01*
X108589069Y-72314004D01*
X108698049Y-72243967D01*
X108782882Y-72146063D01*
X108836697Y-72028226D01*
X108855133Y-71900000D01*
X108855133Y-71899996D01*
X108836697Y-71771776D01*
X108836697Y-71771774D01*
X108782882Y-71653937D01*
X108782881Y-71653936D01*
X108782881Y-71653935D01*
X108735048Y-71598733D01*
X108698049Y-71556033D01*
X108589069Y-71485996D01*
X108464772Y-71449500D01*
X108335228Y-71449500D01*
X108210931Y-71485996D01*
X108210928Y-71485997D01*
X108200707Y-71488999D01*
X108199943Y-71486397D01*
X108139878Y-71496494D01*
X108067615Y-71469536D01*
X108018516Y-71410067D01*
X107992882Y-71353937D01*
X107992881Y-71353935D01*
X107930673Y-71282143D01*
X107908049Y-71256033D01*
X107799069Y-71185996D01*
X107674772Y-71149500D01*
X107545228Y-71149500D01*
X107420931Y-71185996D01*
X107420928Y-71185997D01*
X107420927Y-71185998D01*
X107311955Y-71256030D01*
X107311952Y-71256031D01*
X107311951Y-71256033D01*
X107311949Y-71256034D01*
X107311948Y-71256036D01*
X107227118Y-71353935D01*
X107173302Y-71471776D01*
X107154867Y-71599996D01*
X96858884Y-71599996D01*
X96825377Y-71526627D01*
X96756876Y-71447572D01*
X96723177Y-71378198D01*
X96728679Y-71301266D01*
X96756875Y-71252428D01*
X96825377Y-71173373D01*
X96885165Y-71042457D01*
X96905647Y-70900000D01*
X96905647Y-70899996D01*
X96885165Y-70757545D01*
X96885165Y-70757543D01*
X96825377Y-70626627D01*
X96731128Y-70517857D01*
X96731127Y-70517856D01*
X96707454Y-70502643D01*
X96664978Y-70475345D01*
X96613099Y-70418276D01*
X96596704Y-70342911D01*
X96610422Y-70299996D01*
X107144867Y-70299996D01*
X107144867Y-70300003D01*
X107163302Y-70428223D01*
X107217118Y-70546064D01*
X107272282Y-70609727D01*
X107301951Y-70643967D01*
X107410931Y-70714004D01*
X107535228Y-70750500D01*
X107535231Y-70750500D01*
X107664769Y-70750500D01*
X107664772Y-70750500D01*
X107789069Y-70714004D01*
X107898049Y-70643967D01*
X107982882Y-70546063D01*
X108036697Y-70428226D01*
X108046925Y-70357090D01*
X108055133Y-70300003D01*
X108055133Y-70299996D01*
X108036697Y-70171776D01*
X108036697Y-70171774D01*
X107982882Y-70053937D01*
X107982881Y-70053936D01*
X107982881Y-70053935D01*
X107936216Y-70000080D01*
X107898049Y-69956033D01*
X107789069Y-69885996D01*
X107664772Y-69849500D01*
X107535228Y-69849500D01*
X107410931Y-69885996D01*
X107410928Y-69885997D01*
X107410927Y-69885998D01*
X107301955Y-69956030D01*
X107301952Y-69956031D01*
X107301951Y-69956033D01*
X107301949Y-69956034D01*
X107301948Y-69956036D01*
X107217118Y-70053935D01*
X107163302Y-70171776D01*
X107144867Y-70299996D01*
X96610422Y-70299996D01*
X96620188Y-70269445D01*
X96664978Y-70224654D01*
X96731128Y-70182143D01*
X96825377Y-70073373D01*
X96885165Y-69942457D01*
X96905647Y-69800000D01*
X96905647Y-69799996D01*
X96885165Y-69657545D01*
X96885165Y-69657543D01*
X96825377Y-69526627D01*
X96731128Y-69417857D01*
X96731127Y-69417856D01*
X96675652Y-69382205D01*
X96610053Y-69340047D01*
X96610050Y-69340046D01*
X96471967Y-69299501D01*
X96471962Y-69299500D01*
X96471961Y-69299500D01*
X96328039Y-69299500D01*
X96328037Y-69299500D01*
X96328033Y-69299501D01*
X96303410Y-69306731D01*
X96226304Y-69308565D01*
X96188494Y-69287918D01*
X96188591Y-69291986D01*
X96151628Y-69359680D01*
X96124347Y-69382205D01*
X96068874Y-69417855D01*
X96068870Y-69417859D01*
X95974622Y-69526628D01*
X95914834Y-69657545D01*
X95894353Y-69799996D01*
X94700500Y-69799996D01*
X94700500Y-68666572D01*
X95471074Y-68666572D01*
X95471074Y-68666579D01*
X95489509Y-68794799D01*
X95489509Y-68794800D01*
X95489510Y-68794802D01*
X95513597Y-68847546D01*
X95543325Y-68912640D01*
X95598489Y-68976303D01*
X95628158Y-69010543D01*
X95737138Y-69080580D01*
X95861435Y-69117076D01*
X95861438Y-69117076D01*
X95990976Y-69117076D01*
X95990979Y-69117076D01*
X96001812Y-69113894D01*
X96078918Y-69112059D01*
X96116731Y-69132706D01*
X96116635Y-69128636D01*
X96153599Y-69060943D01*
X96180874Y-69038422D01*
X96224256Y-69010543D01*
X96233395Y-68999996D01*
X100594353Y-68999996D01*
X100594353Y-69000003D01*
X100614834Y-69142454D01*
X100614834Y-69142455D01*
X100614835Y-69142457D01*
X100674623Y-69273373D01*
X100768872Y-69382143D01*
X100889947Y-69459953D01*
X101028039Y-69500500D01*
X101028041Y-69500500D01*
X101171959Y-69500500D01*
X101171961Y-69500500D01*
X101310053Y-69459953D01*
X101431128Y-69382143D01*
X101525377Y-69273373D01*
X101585165Y-69142457D01*
X101596885Y-69060943D01*
X101605647Y-69000003D01*
X101605647Y-68999996D01*
X101585165Y-68857545D01*
X101585165Y-68857543D01*
X101525377Y-68726627D01*
X101431128Y-68617857D01*
X101431127Y-68617856D01*
X101361906Y-68573371D01*
X101310053Y-68540047D01*
X101310050Y-68540046D01*
X101171967Y-68499501D01*
X101171962Y-68499500D01*
X101171961Y-68499500D01*
X101028039Y-68499500D01*
X101028037Y-68499500D01*
X101028032Y-68499501D01*
X100889949Y-68540046D01*
X100768872Y-68617856D01*
X100768870Y-68617859D01*
X100674622Y-68726628D01*
X100614834Y-68857545D01*
X100594353Y-68999996D01*
X96233395Y-68999996D01*
X96309089Y-68912639D01*
X96362904Y-68794802D01*
X96379102Y-68682143D01*
X96381340Y-68666579D01*
X96381340Y-68666572D01*
X96369049Y-68581092D01*
X96362904Y-68538350D01*
X96309089Y-68420513D01*
X96309088Y-68420512D01*
X96309088Y-68420511D01*
X96262423Y-68366656D01*
X96224256Y-68322609D01*
X96189069Y-68299996D01*
X102394353Y-68299996D01*
X102394353Y-68300003D01*
X102414834Y-68442454D01*
X102414834Y-68442455D01*
X102414835Y-68442457D01*
X102474623Y-68573373D01*
X102568872Y-68682143D01*
X102689947Y-68759953D01*
X102828039Y-68800500D01*
X102828041Y-68800500D01*
X102971959Y-68800500D01*
X102971961Y-68800500D01*
X103110053Y-68759953D01*
X103231128Y-68682143D01*
X103325377Y-68573373D01*
X103385165Y-68442457D01*
X103402396Y-68322612D01*
X103405647Y-68300003D01*
X103405647Y-68299996D01*
X103385165Y-68157545D01*
X103385165Y-68157543D01*
X103325377Y-68026627D01*
X103231128Y-67917857D01*
X103231127Y-67917856D01*
X103197465Y-67896223D01*
X103110053Y-67840047D01*
X103110050Y-67840046D01*
X102971967Y-67799501D01*
X102971962Y-67799500D01*
X102971961Y-67799500D01*
X102828039Y-67799500D01*
X102828037Y-67799500D01*
X102828032Y-67799501D01*
X102689949Y-67840046D01*
X102568872Y-67917856D01*
X102568870Y-67917859D01*
X102474622Y-68026628D01*
X102414834Y-68157545D01*
X102394353Y-68299996D01*
X96189069Y-68299996D01*
X96115276Y-68252572D01*
X95990979Y-68216076D01*
X95861435Y-68216076D01*
X95737138Y-68252572D01*
X95737135Y-68252573D01*
X95737134Y-68252574D01*
X95628162Y-68322606D01*
X95628159Y-68322607D01*
X95628158Y-68322609D01*
X95628156Y-68322610D01*
X95628155Y-68322612D01*
X95543325Y-68420511D01*
X95489509Y-68538352D01*
X95471074Y-68666572D01*
X94700500Y-68666572D01*
X94700500Y-66499996D01*
X95894353Y-66499996D01*
X95894353Y-66500003D01*
X95914834Y-66642454D01*
X95914834Y-66642455D01*
X95914835Y-66642457D01*
X95974623Y-66773373D01*
X96068872Y-66882143D01*
X96129564Y-66921147D01*
X96181443Y-66978216D01*
X96197837Y-67053582D01*
X96177772Y-67116350D01*
X96179050Y-67116934D01*
X96114834Y-67257545D01*
X96094353Y-67399996D01*
X96094353Y-67400003D01*
X96114834Y-67542454D01*
X96114834Y-67542455D01*
X96114835Y-67542457D01*
X96174623Y-67673373D01*
X96268872Y-67782143D01*
X96389947Y-67859953D01*
X96528039Y-67900500D01*
X96528041Y-67900500D01*
X96671959Y-67900500D01*
X96671961Y-67900500D01*
X96810053Y-67859953D01*
X96931128Y-67782143D01*
X97025377Y-67673373D01*
X97085165Y-67542457D01*
X97105647Y-67400000D01*
X97105647Y-67399996D01*
X97091269Y-67299996D01*
X105494353Y-67299996D01*
X105494353Y-67300003D01*
X105514834Y-67442454D01*
X105514834Y-67442455D01*
X105514835Y-67442457D01*
X105574623Y-67573373D01*
X105668872Y-67682143D01*
X105789947Y-67759953D01*
X105928039Y-67800500D01*
X105928041Y-67800500D01*
X106071959Y-67800500D01*
X106071961Y-67800500D01*
X106210053Y-67759953D01*
X106331128Y-67682143D01*
X106367647Y-67639997D01*
X106844353Y-67639997D01*
X106844353Y-67640004D01*
X106864834Y-67782455D01*
X106864834Y-67782456D01*
X106864835Y-67782458D01*
X106924623Y-67913374D01*
X107018872Y-68022144D01*
X107139947Y-68099954D01*
X107278039Y-68140501D01*
X107278041Y-68140501D01*
X107421959Y-68140501D01*
X107421961Y-68140501D01*
X107560053Y-68099954D01*
X107681128Y-68022144D01*
X107775377Y-67913374D01*
X107835165Y-67782458D01*
X107849588Y-67682143D01*
X107855647Y-67640004D01*
X107855647Y-67639997D01*
X107835165Y-67497546D01*
X107835165Y-67497544D01*
X107775377Y-67366628D01*
X107681128Y-67257858D01*
X107681127Y-67257857D01*
X107647465Y-67236224D01*
X107560053Y-67180048D01*
X107560050Y-67180047D01*
X107421967Y-67139502D01*
X107421962Y-67139501D01*
X107421961Y-67139501D01*
X107278039Y-67139501D01*
X107278037Y-67139501D01*
X107278032Y-67139502D01*
X107139949Y-67180047D01*
X107018872Y-67257857D01*
X107018870Y-67257860D01*
X106924622Y-67366629D01*
X106864834Y-67497546D01*
X106844353Y-67639997D01*
X106367647Y-67639997D01*
X106425377Y-67573373D01*
X106485165Y-67442457D01*
X106505647Y-67300000D01*
X106505647Y-67299996D01*
X106488401Y-67180048D01*
X106485165Y-67157543D01*
X106425377Y-67026627D01*
X106331128Y-66917857D01*
X106331127Y-66917856D01*
X106297465Y-66896223D01*
X106210053Y-66840047D01*
X106210050Y-66840046D01*
X106071967Y-66799501D01*
X106071962Y-66799500D01*
X106071961Y-66799500D01*
X105928039Y-66799500D01*
X105928037Y-66799500D01*
X105928032Y-66799501D01*
X105789949Y-66840046D01*
X105668872Y-66917856D01*
X105668870Y-66917859D01*
X105574622Y-67026628D01*
X105514834Y-67157545D01*
X105494353Y-67299996D01*
X97091269Y-67299996D01*
X97085165Y-67257543D01*
X97025377Y-67126627D01*
X96975749Y-67069353D01*
X96942051Y-66999980D01*
X96947553Y-66923048D01*
X96990784Y-66859175D01*
X97060160Y-66825475D01*
X97137092Y-66830977D01*
X97168911Y-66846434D01*
X97189947Y-66859953D01*
X97328039Y-66900500D01*
X97328041Y-66900500D01*
X97471959Y-66900500D01*
X97471961Y-66900500D01*
X97610053Y-66859953D01*
X97731128Y-66782143D01*
X97825377Y-66673373D01*
X97885165Y-66542457D01*
X97901589Y-66428223D01*
X97905647Y-66400003D01*
X97905647Y-66399996D01*
X97887260Y-66272114D01*
X97885165Y-66257543D01*
X97825377Y-66126627D01*
X97731128Y-66017857D01*
X97731127Y-66017856D01*
X97697216Y-65996063D01*
X97610053Y-65940047D01*
X97610050Y-65940046D01*
X97471967Y-65899501D01*
X97471962Y-65899500D01*
X97471961Y-65899500D01*
X97328039Y-65899500D01*
X97328037Y-65899500D01*
X97328032Y-65899501D01*
X97189949Y-65940046D01*
X97068872Y-66017856D01*
X97068870Y-66017859D01*
X97023933Y-66069720D01*
X96982221Y-66117859D01*
X96969282Y-66132791D01*
X96905409Y-66176022D01*
X96828477Y-66181524D01*
X96759101Y-66147824D01*
X96744068Y-66132791D01*
X96738727Y-66126627D01*
X96731128Y-66117857D01*
X96731127Y-66117856D01*
X96679860Y-66084909D01*
X96610053Y-66040047D01*
X96592575Y-66034915D01*
X96471967Y-65999501D01*
X96471962Y-65999500D01*
X96471961Y-65999500D01*
X96328039Y-65999500D01*
X96328037Y-65999500D01*
X96328032Y-65999501D01*
X96189949Y-66040046D01*
X96189947Y-66040046D01*
X96189947Y-66040047D01*
X96168334Y-66053937D01*
X96068872Y-66117856D01*
X96068870Y-66117859D01*
X95974622Y-66226628D01*
X95914834Y-66357545D01*
X95894353Y-66499996D01*
X94700500Y-66499996D01*
X94700500Y-65621345D01*
X98002359Y-65621345D01*
X98002359Y-65621352D01*
X98022840Y-65763803D01*
X98022840Y-65763804D01*
X98022841Y-65763806D01*
X98082629Y-65894722D01*
X98176878Y-66003492D01*
X98297953Y-66081302D01*
X98436045Y-66121849D01*
X98436047Y-66121849D01*
X98579965Y-66121849D01*
X98579967Y-66121849D01*
X98718059Y-66081302D01*
X98839134Y-66003492D01*
X98928813Y-65899996D01*
X100744867Y-65899996D01*
X100744867Y-65900003D01*
X100763302Y-66028223D01*
X100763302Y-66028224D01*
X100763303Y-66028226D01*
X100768701Y-66040046D01*
X100817118Y-66146064D01*
X100862069Y-66197940D01*
X100901951Y-66243967D01*
X101010931Y-66314004D01*
X101135228Y-66350500D01*
X101135231Y-66350500D01*
X101264769Y-66350500D01*
X101264772Y-66350500D01*
X101389069Y-66314004D01*
X101498049Y-66243967D01*
X101582882Y-66146063D01*
X101582881Y-66146063D01*
X101589861Y-66138009D01*
X101592396Y-66140206D01*
X101620028Y-66115076D01*
X101790924Y-66115076D01*
X101836343Y-66165016D01*
X101852754Y-66240378D01*
X101851405Y-66254524D01*
X101844867Y-66300001D01*
X101844867Y-66300003D01*
X101863302Y-66428223D01*
X101863302Y-66428224D01*
X101863303Y-66428226D01*
X101887390Y-66480970D01*
X101917118Y-66546064D01*
X101972282Y-66609727D01*
X102001951Y-66643967D01*
X102110931Y-66714004D01*
X102235228Y-66750500D01*
X102235231Y-66750500D01*
X102364769Y-66750500D01*
X102364772Y-66750500D01*
X102489069Y-66714004D01*
X102598049Y-66643967D01*
X102682882Y-66546063D01*
X102736697Y-66428226D01*
X102736697Y-66428225D01*
X102736699Y-66428221D01*
X102739700Y-66418001D01*
X102742694Y-66418880D01*
X102766037Y-66364347D01*
X102827774Y-66318117D01*
X102904355Y-66308948D01*
X102975261Y-66339299D01*
X102995780Y-66358861D01*
X103069524Y-66443967D01*
X103178504Y-66514004D01*
X103302801Y-66550500D01*
X103302804Y-66550500D01*
X103432342Y-66550500D01*
X103432345Y-66550500D01*
X103556642Y-66514004D01*
X103665622Y-66443967D01*
X103750455Y-66346063D01*
X103804270Y-66228226D01*
X103808624Y-66197940D01*
X104244867Y-66197940D01*
X104244867Y-66197947D01*
X104263302Y-66326167D01*
X104263302Y-66326168D01*
X104263303Y-66326170D01*
X104274414Y-66350499D01*
X104317118Y-66444008D01*
X104365632Y-66499996D01*
X104401951Y-66541911D01*
X104510931Y-66611948D01*
X104635228Y-66648444D01*
X104635231Y-66648444D01*
X104764769Y-66648444D01*
X104764772Y-66648444D01*
X104889069Y-66611948D01*
X104998049Y-66541911D01*
X105082882Y-66444007D01*
X105136697Y-66326170D01*
X105151009Y-66226627D01*
X105155133Y-66197947D01*
X105155133Y-66197940D01*
X105138448Y-66081900D01*
X105136697Y-66069718D01*
X105082882Y-65951881D01*
X105082881Y-65951880D01*
X105082881Y-65951879D01*
X105062312Y-65928141D01*
X106390475Y-65928141D01*
X106390475Y-65928148D01*
X106408910Y-66056368D01*
X106408910Y-66056369D01*
X106408911Y-66056371D01*
X106420297Y-66081302D01*
X106462726Y-66174209D01*
X106509532Y-66228226D01*
X106547559Y-66272112D01*
X106656539Y-66342149D01*
X106780836Y-66378645D01*
X106780839Y-66378645D01*
X106910377Y-66378645D01*
X106910380Y-66378645D01*
X107034677Y-66342149D01*
X107143657Y-66272112D01*
X107228490Y-66174208D01*
X107282305Y-66056371D01*
X107296731Y-65956036D01*
X107300741Y-65928148D01*
X107300741Y-65928141D01*
X107282305Y-65799921D01*
X107282305Y-65799919D01*
X107259506Y-65749996D01*
X108094867Y-65749996D01*
X108094867Y-65750003D01*
X108113302Y-65878223D01*
X108113302Y-65878224D01*
X108113303Y-65878226D01*
X108136099Y-65928141D01*
X108167118Y-65996064D01*
X108205229Y-66040046D01*
X108251951Y-66093967D01*
X108360931Y-66164004D01*
X108485228Y-66200500D01*
X108485231Y-66200500D01*
X108614769Y-66200500D01*
X108614772Y-66200500D01*
X108739069Y-66164004D01*
X108848049Y-66093967D01*
X108932882Y-65996063D01*
X108986697Y-65878226D01*
X108995915Y-65814113D01*
X109005133Y-65750003D01*
X109005133Y-65749996D01*
X108986697Y-65621776D01*
X108986697Y-65621774D01*
X108932882Y-65503937D01*
X108932881Y-65503936D01*
X108932881Y-65503935D01*
X108885713Y-65449500D01*
X108848049Y-65406033D01*
X108739069Y-65335996D01*
X108614772Y-65299500D01*
X108485228Y-65299500D01*
X108360931Y-65335996D01*
X108360928Y-65335997D01*
X108360927Y-65335998D01*
X108251955Y-65406030D01*
X108251952Y-65406031D01*
X108251951Y-65406033D01*
X108251949Y-65406034D01*
X108251948Y-65406036D01*
X108167118Y-65503935D01*
X108113302Y-65621776D01*
X108094867Y-65749996D01*
X107259506Y-65749996D01*
X107228490Y-65682082D01*
X107228489Y-65682081D01*
X107228489Y-65682080D01*
X107175862Y-65621345D01*
X107143657Y-65584178D01*
X107034677Y-65514141D01*
X106910380Y-65477645D01*
X106780836Y-65477645D01*
X106656539Y-65514141D01*
X106656536Y-65514142D01*
X106656535Y-65514143D01*
X106547563Y-65584175D01*
X106547560Y-65584176D01*
X106547559Y-65584178D01*
X106547557Y-65584179D01*
X106547556Y-65584181D01*
X106462726Y-65682080D01*
X106408910Y-65799921D01*
X106390475Y-65928141D01*
X105062312Y-65928141D01*
X105025793Y-65885996D01*
X104998049Y-65853977D01*
X104889069Y-65783940D01*
X104764772Y-65747444D01*
X104635228Y-65747444D01*
X104510931Y-65783940D01*
X104510928Y-65783941D01*
X104510927Y-65783942D01*
X104401955Y-65853974D01*
X104401952Y-65853975D01*
X104401951Y-65853977D01*
X104401949Y-65853978D01*
X104401948Y-65853980D01*
X104317118Y-65951879D01*
X104263302Y-66069720D01*
X104244867Y-66197940D01*
X103808624Y-66197940D01*
X103817241Y-66138009D01*
X103822706Y-66100003D01*
X103822706Y-66099996D01*
X103808830Y-66003489D01*
X103804270Y-65971774D01*
X103750455Y-65853937D01*
X103750454Y-65853936D01*
X103750454Y-65853935D01*
X103672357Y-65763806D01*
X103665622Y-65756033D01*
X103556642Y-65685996D01*
X103432345Y-65649500D01*
X103302801Y-65649500D01*
X103178504Y-65685996D01*
X103178501Y-65685997D01*
X103178500Y-65685998D01*
X103069528Y-65756030D01*
X103069525Y-65756031D01*
X103069524Y-65756033D01*
X103069522Y-65756034D01*
X103069521Y-65756036D01*
X102984691Y-65853935D01*
X102930873Y-65971778D01*
X102927873Y-65981999D01*
X102924883Y-65981121D01*
X102901506Y-66035689D01*
X102839754Y-66081900D01*
X102763170Y-66091044D01*
X102692274Y-66060671D01*
X102671792Y-66041138D01*
X102639169Y-66003489D01*
X102598049Y-65956033D01*
X102489069Y-65885996D01*
X102364772Y-65849500D01*
X102235228Y-65849500D01*
X102110931Y-65885996D01*
X102110928Y-65885997D01*
X102110927Y-65885998D01*
X102001955Y-65956030D01*
X102001952Y-65956031D01*
X102001951Y-65956033D01*
X102001949Y-65956034D01*
X102001948Y-65956036D01*
X101910139Y-66061991D01*
X101907610Y-66059799D01*
X101864315Y-66099135D01*
X101790924Y-66115076D01*
X101620028Y-66115076D01*
X101635616Y-66100899D01*
X101709042Y-66084909D01*
X101663621Y-66034915D01*
X101647249Y-65959544D01*
X101648595Y-65945472D01*
X101655133Y-65900001D01*
X101655133Y-65899996D01*
X101636697Y-65771776D01*
X101636697Y-65771774D01*
X101582882Y-65653937D01*
X101582881Y-65653936D01*
X101582881Y-65653935D01*
X101515948Y-65576690D01*
X101498049Y-65556033D01*
X101389069Y-65485996D01*
X101264772Y-65449500D01*
X101135228Y-65449500D01*
X101010931Y-65485996D01*
X101010928Y-65485997D01*
X101010927Y-65485998D01*
X100901955Y-65556030D01*
X100901952Y-65556031D01*
X100901951Y-65556033D01*
X100901949Y-65556034D01*
X100901948Y-65556036D01*
X100817118Y-65653935D01*
X100763302Y-65771776D01*
X100744867Y-65899996D01*
X98928813Y-65899996D01*
X98933383Y-65894722D01*
X98993171Y-65763806D01*
X99013653Y-65621349D01*
X99013653Y-65621345D01*
X98996772Y-65503937D01*
X98993171Y-65478892D01*
X98933383Y-65347976D01*
X98839134Y-65239206D01*
X98839133Y-65239205D01*
X98805471Y-65217572D01*
X98718059Y-65161396D01*
X98718056Y-65161395D01*
X98579973Y-65120850D01*
X98579968Y-65120849D01*
X98579967Y-65120849D01*
X98436045Y-65120849D01*
X98436043Y-65120849D01*
X98436038Y-65120850D01*
X98297955Y-65161395D01*
X98176878Y-65239205D01*
X98176876Y-65239208D01*
X98082628Y-65347977D01*
X98022840Y-65478894D01*
X98002359Y-65621345D01*
X94700500Y-65621345D01*
X94700500Y-64349500D01*
X94720462Y-64275000D01*
X94775000Y-64220462D01*
X94849500Y-64200500D01*
X110150500Y-64200500D01*
X110225000Y-64220462D01*
G37*
%TD.AperFunction*%
%TD*%
D15*
X96600000Y-67400000D03*
X109056929Y-80998452D03*
X104900000Y-77200000D03*
X102900000Y-68300000D03*
X98990000Y-86650000D03*
X101100000Y-69000000D03*
X95400000Y-86800000D03*
X105900000Y-86800000D03*
X97400000Y-65500000D03*
X108800000Y-67600000D03*
X99114318Y-81106682D03*
X109650000Y-85450000D03*
X95400000Y-64800000D03*
X99900000Y-65500000D03*
X100900000Y-66700000D03*
X99400000Y-71800000D03*
X106600000Y-69000000D03*
X98100000Y-77800000D03*
X102600000Y-77200000D03*
X106600000Y-77900000D03*
X109500000Y-64800000D03*
X107000000Y-80600000D03*
X107600000Y-65500000D03*
X104100000Y-70000000D03*
X96200000Y-87100000D03*
X107210000Y-83300000D03*
X101500000Y-73200000D03*
X102500000Y-65500000D03*
X99400000Y-73500000D03*
X105900000Y-65500000D03*
X104400000Y-67200000D03*
X108010000Y-76730000D03*
X106100000Y-86000000D03*
X96200000Y-79700000D03*
X99400000Y-70100000D03*
X104500000Y-79800000D03*
X100990000Y-79900000D03*
X108400000Y-72800000D03*
X104200000Y-65500000D03*
X106600000Y-72500000D03*
X108400000Y-74490000D03*
X98325000Y-85375000D03*
X97900000Y-80000000D03*
X100100000Y-75000000D03*
X107610000Y-71600000D03*
X105200000Y-81300000D03*
X108400000Y-71900000D03*
X107600000Y-70300000D03*
X101100000Y-75000000D03*
X99800000Y-77100000D03*
X97300000Y-82400000D03*
X105800000Y-78000000D03*
X106800000Y-75600000D03*
X101067675Y-77200000D03*
X104500000Y-76500000D03*
X98500000Y-81700000D03*
X96200000Y-77800000D03*
X106750000Y-78800000D03*
X109200000Y-83900000D03*
X107180000Y-84300000D03*
X109100000Y-82880000D03*
X109750000Y-65900000D03*
X95926207Y-68666576D03*
X95394479Y-80649999D03*
X96200000Y-76900000D03*
X96300000Y-76050000D03*
X96400000Y-73500000D03*
X107350000Y-67640001D03*
X106000000Y-67300000D03*
X96400000Y-71800000D03*
X96400000Y-70900000D03*
X96400000Y-69800000D03*
X101800000Y-76800000D03*
X95493504Y-84828936D03*
X101403345Y-79213976D03*
X96267377Y-84132624D03*
X96400000Y-66500000D03*
X97400000Y-66400000D03*
X98508006Y-65621349D03*
X101200000Y-65900000D03*
X102300000Y-66300000D03*
X103367573Y-66100000D03*
X108550000Y-65750000D03*
X106845608Y-65928145D03*
X108900000Y-76200000D03*
X104700000Y-66197944D03*
X109500000Y-77750000D03*
X108700000Y-77200000D03*
D16*
X100500000Y-82350000D03*
X104500000Y-82350000D03*
X100500000Y-86210000D03*
X104500000Y-86210000D03*
D17*
X105750000Y-85000000D03*
X104800000Y-85000000D03*
X103850000Y-85000000D03*
X102950000Y-85000000D03*
X102050000Y-85000000D03*
X100200000Y-85000000D03*
X99250000Y-85000000D03*
X99250000Y-83560000D03*
X100200000Y-83560000D03*
X101150000Y-83560000D03*
X102050000Y-83560000D03*
X102950000Y-83560000D03*
X104800000Y-83560000D03*
X105750000Y-83560000D03*
D15*
X103800000Y-73600000D03*
X103800000Y-74600000D03*
X104700000Y-73600000D03*
X104700000Y-74600000D03*
X105600000Y-73600000D03*
X105600000Y-74600000D03*
M02*
