%TF.GenerationSoftware,KiCad,Pcbnew,8.0.6*%
%TF.CreationDate,2024-10-29T18:21:18+01:00*%
%TF.ProjectId,openWifiDecoder,6f70656e-5769-4666-9944-65636f646572,rev?*%
%TF.SameCoordinates,Original*%
%TF.FileFunction,Copper,L4,Bot*%
%TF.FilePolarity,Positive*%
%FSLAX46Y46*%
G04 Gerber Fmt 4.6, Leading zero omitted, Abs format (unit mm)*
G04 Created by KiCad (PCBNEW 8.0.6) date 2024-10-29 18:21:18*
%MOMM*%
%LPD*%
G01*
G04 APERTURE LIST*
G04 Aperture macros list*
%AMRoundRect*
0 Rectangle with rounded corners*
0 $1 Rounding radius*
0 $2 $3 $4 $5 $6 $7 $8 $9 X,Y pos of 4 corners*
0 Add a 4 corners polygon primitive as box body*
4,1,4,$2,$3,$4,$5,$6,$7,$8,$9,$2,$3,0*
0 Add four circle primitives for the rounded corners*
1,1,$1+$1,$2,$3*
1,1,$1+$1,$4,$5*
1,1,$1+$1,$6,$7*
1,1,$1+$1,$8,$9*
0 Add four rect primitives between the rounded corners*
20,1,$1+$1,$2,$3,$4,$5,0*
20,1,$1+$1,$4,$5,$6,$7,0*
20,1,$1+$1,$6,$7,$8,$9,0*
20,1,$1+$1,$8,$9,$2,$3,0*%
G04 Aperture macros list end*
%TA.AperFunction,ComponentPad*%
%ADD10O,2.100000X1.200000*%
%TD*%
%TA.AperFunction,ComponentPad*%
%ADD11C,0.700000*%
%TD*%
%TA.AperFunction,SMDPad,CuDef*%
%ADD12RoundRect,0.140000X-0.140000X-0.170000X0.140000X-0.170000X0.140000X0.170000X-0.140000X0.170000X0*%
%TD*%
%TA.AperFunction,SMDPad,CuDef*%
%ADD13RoundRect,0.100000X-0.400000X0.400000X-0.400000X-0.400000X0.400000X-0.400000X0.400000X0.400000X0*%
%TD*%
%TA.AperFunction,SMDPad,CuDef*%
%ADD14RoundRect,0.100000X0.400000X0.400000X-0.400000X0.400000X-0.400000X-0.400000X0.400000X-0.400000X0*%
%TD*%
%TA.AperFunction,SMDPad,CuDef*%
%ADD15RoundRect,0.135000X-0.135000X-0.185000X0.135000X-0.185000X0.135000X0.185000X-0.135000X0.185000X0*%
%TD*%
%TA.AperFunction,SMDPad,CuDef*%
%ADD16RoundRect,0.140000X0.170000X-0.140000X0.170000X0.140000X-0.170000X0.140000X-0.170000X-0.140000X0*%
%TD*%
%TA.AperFunction,SMDPad,CuDef*%
%ADD17RoundRect,0.135000X-0.185000X0.135000X-0.185000X-0.135000X0.185000X-0.135000X0.185000X0.135000X0*%
%TD*%
%TA.AperFunction,SMDPad,CuDef*%
%ADD18RoundRect,0.050000X0.225000X0.050000X-0.225000X0.050000X-0.225000X-0.050000X0.225000X-0.050000X0*%
%TD*%
%TA.AperFunction,SMDPad,CuDef*%
%ADD19RoundRect,0.050000X0.050000X-0.225000X0.050000X0.225000X-0.050000X0.225000X-0.050000X-0.225000X0*%
%TD*%
%TA.AperFunction,SMDPad,CuDef*%
%ADD20RoundRect,0.150000X-0.150000X0.512500X-0.150000X-0.512500X0.150000X-0.512500X0.150000X0.512500X0*%
%TD*%
%TA.AperFunction,SMDPad,CuDef*%
%ADD21RoundRect,0.250000X-0.250000X-0.475000X0.250000X-0.475000X0.250000X0.475000X-0.250000X0.475000X0*%
%TD*%
%TA.AperFunction,SMDPad,CuDef*%
%ADD22RoundRect,0.135000X0.135000X0.185000X-0.135000X0.185000X-0.135000X-0.185000X0.135000X-0.185000X0*%
%TD*%
%TA.AperFunction,SMDPad,CuDef*%
%ADD23RoundRect,0.140000X0.140000X0.170000X-0.140000X0.170000X-0.140000X-0.170000X0.140000X-0.170000X0*%
%TD*%
%TA.AperFunction,SMDPad,CuDef*%
%ADD24RoundRect,0.140000X-0.170000X0.140000X-0.170000X-0.140000X0.170000X-0.140000X0.170000X0.140000X0*%
%TD*%
%TA.AperFunction,SMDPad,CuDef*%
%ADD25R,0.200000X0.200000*%
%TD*%
%TA.AperFunction,SMDPad,CuDef*%
%ADD26O,0.850000X0.200000*%
%TD*%
%TA.AperFunction,SMDPad,CuDef*%
%ADD27R,0.400000X0.575000*%
%TD*%
%TA.AperFunction,SMDPad,CuDef*%
%ADD28R,0.400000X0.675000*%
%TD*%
%TA.AperFunction,ComponentPad*%
%ADD29C,0.600000*%
%TD*%
%TA.AperFunction,SMDPad,CuDef*%
%ADD30R,1.300000X0.975000*%
%TD*%
%TA.AperFunction,SMDPad,CuDef*%
%ADD31R,2.600000X1.950000*%
%TD*%
%TA.AperFunction,SMDPad,CuDef*%
%ADD32RoundRect,0.135000X0.185000X-0.135000X0.185000X0.135000X-0.185000X0.135000X-0.185000X-0.135000X0*%
%TD*%
%TA.AperFunction,SMDPad,CuDef*%
%ADD33RoundRect,0.150000X0.512500X0.150000X-0.512500X0.150000X-0.512500X-0.150000X0.512500X-0.150000X0*%
%TD*%
%TA.AperFunction,SMDPad,CuDef*%
%ADD34R,0.475000X0.300000*%
%TD*%
%TA.AperFunction,SMDPad,CuDef*%
%ADD35RoundRect,0.100000X-0.400000X-0.400000X0.400000X-0.400000X0.400000X0.400000X-0.400000X0.400000X0*%
%TD*%
%TA.AperFunction,SMDPad,CuDef*%
%ADD36RoundRect,0.150000X0.150000X-0.512500X0.150000X0.512500X-0.150000X0.512500X-0.150000X-0.512500X0*%
%TD*%
%TA.AperFunction,ViaPad*%
%ADD37C,0.600000*%
%TD*%
%TA.AperFunction,ViaPad*%
%ADD38C,0.500000*%
%TD*%
%TA.AperFunction,Conductor*%
%ADD39C,0.200000*%
%TD*%
%TA.AperFunction,Conductor*%
%ADD40C,0.500000*%
%TD*%
%ADD41C,0.300000*%
%ADD42O,1.610000X0.610000*%
%ADD43C,0.350000*%
G04 APERTURE END LIST*
D10*
%TO.P,USB1,1,1*%
%TO.N,GND*%
X100500000Y-82350000D03*
%TO.P,USB1,2,2*%
X104500000Y-82350000D03*
%TO.P,USB1,3,3*%
X100500000Y-86210000D03*
%TO.P,USB1,4,4*%
X104500000Y-86210000D03*
D11*
%TO.P,USB1,A1,GND*%
X105750000Y-85000000D03*
%TO.P,USB1,A4,VBUS*%
%TO.N,+5V*%
X104800000Y-85000000D03*
%TO.P,USB1,A5,CC1*%
%TO.N,Net-(USB1-CC1)*%
X103850000Y-85000000D03*
%TO.P,USB1,A6,D+*%
%TO.N,D+*%
X102950000Y-85000000D03*
%TO.P,USB1,A7,D-*%
%TO.N,D-*%
X102050000Y-85000000D03*
%TO.P,USB1,A9,VBUS*%
%TO.N,+5V*%
X100200000Y-85000000D03*
%TO.P,USB1,A12,GND*%
%TO.N,GND*%
X99250000Y-85000000D03*
%TO.P,USB1,B1,GND*%
X99250000Y-83560000D03*
%TO.P,USB1,B4,VBUS*%
%TO.N,+5V*%
X100200000Y-83560000D03*
%TO.P,USB1,B5,CC2*%
%TO.N,Net-(USB1-CC2)*%
X101150000Y-83560000D03*
%TO.P,USB1,B6,D+*%
%TO.N,D+*%
X102050000Y-83560000D03*
%TO.P,USB1,B7,D-*%
%TO.N,D-*%
X102950000Y-83560000D03*
%TO.P,USB1,B9,VBUS*%
%TO.N,+5V*%
X104800000Y-83560000D03*
%TO.P,USB1,B12,GND*%
%TO.N,GND*%
X105750000Y-83560000D03*
%TD*%
D12*
%TO.P,C13,1*%
%TO.N,GND*%
X107220000Y-78000000D03*
%TO.P,C13,2*%
%TO.N,+3V3*%
X108180000Y-78000000D03*
%TD*%
D13*
%TO.P,J1,1,Pin_1*%
%TO.N,Net-(IC1-OUT2)*%
X110000000Y-68800000D03*
%TO.P,J1,2,Pin_2*%
%TO.N,Net-(IC1-OUT1)*%
X110000000Y-70800000D03*
%TD*%
D14*
%TO.P,IO15,1,Pin_1*%
%TO.N,Net-(IO15-Pin_1)*%
X108500000Y-64500000D03*
%TD*%
%TO.P,IO18,1,Pin_1*%
%TO.N,Net-(IO18-Pin_1)*%
X110000000Y-78800000D03*
%TD*%
D15*
%TO.P,R8,1*%
%TO.N,Net-(U6-+)*%
X107490000Y-85300000D03*
%TO.P,R8,2*%
%TO.N,DIG_HALL*%
X108510000Y-85300000D03*
%TD*%
D16*
%TO.P,C14,1*%
%TO.N,GND*%
X106600000Y-86280000D03*
%TO.P,C14,2*%
%TO.N,Net-(U6-+)*%
X106600000Y-85320000D03*
%TD*%
D17*
%TO.P,R5,1*%
%TO.N,+BATT*%
X108400000Y-74490000D03*
%TO.P,R5,2*%
%TO.N,Net-(U7-BIN)*%
X108400000Y-75510000D03*
%TD*%
D12*
%TO.P,C11,1*%
%TO.N,Net-(U4-REGOUT)*%
X97120000Y-86300000D03*
%TO.P,C11,2*%
%TO.N,GND*%
X98080000Y-86300000D03*
%TD*%
D14*
%TO.P,IO5,1,Pin_1*%
%TO.N,Net-(IO5-Pin_1)*%
X95000000Y-71700000D03*
%TD*%
D18*
%TO.P,U4,1,NC*%
%TO.N,unconnected-(U4-NC-Pad1)*%
X98200000Y-82300000D03*
%TO.P,U4,2,NC*%
%TO.N,unconnected-(U4-NC-Pad2)*%
X98200000Y-82700000D03*
%TO.P,U4,3,NC*%
%TO.N,unconnected-(U4-NC-Pad3)*%
X98200000Y-83100000D03*
%TO.P,U4,4,NC*%
%TO.N,unconnected-(U4-NC-Pad4)*%
X98200000Y-83500000D03*
%TO.P,U4,5,NC*%
%TO.N,unconnected-(U4-NC-Pad5)*%
X98200000Y-83900000D03*
%TO.P,U4,6,NC*%
%TO.N,unconnected-(U4-NC-Pad6)*%
X98200000Y-84300000D03*
D19*
%TO.P,U4,7,AUX_CL*%
%TO.N,unconnected-(U4-AUX_CL-Pad7)*%
X97700000Y-84800000D03*
%TO.P,U4,8,VDDIO*%
%TO.N,+1V8*%
X97300000Y-84800000D03*
%TO.P,U4,9,SDO/AD0*%
%TO.N,GND*%
X96900000Y-84800000D03*
%TO.P,U4,10,REGOUT*%
%TO.N,Net-(U4-REGOUT)*%
X96500000Y-84800000D03*
%TO.P,U4,11,FSYNC*%
%TO.N,FSYNC*%
X96100000Y-84800000D03*
%TO.P,U4,12,INT1*%
%TO.N,IMU_INT*%
X95700000Y-84800000D03*
D18*
%TO.P,U4,13,VDD*%
%TO.N,+3V3*%
X95200000Y-84300000D03*
%TO.P,U4,14,NC*%
%TO.N,unconnected-(U4-NC-Pad14)*%
X95200000Y-83900000D03*
%TO.P,U4,15,NC*%
%TO.N,unconnected-(U4-NC-Pad15)*%
X95200000Y-83500000D03*
%TO.P,U4,16,NC*%
%TO.N,unconnected-(U4-NC-Pad16)*%
X95200000Y-83100000D03*
%TO.P,U4,17,NC*%
%TO.N,unconnected-(U4-NC-Pad17)*%
X95200000Y-82700000D03*
%TO.P,U4,18,GND*%
%TO.N,GND*%
X95200000Y-82300000D03*
D19*
%TO.P,U4,19,RESV*%
%TO.N,unconnected-(U4-RESV-Pad19)*%
X95700000Y-81800000D03*
%TO.P,U4,20,GND*%
%TO.N,GND*%
X96100000Y-81800000D03*
%TO.P,U4,21,AUX_DA*%
%TO.N,unconnected-(U4-AUX_DA-Pad21)*%
X96500000Y-81800000D03*
%TO.P,U4,22,~{CS}*%
%TO.N,+1V8*%
X96900000Y-81800000D03*
%TO.P,U4,23,SCL/SCLK*%
%TO.N,SCL*%
X97300000Y-81800000D03*
%TO.P,U4,24,SDA/SDI*%
%TO.N,SDA*%
X97700000Y-81800000D03*
%TD*%
D16*
%TO.P,C10,1*%
%TO.N,Net-(BAT1-Pin_2)*%
X108800000Y-73580000D03*
%TO.P,C10,2*%
%TO.N,GND*%
X108800000Y-72620000D03*
%TD*%
D20*
%TO.P,U1,1,VIN*%
%TO.N,+BATT*%
X97150000Y-76962500D03*
%TO.P,U1,2,GND*%
%TO.N,GND*%
X98100000Y-76962500D03*
%TO.P,U1,3,EN*%
%TO.N,+BATT*%
X99050000Y-76962500D03*
%TO.P,U1,4,NC*%
%TO.N,unconnected-(U1-NC-Pad4)*%
X99050000Y-79237500D03*
%TO.P,U1,5,VOUT*%
%TO.N,+1V8*%
X97150000Y-79237500D03*
%TD*%
D12*
%TO.P,C4,1*%
%TO.N,+1V8*%
X98420000Y-80700000D03*
%TO.P,C4,2*%
%TO.N,GND*%
X99380000Y-80700000D03*
%TD*%
D14*
%TO.P,IO13,1,Pin_1*%
%TO.N,Net-(IO13-Pin_1)*%
X104500000Y-64500000D03*
%TD*%
%TO.P,RX0,1,Pin_1*%
%TO.N,RX*%
X107300000Y-67100000D03*
%TD*%
%TO.P,IO19,1,Pin_1*%
%TO.N,Net-(IO19-Pin_1)*%
X110000000Y-80800000D03*
%TD*%
D17*
%TO.P,R9,1*%
%TO.N,Net-(USB1-CC1)*%
X102500000Y-85990000D03*
%TO.P,R9,2*%
%TO.N,GND*%
X102500000Y-87010000D03*
%TD*%
D14*
%TO.P,IO9,1,Pin_1*%
%TO.N,Net-(IO9-Pin_1)*%
X96500000Y-64500000D03*
%TD*%
%TO.P,IO1,1,Pin_1*%
%TO.N,Net-(IO1-Pin_1)*%
X95000000Y-79700000D03*
%TD*%
D15*
%TO.P,R13,1*%
%TO.N,COMP_DAC*%
X107180000Y-84300000D03*
%TO.P,R13,2*%
%TO.N,Net-(U6--)*%
X108200000Y-84300000D03*
%TD*%
D21*
%TO.P,C2,1*%
%TO.N,+3V3*%
X98350000Y-66800000D03*
%TO.P,C2,2*%
%TO.N,GND*%
X100250000Y-66800000D03*
%TD*%
D22*
%TO.P,R4,1*%
%TO.N,Net-(BAT1-Pin_2)*%
X107610000Y-71600000D03*
%TO.P,R4,2*%
%TO.N,+BATT*%
X106590000Y-71600000D03*
%TD*%
D12*
%TO.P,C5,1*%
%TO.N,+3V3*%
X103420000Y-67700000D03*
%TO.P,C5,2*%
%TO.N,GND*%
X104380000Y-67700000D03*
%TD*%
D20*
%TO.P,U5,1,~{CHRG}*%
%TO.N,unconnected-(U5-~{CHRG}-Pad1)*%
X101750000Y-78062500D03*
%TO.P,U5,2,GND*%
%TO.N,GND*%
X102700000Y-78062500D03*
%TO.P,U5,3,BAT*%
%TO.N,+BATT*%
X103650000Y-78062500D03*
%TO.P,U5,4,V_{CC}*%
%TO.N,+5V*%
X103650000Y-80337500D03*
%TO.P,U5,5,PROG*%
%TO.N,Net-(U5-PROG)*%
X101750000Y-80337500D03*
%TD*%
D23*
%TO.P,C8,1*%
%TO.N,GND*%
X96080000Y-86300000D03*
%TO.P,C8,2*%
%TO.N,+3V3*%
X95120000Y-86300000D03*
%TD*%
D14*
%TO.P,IO12,1,Pin_1*%
%TO.N,Net-(IO12-Pin_1)*%
X102500000Y-64500000D03*
%TD*%
D23*
%TO.P,C7,1*%
%TO.N,+1V8*%
X97480000Y-80700000D03*
%TO.P,C7,2*%
%TO.N,GND*%
X96520000Y-80700000D03*
%TD*%
%TO.P,C15,1*%
%TO.N,Net-(U6--)*%
X108170000Y-83300000D03*
%TO.P,C15,2*%
%TO.N,GND*%
X107210000Y-83300000D03*
%TD*%
D24*
%TO.P,C12,1*%
%TO.N,GND*%
X105000000Y-79820000D03*
%TO.P,C12,2*%
%TO.N,+5V*%
X105000000Y-80780000D03*
%TD*%
D14*
%TO.P,IO16,1,Pin_1*%
%TO.N,Net-(IO16-Pin_1)*%
X110000000Y-66800000D03*
%TD*%
D13*
%TO.P,IO7,1,Pin_1*%
%TO.N,Net-(IO7-Pin_1)*%
X95000000Y-67700000D03*
%TD*%
D14*
%TO.P,IO14,1,Pin_1*%
%TO.N,Net-(IO14-Pin_1)*%
X106500000Y-64500000D03*
%TD*%
D13*
%TO.P,IO6,1,Pin_1*%
%TO.N,Net-(IO6-Pin_1)*%
X95000000Y-69700000D03*
%TD*%
D25*
%TO.P,U7,1,SDA*%
%TO.N,SDA*%
X102400000Y-75100000D03*
D26*
X102725000Y-75100000D03*
D25*
%TO.P,U7,2,SCL*%
%TO.N,SCL*%
X102400000Y-74700000D03*
D26*
X102725000Y-74700000D03*
D25*
%TO.P,U7,3,V_{SS}*%
%TO.N,GND*%
X102400000Y-74300000D03*
D26*
X102725000Y-74300000D03*
D25*
%TO.P,U7,4,NC*%
%TO.N,unconnected-(U7-NC-Pad4)_1*%
X102400000Y-73900000D03*
D26*
X102725000Y-73900000D03*
D25*
%TO.P,U7,5,V_{DD}*%
%TO.N,Net-(U7-V_{DD})*%
X102400000Y-73500000D03*
D26*
X102725000Y-73500000D03*
D25*
%TO.P,U7,6,BAT*%
%TO.N,Net-(BAT1-Pin_2)*%
X102400000Y-73100000D03*
D26*
X102725000Y-73100000D03*
%TO.P,U7,7,SRN*%
%TO.N,+BATT*%
X106675000Y-73100000D03*
D25*
X107000000Y-73100000D03*
D26*
%TO.P,U7,8,SRP*%
%TO.N,Net-(BAT1-Pin_2)*%
X106675000Y-73500000D03*
D25*
X107000000Y-73500000D03*
D26*
%TO.P,U7,9,NC*%
%TO.N,unconnected-(U7-NC-Pad9)_1*%
X106675000Y-73900000D03*
D25*
X107000000Y-73900000D03*
D26*
%TO.P,U7,10,BIN*%
%TO.N,Net-(U7-BIN)*%
X106675000Y-74300000D03*
D25*
X107000000Y-74300000D03*
D26*
%TO.P,U7,11,NC*%
%TO.N,unconnected-(U7-NC-Pad11)*%
X106675000Y-74700000D03*
D25*
X107000000Y-74700000D03*
D26*
%TO.P,U7,12,GPOUT*%
%TO.N,GAUGE_INT*%
X106675000Y-75100000D03*
D25*
X107000000Y-75100000D03*
D27*
%TO.P,U7,13,PAD*%
%TO.N,GND*%
X103600000Y-72735000D03*
D28*
X103600000Y-72787500D03*
X103600000Y-75412500D03*
D27*
X103600000Y-75465000D03*
D29*
X103800000Y-73600000D03*
X103800000Y-74600000D03*
D30*
X104050000Y-73612500D03*
X104050000Y-74587500D03*
D29*
X104700000Y-73600000D03*
D31*
X104700000Y-74100000D03*
D29*
X104700000Y-74600000D03*
D30*
X105350000Y-73612500D03*
X105350000Y-74587500D03*
D29*
X105600000Y-73600000D03*
X105600000Y-74600000D03*
D27*
X105800000Y-72735000D03*
D28*
X105800000Y-72787500D03*
X105800000Y-75412500D03*
D27*
X105800000Y-75465000D03*
%TD*%
D13*
%TO.P,BAT1,1,Pin_1*%
%TO.N,GND*%
X110000000Y-72800000D03*
%TO.P,BAT1,2,Pin_2*%
%TO.N,Net-(BAT1-Pin_2)*%
X110000000Y-74800000D03*
%TD*%
D12*
%TO.P,C6,1*%
%TO.N,GND*%
X106420000Y-68450000D03*
%TO.P,C6,2*%
%TO.N,+BATT*%
X107380000Y-68450000D03*
%TD*%
D14*
%TO.P,IO2,1,Pin_1*%
%TO.N,Net-(IO2-Pin_1)*%
X95000000Y-77700000D03*
%TD*%
D17*
%TO.P,R7,1*%
%TO.N,GND*%
X100400000Y-79790000D03*
%TO.P,R7,2*%
%TO.N,Net-(U5-PROG)*%
X100400000Y-80810000D03*
%TD*%
D14*
%TO.P,IO11,1,Pin_1*%
%TO.N,Net-(IO11-Pin_1)*%
X100500000Y-64500000D03*
%TD*%
D13*
%TO.P,IO3,1,Pin_1*%
%TO.N,Net-(IO3-Pin_1)*%
X95000000Y-75700000D03*
%TD*%
D32*
%TO.P,R10,1*%
%TO.N,DIG_HALL*%
X105000000Y-78710000D03*
%TO.P,R10,2*%
%TO.N,+3V3*%
X105000000Y-77690000D03*
%TD*%
D14*
%TO.P,TX0,1,Pin_1*%
%TO.N,TX*%
X105700000Y-66800000D03*
%TD*%
D12*
%TO.P,C1,1*%
%TO.N,+3V3*%
X98820000Y-68400000D03*
%TO.P,C1,2*%
%TO.N,GND*%
X99780000Y-68400000D03*
%TD*%
D14*
%TO.P,IO17,1,Pin_1*%
%TO.N,Net-(IO17-Pin_1)*%
X110000000Y-76800000D03*
%TD*%
%TO.P,IO10,1,Pin_1*%
%TO.N,Net-(IO10-Pin_1)*%
X98500000Y-64500000D03*
%TD*%
D22*
%TO.P,R6,1*%
%TO.N,Net-(U7-BIN)*%
X106910000Y-76500000D03*
%TO.P,R6,2*%
%TO.N,GND*%
X105890000Y-76500000D03*
%TD*%
D33*
%TO.P,U2,1,IN*%
%TO.N,+BATT*%
X104937500Y-69050000D03*
%TO.P,U2,2,GND*%
%TO.N,GND*%
X104937500Y-70000000D03*
%TO.P,U2,3,EN*%
%TO.N,+BATT*%
X104937500Y-70950000D03*
%TO.P,U2,4,BP*%
%TO.N,unconnected-(U2-BP-Pad4)*%
X102662500Y-70950000D03*
%TO.P,U2,5,OUT*%
%TO.N,+3V3*%
X102662500Y-69050000D03*
%TD*%
D13*
%TO.P,J24,1,Pin_1*%
%TO.N,+3V3*%
X110000000Y-82800000D03*
%TO.P,J24,2,Pin_2*%
%TO.N,GND*%
X110000000Y-84800000D03*
%TO.P,J24,3,Pin_3*%
%TO.N,Net-(J24-Pin_3)*%
X110000000Y-86800000D03*
%TD*%
D24*
%TO.P,C3,1*%
%TO.N,+BATT*%
X100400000Y-77720000D03*
%TO.P,C3,2*%
%TO.N,GND*%
X100400000Y-78680000D03*
%TD*%
D13*
%TO.P,IO8,1,Pin_1*%
%TO.N,Net-(IO8-Pin_1)*%
X95000000Y-65700000D03*
%TD*%
D15*
%TO.P,R12,1*%
%TO.N,Net-(U6-+)*%
X107490000Y-86300000D03*
%TO.P,R12,2*%
%TO.N,Net-(J24-Pin_3)*%
X108510000Y-86300000D03*
%TD*%
D34*
%TO.P,IC1,1,IN1*%
%TO.N,MPWM1*%
X106762000Y-70450000D03*
%TO.P,IC1,2,IN2*%
%TO.N,MPWM2*%
X106762000Y-69950000D03*
%TO.P,IC1,3,GND*%
%TO.N,GND*%
X106762000Y-69450000D03*
%TO.P,IC1,4,OUT2*%
%TO.N,Net-(IC1-OUT2)*%
X108438000Y-69450000D03*
%TO.P,IC1,5,VM*%
%TO.N,+BATT*%
X108438000Y-69950000D03*
%TO.P,IC1,6,OUT1*%
%TO.N,Net-(IC1-OUT1)*%
X108438000Y-70450000D03*
%TD*%
D24*
%TO.P,C9,1*%
%TO.N,GND*%
X101500000Y-73200000D03*
%TO.P,C9,2*%
%TO.N,Net-(U7-V_{DD})*%
X101500000Y-74160000D03*
%TD*%
D35*
%TO.P,IO4,1,Pin_1*%
%TO.N,Net-(IO4-Pin_1)*%
X95000000Y-73700000D03*
%TD*%
D36*
%TO.P,U6,1,-*%
%TO.N,Net-(U6--)*%
X108250000Y-81737500D03*
%TO.P,U6,2,V-*%
%TO.N,GND*%
X107300000Y-81737500D03*
%TO.P,U6,3,+*%
%TO.N,Net-(U6-+)*%
X106350000Y-81737500D03*
%TO.P,U6,4*%
%TO.N,DIG_HALL*%
X106350000Y-79462500D03*
%TO.P,U6,5,V+*%
%TO.N,+3V3*%
X108250000Y-79462500D03*
%TD*%
D37*
%TO.N,+3V3*%
X96600000Y-67400000D03*
D38*
X109056929Y-80998452D03*
D37*
X104900000Y-77200000D03*
X102900000Y-68300000D03*
X98990000Y-86650000D03*
X101100000Y-69000000D03*
X95400000Y-86800000D03*
X105900000Y-86800000D03*
%TO.N,GND*%
X97400000Y-65500000D03*
D38*
X108800000Y-67600000D03*
D37*
X99114318Y-81106682D03*
X109650000Y-85450000D03*
D38*
X95400000Y-64800000D03*
D37*
X99900000Y-65500000D03*
X100900000Y-66700000D03*
X99400000Y-71800000D03*
X106600000Y-69000000D03*
X98100000Y-77800000D03*
X102600000Y-77200000D03*
X106600000Y-77900000D03*
X109500000Y-64800000D03*
X107000000Y-80600000D03*
X107600000Y-65500000D03*
X104100000Y-70000000D03*
X96200000Y-87100000D03*
X107210000Y-83300000D03*
X101500000Y-73200000D03*
X102500000Y-65500000D03*
X99400000Y-73500000D03*
X105900000Y-65500000D03*
X104400000Y-67200000D03*
X108010000Y-76730000D03*
X106100000Y-86000000D03*
D38*
X96200000Y-79700000D03*
D37*
X99400000Y-70100000D03*
X104500000Y-79800000D03*
X100990000Y-79900000D03*
D38*
X108400000Y-72800000D03*
D37*
X104200000Y-65500000D03*
D38*
%TO.N,+BATT*%
X106600000Y-72500000D03*
X108400000Y-74490000D03*
%TO.N,+1V8*%
X98325000Y-85375000D03*
X97900000Y-80000000D03*
%TO.N,Net-(BAT1-Pin_2)*%
X100100000Y-75000000D03*
X107610000Y-71600000D03*
%TO.N,+5V*%
X105200000Y-81300000D03*
%TO.N,MPWM1*%
X108400000Y-71900000D03*
%TO.N,MPWM2*%
X107600000Y-70300000D03*
%TO.N,SCL*%
X101100000Y-75000000D03*
X99800000Y-77100000D03*
X97300000Y-82400000D03*
%TO.N,GAUGE_INT*%
X105800000Y-78000000D03*
X106800000Y-75600000D03*
%TO.N,SDA*%
X101067675Y-77200000D03*
X104500000Y-76500000D03*
X98500000Y-81700000D03*
%TO.N,Net-(IO1-Pin_1)*%
X96200000Y-77800000D03*
D37*
%TO.N,DIG_HALL*%
X106750000Y-78800000D03*
X109200000Y-83900000D03*
%TO.N,COMP_DAC*%
X107180000Y-84300000D03*
D38*
%TO.N,Net-(U3-EN)*%
X109100000Y-82880000D03*
X109750000Y-65900000D03*
%TO.N,Net-(U3-IO0)*%
X95926207Y-68666576D03*
D37*
X95394479Y-80649999D03*
D38*
%TO.N,Net-(IO2-Pin_1)*%
X96200000Y-76900000D03*
%TO.N,Net-(IO3-Pin_1)*%
X96300000Y-76050000D03*
D37*
%TO.N,Net-(IO4-Pin_1)*%
X96400000Y-73500000D03*
%TO.N,RX*%
X107350000Y-67640001D03*
%TO.N,TX*%
X106000000Y-67300000D03*
%TO.N,Net-(IO5-Pin_1)*%
X96400000Y-71800000D03*
%TO.N,Net-(IO6-Pin_1)*%
X96400000Y-70900000D03*
%TO.N,Net-(IO7-Pin_1)*%
X96400000Y-69800000D03*
D38*
%TO.N,IMU_INT*%
X101800000Y-76800000D03*
X95493504Y-84828936D03*
%TO.N,FSYNC*%
X101403345Y-79213976D03*
X96267377Y-84132624D03*
D37*
%TO.N,Net-(IO8-Pin_1)*%
X96400000Y-66500000D03*
%TO.N,Net-(IO9-Pin_1)*%
X97400000Y-66400000D03*
%TO.N,Net-(IO10-Pin_1)*%
X98508006Y-65621349D03*
D38*
%TO.N,Net-(IO11-Pin_1)*%
X101200000Y-65900000D03*
%TO.N,Net-(IO12-Pin_1)*%
X102300000Y-66300000D03*
%TO.N,Net-(IO13-Pin_1)*%
X103367573Y-66100000D03*
%TO.N,Net-(IO15-Pin_1)*%
X108550000Y-65750000D03*
%TO.N,Net-(IO16-Pin_1)*%
X106845608Y-65928145D03*
%TO.N,Net-(IO17-Pin_1)*%
X108900000Y-76200000D03*
%TO.N,Net-(IO14-Pin_1)*%
X104700000Y-66197944D03*
%TO.N,Net-(IO18-Pin_1)*%
X109500000Y-77750000D03*
%TO.N,Net-(IO19-Pin_1)*%
X108700000Y-77200000D03*
%TD*%
D39*
%TO.N,+3V3*%
X102662500Y-68457500D02*
X103420000Y-67700000D01*
X109200000Y-81300000D02*
X108900000Y-81000000D01*
X96600000Y-67400000D02*
X96900000Y-67700000D01*
X95400000Y-86800000D02*
X95400000Y-86580000D01*
X98350000Y-66600000D02*
X98350000Y-67950000D01*
X95200000Y-84300000D02*
X94902558Y-84597442D01*
X96900000Y-67700000D02*
X98200000Y-67700000D01*
X94902558Y-84597442D02*
X94902558Y-85982558D01*
X105390000Y-77300000D02*
X105000000Y-77690000D01*
X98350000Y-67950000D02*
X99450000Y-69050000D01*
X109056929Y-81156929D02*
X109200000Y-81300000D01*
X108900000Y-81000000D02*
X108550000Y-80650000D01*
X98350000Y-67550000D02*
X98350000Y-66600000D01*
X98200000Y-67700000D02*
X98350000Y-67550000D01*
X95400000Y-86580000D02*
X95120000Y-86300000D01*
X108180000Y-78000000D02*
X108180000Y-79392500D01*
X108550000Y-80650000D02*
X108250000Y-80350000D01*
X110000000Y-82800000D02*
X110000000Y-82500000D01*
X109056929Y-80998452D02*
X109056929Y-81156929D01*
X107800000Y-77300000D02*
X105390000Y-77300000D01*
X108180000Y-78000000D02*
X108180000Y-77680000D01*
X109200000Y-81700000D02*
X109200000Y-81300000D01*
X99450000Y-69050000D02*
X102662500Y-69050000D01*
X102662500Y-69050000D02*
X102662500Y-68457500D01*
X109056929Y-80998452D02*
X108898452Y-80998452D01*
X108898452Y-80998452D02*
X108550000Y-80650000D01*
X108250000Y-80350000D02*
X108250000Y-79462500D01*
X109056929Y-80998452D02*
X108901548Y-80998452D01*
X94902558Y-85982558D02*
X95120000Y-86200000D01*
X108901548Y-80998452D02*
X108900000Y-81000000D01*
X108180000Y-77680000D02*
X107800000Y-77300000D01*
X110000000Y-82500000D02*
X109200000Y-81700000D01*
%TO.N,GND*%
X96100000Y-81100000D02*
X95975000Y-81225000D01*
X107220000Y-78000000D02*
X106700000Y-78000000D01*
X96080000Y-86980000D02*
X96080000Y-86200000D01*
X107300000Y-80900000D02*
X107000000Y-80600000D01*
X96100000Y-81300000D02*
X96100000Y-81800000D01*
X100250000Y-67730000D02*
X99780000Y-68200000D01*
X102725000Y-74300000D02*
X103500000Y-74300000D01*
X109650000Y-85450000D02*
X109900000Y-85200000D01*
X99250000Y-85000000D02*
X99250000Y-85494974D01*
X96200000Y-87100000D02*
X96080000Y-86980000D01*
X103990000Y-87110000D02*
X104500000Y-86600000D01*
X100250000Y-66600000D02*
X100250000Y-67730000D01*
X97368192Y-85702000D02*
X97492000Y-85702000D01*
X96520000Y-80280000D02*
X96100000Y-80700000D01*
X97492000Y-85702000D02*
X98080000Y-86290000D01*
X103500000Y-74300000D02*
X103800000Y-74600000D01*
X96100000Y-81100000D02*
X96100000Y-81300000D01*
X105800000Y-76410000D02*
X105890000Y-76500000D01*
D40*
X109770000Y-72620000D02*
X109950000Y-72800000D01*
D39*
X102500000Y-87110000D02*
X103990000Y-87110000D01*
X106700000Y-78000000D02*
X106600000Y-77900000D01*
X106600000Y-69288000D02*
X106762000Y-69450000D01*
X102500000Y-87110000D02*
X101400000Y-87110000D01*
X99250000Y-85494974D02*
X99965026Y-86210000D01*
X95503640Y-81225000D02*
X95200000Y-81528640D01*
X100400000Y-78680000D02*
X100400000Y-79790000D01*
X96900000Y-84800000D02*
X96900000Y-85233808D01*
X101400000Y-87110000D02*
X100500000Y-86210000D01*
X95200000Y-81528640D02*
X95200000Y-82300000D01*
X96900000Y-85233808D02*
X97368192Y-85702000D01*
X96100000Y-80700000D02*
X96100000Y-81100000D01*
X105800000Y-75412500D02*
X105800000Y-76410000D01*
X106600000Y-69000000D02*
X106600000Y-69288000D01*
X100990000Y-79900000D02*
X100510000Y-79900000D01*
X95200000Y-82300000D02*
X95428640Y-82300000D01*
D40*
X108800000Y-72620000D02*
X109770000Y-72620000D01*
D39*
X95975000Y-81225000D02*
X95503640Y-81225000D01*
X99250000Y-85494974D02*
X98444974Y-86300000D01*
X96520000Y-80020000D02*
X96520000Y-80280000D01*
X96200000Y-79700000D02*
X96520000Y-80020000D01*
X109900000Y-85200000D02*
X109900000Y-84400000D01*
X98444974Y-86300000D02*
X98080000Y-86300000D01*
X107300000Y-81737500D02*
X107300000Y-80900000D01*
%TO.N,+1V8*%
X98325000Y-85375000D02*
X97503640Y-85375000D01*
X97503640Y-85375000D02*
X97300000Y-85171360D01*
X97480000Y-80400000D02*
X97480000Y-80700000D01*
X96900000Y-81428640D02*
X97480000Y-80848640D01*
X97300000Y-85171360D02*
X97300000Y-84800000D01*
X97480000Y-79567500D02*
X97480000Y-80400000D01*
X97150000Y-79237500D02*
X97480000Y-79567500D01*
X97880000Y-80000000D02*
X97480000Y-80400000D01*
X97900000Y-80000000D02*
X97900000Y-80180000D01*
X98420000Y-80700000D02*
X97480000Y-80700000D01*
X97900000Y-80000000D02*
X97880000Y-80000000D01*
X97900000Y-80180000D02*
X98420000Y-80700000D01*
X96900000Y-81800000D02*
X96900000Y-81428640D01*
%TO.N,Net-(BAT1-Pin_2)*%
X110000000Y-74800000D02*
X110000000Y-74600000D01*
X100600000Y-74500000D02*
X100600000Y-73100000D01*
X101900000Y-72600000D02*
X102400000Y-73100000D01*
X100100000Y-75000000D02*
X100600000Y-74500000D01*
X100600000Y-73100000D02*
X101100000Y-72600000D01*
X101100000Y-72600000D02*
X101900000Y-72600000D01*
X109680000Y-74480000D02*
X110000000Y-74800000D01*
%TO.N,Net-(U4-REGOUT)*%
X96500000Y-85680000D02*
X97120000Y-86300000D01*
X96500000Y-84800000D02*
X96500000Y-85680000D01*
%TO.N,+5V*%
X104800000Y-83560000D02*
X104800000Y-85000000D01*
X103000000Y-81900000D02*
X103650000Y-81250000D01*
X103919315Y-83560000D02*
X103000000Y-82640685D01*
X104800000Y-83560000D02*
X103919315Y-83560000D01*
X105000000Y-80780000D02*
X104500000Y-80780000D01*
X100200000Y-83560000D02*
X100200000Y-85000000D01*
X104500000Y-80780000D02*
X104120000Y-80780000D01*
X103650000Y-81250000D02*
X103650000Y-80337500D01*
X103000000Y-82640685D02*
X103000000Y-81900000D01*
X105200000Y-81300000D02*
X105020000Y-81300000D01*
X104120000Y-80780000D02*
X103650000Y-81250000D01*
X105020000Y-81300000D02*
X104500000Y-80780000D01*
%TO.N,Net-(U6-+)*%
X106350000Y-81737500D02*
X106600000Y-81987500D01*
X107490000Y-85300000D02*
X106620000Y-85300000D01*
X106600000Y-81987500D02*
X106600000Y-85320000D01*
X107490000Y-86300000D02*
X107490000Y-85300000D01*
%TO.N,Net-(U6--)*%
X108170000Y-83300000D02*
X108170000Y-84270000D01*
X108250000Y-81737500D02*
X108250000Y-83070000D01*
X108170000Y-84270000D02*
X108200000Y-84300000D01*
%TO.N,MPWM1*%
X108400000Y-71100000D02*
X108200000Y-70900000D01*
X108400000Y-71900000D02*
X108400000Y-71100000D01*
X108200000Y-70900000D02*
X107212000Y-70900000D01*
X107212000Y-70900000D02*
X106762000Y-70450000D01*
%TO.N,MPWM2*%
X107249500Y-69950000D02*
X106762000Y-69950000D01*
X107599500Y-70300000D02*
X107249500Y-69950000D01*
X107600000Y-70300000D02*
X107599500Y-70300000D01*
%TO.N,Net-(U7-V_{DD})*%
X102725000Y-73500000D02*
X102160000Y-73500000D01*
X102160000Y-73500000D02*
X101500000Y-74160000D01*
%TO.N,SCL*%
X97300000Y-82400000D02*
X97300000Y-81800000D01*
X102400000Y-74700000D02*
X101896134Y-74700000D01*
X101596134Y-75000000D02*
X101100000Y-75000000D01*
X101896134Y-74700000D02*
X101596134Y-75000000D01*
%TO.N,GAUGE_INT*%
X106675000Y-75475000D02*
X106800000Y-75600000D01*
X106675000Y-75100000D02*
X106675000Y-75475000D01*
%TO.N,SDA*%
X98500000Y-81700000D02*
X98400000Y-81800000D01*
X98400000Y-81800000D02*
X97700000Y-81800000D01*
X104052500Y-76052500D02*
X103100000Y-76052500D01*
X102725000Y-75100000D02*
X102400000Y-75100000D01*
X103100000Y-76052500D02*
X102725000Y-75677500D01*
X104500000Y-76500000D02*
X104052500Y-76052500D01*
X102725000Y-75677500D02*
X102725000Y-75100000D01*
%TO.N,Net-(IO1-Pin_1)*%
X96200000Y-77800000D02*
X96200000Y-78400000D01*
X95000000Y-79600000D02*
X95000000Y-79700000D01*
X96200000Y-78400000D02*
X95000000Y-79600000D01*
%TO.N,Net-(U5-PROG)*%
X101277500Y-80810000D02*
X100400000Y-80810000D01*
X101750000Y-80337500D02*
X101277500Y-80810000D01*
%TO.N,DIG_HALL*%
X105610000Y-78710000D02*
X105000000Y-78710000D01*
X109200000Y-83900000D02*
X109200000Y-84610000D01*
X105800000Y-78912500D02*
X105800000Y-78900000D01*
X109200000Y-84610000D02*
X108510000Y-85300000D01*
X105800000Y-78900000D02*
X105610000Y-78710000D01*
X106350000Y-79462500D02*
X105800000Y-78912500D01*
%TO.N,Net-(USB1-CC1)*%
X102921682Y-85990000D02*
X102500000Y-85990000D01*
X103850000Y-85000000D02*
X103850000Y-85061682D01*
X102500000Y-85990000D02*
X102500000Y-86090000D01*
X103850000Y-85061682D02*
X102921682Y-85990000D01*
%TO.N,Net-(IO2-Pin_1)*%
X96200000Y-76900000D02*
X95800000Y-76900000D01*
X95800000Y-76900000D02*
X95000000Y-77700000D01*
X95000000Y-77700000D02*
X95000000Y-77400000D01*
%TO.N,Net-(IO3-Pin_1)*%
X95350000Y-76050000D02*
X95000000Y-75700000D01*
X96300000Y-76050000D02*
X95350000Y-76050000D01*
%TO.N,Net-(IO4-Pin_1)*%
X96400000Y-73500000D02*
X95200000Y-73500000D01*
%TO.N,Net-(IO5-Pin_1)*%
X96400000Y-71800000D02*
X95100000Y-71800000D01*
%TO.N,Net-(IO6-Pin_1)*%
X95200000Y-69700000D02*
X96400000Y-70900000D01*
%TO.N,Net-(IO7-Pin_1)*%
X96400000Y-69800000D02*
X96600542Y-69599458D01*
X95200000Y-67900000D02*
X95000000Y-67700000D01*
X96600542Y-68400542D02*
X96100000Y-67900000D01*
X96100000Y-67900000D02*
X95200000Y-67900000D01*
X96600542Y-69599458D02*
X96600542Y-68400542D01*
%TO.N,FSYNC*%
X96100000Y-84300001D02*
X96267377Y-84132624D01*
X96100000Y-84800000D02*
X96100000Y-84300001D01*
%TO.N,Net-(IO8-Pin_1)*%
X95600000Y-65700000D02*
X95000000Y-65700000D01*
X96400000Y-66500000D02*
X95600000Y-65700000D01*
%TO.N,Net-(IO9-Pin_1)*%
X97400000Y-66400000D02*
X96500000Y-65500000D01*
X96500000Y-65500000D02*
X96500000Y-64500000D01*
%TO.N,Net-(IO10-Pin_1)*%
X98508006Y-64508006D02*
X98500000Y-64500000D01*
X98508006Y-65621349D02*
X98508006Y-64508006D01*
%TO.N,Net-(IO11-Pin_1)*%
X100500000Y-65000000D02*
X100500000Y-64500000D01*
X101200000Y-65900000D02*
X101200000Y-65700000D01*
X101200000Y-65700000D02*
X100500000Y-65000000D01*
%TO.N,Net-(IO12-Pin_1)*%
X101920000Y-65770466D02*
X101920000Y-65080000D01*
X101920000Y-65080000D02*
X102500000Y-64500000D01*
X102300000Y-66150466D02*
X101920000Y-65770466D01*
X102300000Y-66300000D02*
X102300000Y-66150466D01*
%TO.N,Net-(IO13-Pin_1)*%
X103367573Y-64982427D02*
X103850000Y-64500000D01*
X103850000Y-64500000D02*
X104500000Y-64500000D01*
X103367573Y-66100000D02*
X103367573Y-64982427D01*
%TO.N,Net-(IO15-Pin_1)*%
X108550000Y-65750000D02*
X108500000Y-65700000D01*
X108500000Y-65700000D02*
X108500000Y-64500000D01*
%TO.N,Net-(IO16-Pin_1)*%
X106845608Y-65928145D02*
X107217463Y-66300000D01*
X108200000Y-66600000D02*
X109800000Y-66600000D01*
X107217463Y-66300000D02*
X107900000Y-66300000D01*
X107900000Y-66300000D02*
X108200000Y-66600000D01*
%TO.N,Net-(IO17-Pin_1)*%
X110000000Y-76550000D02*
X110000000Y-76800000D01*
X109500000Y-76800000D02*
X108900000Y-76200000D01*
X110000000Y-76800000D02*
X109500000Y-76800000D01*
%TO.N,Net-(IO14-Pin_1)*%
X104700000Y-66197944D02*
X104700000Y-65820244D01*
X105700000Y-64500000D02*
X106500000Y-64500000D01*
X104700000Y-65820244D02*
X105300000Y-65220244D01*
X105300000Y-65220244D02*
X105300000Y-64900000D01*
X105300000Y-64900000D02*
X105700000Y-64500000D01*
%TO.N,Net-(IO18-Pin_1)*%
X109500000Y-77750000D02*
X110000000Y-78250000D01*
X110000000Y-78250000D02*
X110000000Y-78800000D01*
%TO.N,Net-(J24-Pin_3)*%
X108510000Y-86300000D02*
X109500000Y-86300000D01*
X109500000Y-86300000D02*
X110000000Y-86800000D01*
%TO.N,Net-(IO19-Pin_1)*%
X108850000Y-79450000D02*
X110000000Y-80600000D01*
X108850000Y-77550000D02*
X108850000Y-79450000D01*
X108900000Y-77200000D02*
X108700000Y-77400000D01*
X108700000Y-77400000D02*
X108850000Y-77550000D01*
%TO.N,Net-(U7-BIN)*%
X108400000Y-75510000D02*
X107900000Y-75510000D01*
X107900000Y-75510000D02*
X106910000Y-76500000D01*
X107300000Y-74328924D02*
X108400000Y-75428924D01*
X107300000Y-74300000D02*
X107300000Y-74328924D01*
X108400000Y-75428924D02*
X108400000Y-75510000D01*
X106675000Y-74300000D02*
X107300000Y-74300000D01*
%TD*%
%TA.AperFunction,Conductor*%
%TO.N,+BATT*%
G36*
X105609965Y-67614352D02*
G01*
X105612349Y-67616912D01*
X105660746Y-67672765D01*
X105668872Y-67682143D01*
X105789947Y-67759953D01*
X105857956Y-67779922D01*
X105928034Y-67800499D01*
X105928037Y-67800499D01*
X105928039Y-67800500D01*
X105928040Y-67800500D01*
X106071960Y-67800500D01*
X106071961Y-67800500D01*
X106071963Y-67800499D01*
X106071965Y-67800499D01*
X106094795Y-67793795D01*
X106210053Y-67759953D01*
X106331128Y-67682143D01*
X106387651Y-67616912D01*
X106421187Y-67600125D01*
X106424683Y-67600000D01*
X106583737Y-67600000D01*
X106618385Y-67614352D01*
X106628562Y-67629208D01*
X106647794Y-67672766D01*
X106727233Y-67752205D01*
X106830006Y-67797584D01*
X106830007Y-67797584D01*
X106830009Y-67797585D01*
X106846631Y-67799513D01*
X106879394Y-67817762D01*
X106885556Y-67827831D01*
X106924623Y-67913374D01*
X106924624Y-67913375D01*
X106924625Y-67913377D01*
X107013539Y-68015989D01*
X107018872Y-68022144D01*
X107139947Y-68099954D01*
X107209993Y-68120521D01*
X107278034Y-68140500D01*
X107278037Y-68140500D01*
X107278039Y-68140501D01*
X107278040Y-68140501D01*
X107421960Y-68140501D01*
X107421961Y-68140501D01*
X107421963Y-68140500D01*
X107421965Y-68140500D01*
X107444795Y-68133796D01*
X107560053Y-68099954D01*
X107681128Y-68022144D01*
X107775377Y-67913374D01*
X107835165Y-67782458D01*
X107835165Y-67782453D01*
X107835234Y-67782304D01*
X107860014Y-67757835D01*
X107872765Y-67752206D01*
X107952206Y-67672765D01*
X107971438Y-67629207D01*
X107998562Y-67603309D01*
X108016263Y-67600000D01*
X108051000Y-67600000D01*
X108085648Y-67614352D01*
X108100000Y-67649000D01*
X108100000Y-67738433D01*
X108085648Y-67773081D01*
X108077070Y-67779922D01*
X108027419Y-67811120D01*
X108027417Y-67811121D01*
X107974496Y-67885706D01*
X107960144Y-67920353D01*
X107960142Y-67920359D01*
X107954888Y-67946776D01*
X107944500Y-67999000D01*
X107944500Y-69550500D01*
X107951166Y-69584012D01*
X107960142Y-69629140D01*
X107960145Y-69629150D01*
X107974491Y-69663783D01*
X107974490Y-69663783D01*
X108011122Y-69722083D01*
X108085706Y-69775003D01*
X108085709Y-69775005D01*
X108120357Y-69789357D01*
X108199000Y-69805000D01*
X108601000Y-69805000D01*
X108635648Y-69819352D01*
X108650000Y-69854000D01*
X108650000Y-70046000D01*
X108635648Y-70080648D01*
X108601000Y-70095000D01*
X108199000Y-70095000D01*
X108159859Y-70102785D01*
X108120359Y-70110642D01*
X108120353Y-70110644D01*
X108085713Y-70124993D01*
X108085708Y-70124995D01*
X108078413Y-70129579D01*
X108041439Y-70135859D01*
X108010855Y-70114155D01*
X108007774Y-70108443D01*
X108003919Y-70100001D01*
X107982882Y-70053937D01*
X107898049Y-69956033D01*
X107789069Y-69885996D01*
X107789066Y-69885995D01*
X107664776Y-69849500D01*
X107664772Y-69849500D01*
X107594267Y-69849500D01*
X107559619Y-69835148D01*
X107434011Y-69709540D01*
X107365490Y-69669979D01*
X107289064Y-69649500D01*
X107289062Y-69649500D01*
X107249000Y-69649500D01*
X107214352Y-69635148D01*
X107200000Y-69600500D01*
X107200000Y-69280255D01*
X107200000Y-69280252D01*
X107188367Y-69221769D01*
X107144052Y-69155448D01*
X107144051Y-69155446D01*
X107114293Y-69135562D01*
X107093458Y-69104380D01*
X107093016Y-69087847D01*
X107105647Y-69000001D01*
X107105647Y-68999998D01*
X107085166Y-68857545D01*
X107067250Y-68818316D01*
X107025377Y-68726627D01*
X107010525Y-68709487D01*
X106931127Y-68617856D01*
X106923007Y-68612637D01*
X106901619Y-68581831D01*
X106900499Y-68571416D01*
X106900499Y-68240103D01*
X106900499Y-68240102D01*
X106900499Y-68240100D01*
X106893972Y-68190513D01*
X106893971Y-68190511D01*
X106844542Y-68084511D01*
X106843224Y-68081684D01*
X106843223Y-68081683D01*
X106843222Y-68081681D01*
X106758318Y-67996777D01*
X106758316Y-67996776D01*
X106649489Y-67946029D01*
X106649488Y-67946028D01*
X106639569Y-67944722D01*
X106599901Y-67939500D01*
X106599897Y-67939500D01*
X106240103Y-67939500D01*
X106240098Y-67939501D01*
X106190512Y-67946027D01*
X106081683Y-67996776D01*
X106081681Y-67996777D01*
X105996777Y-68081681D01*
X105996776Y-68081683D01*
X105946029Y-68190510D01*
X105946028Y-68190511D01*
X105946028Y-68190512D01*
X105946028Y-68190513D01*
X105939501Y-68240098D01*
X105939500Y-68240102D01*
X105939500Y-68659896D01*
X105939501Y-68659901D01*
X105946027Y-68709487D01*
X105996776Y-68818316D01*
X105996777Y-68818318D01*
X106084715Y-68906255D01*
X106083862Y-68907107D01*
X106101300Y-68934477D01*
X106101546Y-68949960D01*
X106094353Y-68999996D01*
X106094353Y-69000002D01*
X106114833Y-69142454D01*
X106146935Y-69212746D01*
X106174623Y-69273373D01*
X106174624Y-69273374D01*
X106174625Y-69273376D01*
X106268870Y-69382141D01*
X106268872Y-69382143D01*
X106301491Y-69403106D01*
X106322880Y-69433911D01*
X106324000Y-69444327D01*
X106324000Y-69619748D01*
X106329918Y-69649500D01*
X106335633Y-69678233D01*
X106336884Y-69681252D01*
X106336884Y-69718748D01*
X106335633Y-69721766D01*
X106332094Y-69739562D01*
X106324000Y-69780252D01*
X106324000Y-70119748D01*
X106325044Y-70124995D01*
X106335633Y-70178233D01*
X106336884Y-70181252D01*
X106336884Y-70218748D01*
X106335633Y-70221766D01*
X106331518Y-70242457D01*
X106324000Y-70280252D01*
X106324000Y-70619748D01*
X106335633Y-70678231D01*
X106349247Y-70698605D01*
X106379947Y-70744552D01*
X106399390Y-70757543D01*
X106446269Y-70788867D01*
X106504752Y-70800500D01*
X106667233Y-70800500D01*
X106701881Y-70814852D01*
X107000974Y-71113945D01*
X107015326Y-71148593D01*
X107011600Y-71167335D01*
X107010146Y-71170846D01*
X107010143Y-71170854D01*
X107004069Y-71201393D01*
X106994500Y-71249500D01*
X106994500Y-71249503D01*
X106994500Y-72799500D01*
X106995487Y-72819595D01*
X106995490Y-72819643D01*
X106996426Y-72829149D01*
X106997457Y-72837763D01*
X107030066Y-72923201D01*
X107030068Y-72923204D01*
X107050902Y-72954388D01*
X107050904Y-72954390D01*
X107050905Y-72954392D01*
X107080649Y-72984138D01*
X107095000Y-73018785D01*
X107095000Y-73051000D01*
X107080648Y-73085648D01*
X107046000Y-73100000D01*
X106249500Y-73100000D01*
X106214852Y-73085648D01*
X106200500Y-73051000D01*
X106200500Y-72427755D01*
X106200500Y-72427752D01*
X106188867Y-72369269D01*
X106155932Y-72319979D01*
X106144552Y-72302947D01*
X106080206Y-72259953D01*
X106078231Y-72258633D01*
X106019748Y-72247000D01*
X105649000Y-72247000D01*
X105614352Y-72232648D01*
X105600000Y-72198000D01*
X105600000Y-72100000D01*
X104600000Y-72100000D01*
X103100000Y-72100000D01*
X103100000Y-72750500D01*
X103085648Y-72785148D01*
X103051000Y-72799500D01*
X102544767Y-72799500D01*
X102510119Y-72785148D01*
X102084511Y-72359540D01*
X102056533Y-72343387D01*
X102015990Y-72319979D01*
X101939564Y-72299500D01*
X101939562Y-72299500D01*
X101139562Y-72299500D01*
X101060438Y-72299500D01*
X101060435Y-72299500D01*
X100984013Y-72319977D01*
X100984010Y-72319978D01*
X100915488Y-72359540D01*
X100915488Y-72359541D01*
X100359541Y-72915488D01*
X100359540Y-72915488D01*
X100319979Y-72984008D01*
X100319979Y-72984010D01*
X100299500Y-73060436D01*
X100299500Y-74355233D01*
X100285148Y-74389881D01*
X100139881Y-74535148D01*
X100105233Y-74549500D01*
X100035221Y-74549500D01*
X99957915Y-74572199D01*
X99920627Y-74568190D01*
X99919496Y-74566787D01*
X99912513Y-74583648D01*
X99904359Y-74590219D01*
X99858763Y-74619522D01*
X99801950Y-74656033D01*
X99717119Y-74753936D01*
X99717118Y-74753936D01*
X99663301Y-74871776D01*
X99644867Y-74999997D01*
X99644867Y-75000002D01*
X99663301Y-75128223D01*
X99717118Y-75246063D01*
X99764395Y-75300625D01*
X99801951Y-75343967D01*
X99910931Y-75414004D01*
X99980093Y-75434311D01*
X100035223Y-75450499D01*
X100035228Y-75450500D01*
X100164772Y-75450500D01*
X100164776Y-75450499D01*
X100185324Y-75444465D01*
X100289069Y-75414004D01*
X100398049Y-75343967D01*
X100482882Y-75246063D01*
X100536697Y-75128226D01*
X100536697Y-75128224D01*
X100536698Y-75128223D01*
X100548529Y-75045932D01*
X100551498Y-75025276D01*
X100570634Y-74993025D01*
X100606972Y-74983750D01*
X100639225Y-75002886D01*
X100648500Y-75025277D01*
X100663302Y-75128224D01*
X100717118Y-75246063D01*
X100764395Y-75300625D01*
X100801951Y-75343967D01*
X100910931Y-75414004D01*
X100980093Y-75434311D01*
X101035223Y-75450499D01*
X101035228Y-75450500D01*
X101164772Y-75450500D01*
X101164776Y-75450499D01*
X101185324Y-75444465D01*
X101289069Y-75414004D01*
X101398049Y-75343967D01*
X101421059Y-75317412D01*
X101454595Y-75300625D01*
X101458091Y-75300500D01*
X101635698Y-75300500D01*
X101662364Y-75293354D01*
X101712123Y-75280021D01*
X101715224Y-75278231D01*
X101721304Y-75274720D01*
X101780645Y-75240460D01*
X101836594Y-75184511D01*
X102006253Y-75014852D01*
X102040901Y-75000500D01*
X102050500Y-75000500D01*
X102085148Y-75014852D01*
X102099500Y-75049500D01*
X102099500Y-75219748D01*
X102111133Y-75278231D01*
X102128882Y-75304795D01*
X102155447Y-75344552D01*
X102179574Y-75360673D01*
X102221769Y-75388867D01*
X102280252Y-75400500D01*
X102360438Y-75400500D01*
X102375500Y-75400500D01*
X102410148Y-75414852D01*
X102424500Y-75449500D01*
X102424500Y-75717063D01*
X102444978Y-75793487D01*
X102444979Y-75793491D01*
X102481089Y-75856033D01*
X102481090Y-75856035D01*
X102484541Y-75862013D01*
X102672526Y-76049997D01*
X102859540Y-76237011D01*
X102915489Y-76292960D01*
X102984011Y-76332521D01*
X103019478Y-76342024D01*
X103060436Y-76353000D01*
X103060438Y-76353000D01*
X103139562Y-76353000D01*
X103907733Y-76353000D01*
X103942381Y-76367352D01*
X104031314Y-76456285D01*
X104045666Y-76490933D01*
X104045168Y-76497899D01*
X104044867Y-76499994D01*
X104044867Y-76500002D01*
X104063301Y-76628223D01*
X104089686Y-76685996D01*
X104117118Y-76746063D01*
X104201951Y-76843967D01*
X104310931Y-76914004D01*
X104310933Y-76914005D01*
X104350210Y-76925537D01*
X104364804Y-76929822D01*
X104394006Y-76953353D01*
X104400000Y-76976837D01*
X104400000Y-77157220D01*
X104399501Y-77164193D01*
X104394353Y-77199998D01*
X104394353Y-77200000D01*
X104399501Y-77235804D01*
X104400000Y-77242778D01*
X104400000Y-79051000D01*
X104385648Y-79085648D01*
X104351000Y-79100000D01*
X103249000Y-79100000D01*
X103214352Y-79085648D01*
X103200000Y-79051000D01*
X103200000Y-78615244D01*
X103200377Y-78610035D01*
X103200372Y-78610035D01*
X103200500Y-78608266D01*
X103200500Y-77516735D01*
X103200372Y-77514967D01*
X103200377Y-77514966D01*
X103200000Y-77509756D01*
X103200000Y-77200000D01*
X103148106Y-77200000D01*
X103113458Y-77185648D01*
X103099605Y-77157973D01*
X103085166Y-77057545D01*
X103058657Y-76999500D01*
X103025377Y-76926627D01*
X103016158Y-76915988D01*
X102931128Y-76817857D01*
X102903342Y-76800000D01*
X102810053Y-76740047D01*
X102810050Y-76740046D01*
X102671965Y-76699500D01*
X102671961Y-76699500D01*
X102528039Y-76699500D01*
X102528034Y-76699500D01*
X102389948Y-76740046D01*
X102322786Y-76783208D01*
X102285879Y-76789866D01*
X102255073Y-76768477D01*
X102247794Y-76748959D01*
X102245068Y-76730000D01*
X102243451Y-76718753D01*
X102236698Y-76671776D01*
X102203690Y-76599500D01*
X102182882Y-76553937D01*
X102098049Y-76456033D01*
X101989069Y-76385996D01*
X101989066Y-76385995D01*
X101864776Y-76349500D01*
X101864772Y-76349500D01*
X101735228Y-76349500D01*
X101735223Y-76349500D01*
X101610933Y-76385995D01*
X101610931Y-76385995D01*
X101610931Y-76385996D01*
X101598528Y-76393967D01*
X101501950Y-76456033D01*
X101417119Y-76553936D01*
X101417118Y-76553936D01*
X101363302Y-76671775D01*
X101350106Y-76763554D01*
X101330969Y-76795807D01*
X101294631Y-76805081D01*
X101275115Y-76797802D01*
X101256744Y-76785996D01*
X101256743Y-76785995D01*
X101256742Y-76785995D01*
X101132451Y-76749500D01*
X101132447Y-76749500D01*
X101002903Y-76749500D01*
X101002898Y-76749500D01*
X100878608Y-76785995D01*
X100878606Y-76785995D01*
X100878606Y-76785996D01*
X100856815Y-76800000D01*
X100769625Y-76856033D01*
X100684794Y-76953936D01*
X100684793Y-76953936D01*
X100630976Y-77071776D01*
X100612542Y-77199997D01*
X100612542Y-77200000D01*
X100630976Y-77328223D01*
X100657361Y-77385996D01*
X100684793Y-77446063D01*
X100769626Y-77543967D01*
X100878606Y-77614004D01*
X100938820Y-77631684D01*
X101002898Y-77650499D01*
X101002903Y-77650500D01*
X101132444Y-77650500D01*
X101132447Y-77650500D01*
X101137193Y-77649106D01*
X101174480Y-77653112D01*
X101198014Y-77682311D01*
X101200000Y-77696120D01*
X101200000Y-78151000D01*
X101185648Y-78185648D01*
X101151000Y-78200000D01*
X100616910Y-78200000D01*
X100610518Y-78199581D01*
X100609902Y-78199500D01*
X100190103Y-78199500D01*
X100190096Y-78199501D01*
X100189492Y-78199581D01*
X100183099Y-78200000D01*
X99800000Y-78200000D01*
X98522950Y-78200000D01*
X98488302Y-78185648D01*
X98473950Y-78151000D01*
X98485918Y-78118912D01*
X98525374Y-78073376D01*
X98525377Y-78073373D01*
X98585165Y-77942457D01*
X98585165Y-77942455D01*
X98585166Y-77942454D01*
X98605647Y-77800002D01*
X98605647Y-77799997D01*
X98585165Y-77657544D01*
X98585165Y-77657542D01*
X98578238Y-77642375D01*
X98576898Y-77604896D01*
X98578776Y-77600522D01*
X98590573Y-77576393D01*
X98600500Y-77508260D01*
X98600500Y-77099997D01*
X99344867Y-77099997D01*
X99344867Y-77100002D01*
X99363301Y-77228223D01*
X99395664Y-77299086D01*
X99417118Y-77346063D01*
X99501951Y-77443967D01*
X99610931Y-77514004D01*
X99680093Y-77534311D01*
X99735223Y-77550499D01*
X99735228Y-77550500D01*
X99864772Y-77550500D01*
X99864776Y-77550499D01*
X99887025Y-77543966D01*
X99989069Y-77514004D01*
X100098049Y-77443967D01*
X100182882Y-77346063D01*
X100236697Y-77228226D01*
X100236697Y-77228224D01*
X100236698Y-77228223D01*
X100255133Y-77100002D01*
X100255133Y-77099997D01*
X100236698Y-76971776D01*
X100203919Y-76900002D01*
X100182882Y-76853937D01*
X100098049Y-76756033D01*
X99989069Y-76685996D01*
X99989066Y-76685995D01*
X99864776Y-76649500D01*
X99864772Y-76649500D01*
X99735228Y-76649500D01*
X99735223Y-76649500D01*
X99610933Y-76685995D01*
X99501950Y-76756033D01*
X99417119Y-76853936D01*
X99417118Y-76853936D01*
X99363301Y-76971776D01*
X99344867Y-77099997D01*
X98600500Y-77099997D01*
X98600500Y-76416740D01*
X98590573Y-76348607D01*
X98539198Y-76243517D01*
X98456483Y-76160802D01*
X98403938Y-76135114D01*
X98351396Y-76109428D01*
X98351394Y-76109427D01*
X98283262Y-76099500D01*
X98283260Y-76099500D01*
X97916740Y-76099500D01*
X97916738Y-76099500D01*
X97848605Y-76109427D01*
X97848603Y-76109428D01*
X97743519Y-76160801D01*
X97743515Y-76160803D01*
X97660803Y-76243515D01*
X97660801Y-76243519D01*
X97609428Y-76348603D01*
X97609427Y-76348605D01*
X97599500Y-76416738D01*
X97599500Y-77508261D01*
X97609427Y-77576394D01*
X97609428Y-77576396D01*
X97621211Y-77600498D01*
X97623535Y-77637929D01*
X97621762Y-77642374D01*
X97614833Y-77657544D01*
X97594353Y-77799997D01*
X97594353Y-77800002D01*
X97614833Y-77942454D01*
X97631990Y-77980021D01*
X97674623Y-78073373D01*
X97674624Y-78073374D01*
X97674625Y-78073376D01*
X97714082Y-78118912D01*
X97725925Y-78154496D01*
X97709138Y-78188032D01*
X97677050Y-78200000D01*
X96556791Y-78200000D01*
X96522143Y-78185648D01*
X96507791Y-78151000D01*
X96519759Y-78118912D01*
X96527631Y-78109826D01*
X96582882Y-78046063D01*
X96636697Y-77928226D01*
X96636697Y-77928224D01*
X96636698Y-77928223D01*
X96655133Y-77800002D01*
X96655133Y-77799997D01*
X96636698Y-77671776D01*
X96596617Y-77584012D01*
X96582882Y-77553937D01*
X96498049Y-77456033D01*
X96498048Y-77456032D01*
X96498041Y-77456027D01*
X96422509Y-77407485D01*
X96401120Y-77376680D01*
X96400000Y-77366264D01*
X96400000Y-77333734D01*
X96414352Y-77299086D01*
X96422499Y-77292519D01*
X96498049Y-77243967D01*
X96582882Y-77146063D01*
X96636697Y-77028226D01*
X96636697Y-77028224D01*
X96636698Y-77028223D01*
X96655133Y-76900002D01*
X96655133Y-76899997D01*
X96636698Y-76771776D01*
X96597523Y-76685996D01*
X96582882Y-76653937D01*
X96498049Y-76556033D01*
X96498048Y-76556032D01*
X96498044Y-76556029D01*
X96486097Y-76548351D01*
X96464709Y-76517545D01*
X96471368Y-76480638D01*
X96487031Y-76467314D01*
X96486121Y-76465898D01*
X96489067Y-76464004D01*
X96489069Y-76464004D01*
X96598049Y-76393967D01*
X96682882Y-76296063D01*
X96736697Y-76178226D01*
X96736697Y-76178224D01*
X96736698Y-76178223D01*
X96755133Y-76050002D01*
X96755133Y-76049997D01*
X96736698Y-75921776D01*
X96709404Y-75862011D01*
X96682882Y-75803937D01*
X96598049Y-75706033D01*
X96489069Y-75635996D01*
X96489066Y-75635995D01*
X96435195Y-75620177D01*
X96405994Y-75596645D01*
X96400000Y-75573162D01*
X96400000Y-74549000D01*
X96414352Y-74514352D01*
X96449000Y-74500000D01*
X99877865Y-74500000D01*
X99900000Y-74509168D01*
X99900000Y-73542778D01*
X99900499Y-73535804D01*
X99905647Y-73500001D01*
X99905647Y-73499998D01*
X99900499Y-73464193D01*
X99900000Y-73457220D01*
X99900000Y-71842778D01*
X99900499Y-71835804D01*
X99905647Y-71800001D01*
X99905647Y-71799998D01*
X99900499Y-71764193D01*
X99900000Y-71757220D01*
X99900000Y-70766740D01*
X101799500Y-70766740D01*
X101799500Y-71133260D01*
X101809427Y-71201393D01*
X101860802Y-71306483D01*
X101943517Y-71389198D01*
X102048607Y-71440573D01*
X102096884Y-71447606D01*
X102116738Y-71450500D01*
X102116740Y-71450500D01*
X103208262Y-71450500D01*
X103225590Y-71447974D01*
X103276393Y-71440573D01*
X103381483Y-71389198D01*
X103464198Y-71306483D01*
X103515573Y-71201393D01*
X103525500Y-71133260D01*
X103525500Y-70766740D01*
X103515573Y-70698607D01*
X103464198Y-70593517D01*
X103381483Y-70510802D01*
X103322860Y-70482143D01*
X103276396Y-70459428D01*
X103276394Y-70459427D01*
X103208262Y-70449500D01*
X103208260Y-70449500D01*
X102116740Y-70449500D01*
X102116738Y-70449500D01*
X102048605Y-70459427D01*
X102048603Y-70459428D01*
X101943519Y-70510801D01*
X101943515Y-70510803D01*
X101860803Y-70593515D01*
X101860801Y-70593519D01*
X101809428Y-70698603D01*
X101809427Y-70698605D01*
X101809427Y-70698607D01*
X101799500Y-70766740D01*
X99900000Y-70766740D01*
X99900000Y-70142778D01*
X99900499Y-70135804D01*
X99902054Y-70124993D01*
X99905647Y-70100000D01*
X99900499Y-70064193D01*
X99900000Y-70057220D01*
X99900000Y-69999997D01*
X103594353Y-69999997D01*
X103594353Y-70000002D01*
X103614833Y-70142454D01*
X103632552Y-70181252D01*
X103674623Y-70273373D01*
X103674624Y-70273374D01*
X103674625Y-70273376D01*
X103761273Y-70373373D01*
X103768872Y-70382143D01*
X103889947Y-70459953D01*
X103949047Y-70477306D01*
X104028034Y-70500499D01*
X104028037Y-70500499D01*
X104028039Y-70500500D01*
X104028040Y-70500500D01*
X104171956Y-70500500D01*
X104171961Y-70500500D01*
X104261147Y-70474312D01*
X104296468Y-70477305D01*
X104323607Y-70490573D01*
X104376364Y-70498259D01*
X104391738Y-70500500D01*
X104391740Y-70500500D01*
X105483262Y-70500500D01*
X105500590Y-70497974D01*
X105551393Y-70490573D01*
X105656483Y-70439198D01*
X105739198Y-70356483D01*
X105790573Y-70251393D01*
X105800500Y-70183260D01*
X105800500Y-69816740D01*
X105800395Y-69816022D01*
X105795184Y-69780255D01*
X105790573Y-69748607D01*
X105739198Y-69643517D01*
X105656483Y-69560802D01*
X105595610Y-69531043D01*
X105551396Y-69509428D01*
X105551394Y-69509427D01*
X105483262Y-69499500D01*
X105483260Y-69499500D01*
X104391740Y-69499500D01*
X104391738Y-69499500D01*
X104323606Y-69509427D01*
X104296470Y-69522693D01*
X104261145Y-69525686D01*
X104171965Y-69499500D01*
X104171961Y-69499500D01*
X104028039Y-69499500D01*
X104028034Y-69499500D01*
X103889949Y-69540046D01*
X103889947Y-69540046D01*
X103889947Y-69540047D01*
X103889129Y-69540573D01*
X103768871Y-69617857D01*
X103674625Y-69726623D01*
X103674624Y-69726625D01*
X103614833Y-69857545D01*
X103594353Y-69999997D01*
X99900000Y-69999997D01*
X99900000Y-69399500D01*
X99914352Y-69364852D01*
X99949000Y-69350500D01*
X100719075Y-69350500D01*
X100753723Y-69364852D01*
X100756107Y-69367412D01*
X100768870Y-69382141D01*
X100768872Y-69382143D01*
X100889947Y-69459953D01*
X100966785Y-69482514D01*
X101028034Y-69500499D01*
X101028037Y-69500499D01*
X101028039Y-69500500D01*
X101028040Y-69500500D01*
X101171960Y-69500500D01*
X101171961Y-69500500D01*
X101171963Y-69500499D01*
X101171965Y-69500499D01*
X101194795Y-69493795D01*
X101310053Y-69459953D01*
X101431128Y-69382143D01*
X101443893Y-69367412D01*
X101477430Y-69350625D01*
X101480925Y-69350500D01*
X101802847Y-69350500D01*
X101837495Y-69364852D01*
X101846865Y-69377975D01*
X101860802Y-69406483D01*
X101943517Y-69489198D01*
X102048607Y-69540573D01*
X102096884Y-69547606D01*
X102116738Y-69550500D01*
X102116740Y-69550500D01*
X103208262Y-69550500D01*
X103225590Y-69547974D01*
X103276393Y-69540573D01*
X103381483Y-69489198D01*
X103464198Y-69406483D01*
X103515573Y-69301393D01*
X103525500Y-69233260D01*
X103525500Y-68866740D01*
X103515573Y-68798607D01*
X103464198Y-68693517D01*
X103381483Y-68610802D01*
X103381481Y-68610801D01*
X103381477Y-68610798D01*
X103364520Y-68602508D01*
X103339696Y-68574397D01*
X103341469Y-68538134D01*
X103385165Y-68442457D01*
X103385165Y-68442455D01*
X103385166Y-68442454D01*
X103399605Y-68342027D01*
X103418741Y-68309774D01*
X103448106Y-68300000D01*
X105400000Y-68300000D01*
X105400000Y-67649000D01*
X105414352Y-67614352D01*
X105449000Y-67600000D01*
X105575317Y-67600000D01*
X105609965Y-67614352D01*
G37*
%TD.AperFunction*%
%TD*%
%TA.AperFunction,Conductor*%
%TO.N,Net-(IC1-OUT1)*%
G36*
X110285148Y-70069852D02*
G01*
X110299500Y-70104500D01*
X110299500Y-71651000D01*
X110285148Y-71685648D01*
X110250500Y-71700000D01*
X108835409Y-71700000D01*
X108800761Y-71685648D01*
X108790837Y-71671356D01*
X108782882Y-71653937D01*
X108712468Y-71572673D01*
X108700500Y-71540585D01*
X108700500Y-71060436D01*
X108688590Y-71015990D01*
X108688590Y-71015989D01*
X108680022Y-70984012D01*
X108680021Y-70984010D01*
X108669420Y-70965648D01*
X108640460Y-70915489D01*
X108384511Y-70659540D01*
X108315990Y-70619979D01*
X108239564Y-70599500D01*
X108239562Y-70599500D01*
X108199000Y-70599500D01*
X108164352Y-70585148D01*
X108150000Y-70550500D01*
X108150000Y-70349500D01*
X108164352Y-70314852D01*
X108199000Y-70300500D01*
X108695245Y-70300500D01*
X108695248Y-70300500D01*
X108753731Y-70288867D01*
X108820052Y-70244552D01*
X108835270Y-70221776D01*
X108866452Y-70200942D01*
X108876012Y-70200000D01*
X108900000Y-70200000D01*
X108900000Y-70104500D01*
X108914352Y-70069852D01*
X108949000Y-70055500D01*
X110250500Y-70055500D01*
X110285148Y-70069852D01*
G37*
%TD.AperFunction*%
%TD*%
%TA.AperFunction,Conductor*%
%TO.N,Net-(BAT1-Pin_2)*%
G36*
X108064581Y-71214852D02*
G01*
X108072338Y-71224948D01*
X108092906Y-71260474D01*
X108099500Y-71285024D01*
X108099500Y-71540585D01*
X108087532Y-71572673D01*
X108017119Y-71653936D01*
X108017118Y-71653936D01*
X107963301Y-71771776D01*
X107944867Y-71899997D01*
X107944867Y-71900002D01*
X107963301Y-72028223D01*
X108017118Y-72146063D01*
X108101951Y-72243968D01*
X108101953Y-72243970D01*
X108202799Y-72308779D01*
X108224188Y-72339584D01*
X108217529Y-72376491D01*
X108202799Y-72391221D01*
X108101953Y-72456029D01*
X108101951Y-72456031D01*
X108017119Y-72553936D01*
X108017118Y-72553936D01*
X107963301Y-72671776D01*
X107944867Y-72799997D01*
X107944867Y-72800002D01*
X107963301Y-72928223D01*
X108017118Y-73046063D01*
X108080750Y-73119500D01*
X108101951Y-73143967D01*
X108210931Y-73214004D01*
X108280093Y-73234311D01*
X108335223Y-73250499D01*
X108335228Y-73250500D01*
X108464772Y-73250500D01*
X108464776Y-73250499D01*
X108485324Y-73244465D01*
X108589069Y-73214004D01*
X108698049Y-73143967D01*
X108721059Y-73117410D01*
X108754595Y-73100624D01*
X108758091Y-73100499D01*
X109009896Y-73100499D01*
X109009900Y-73100499D01*
X109059487Y-73093972D01*
X109099978Y-73075091D01*
X109120686Y-73070500D01*
X109250501Y-73070500D01*
X109285149Y-73084852D01*
X109299501Y-73119500D01*
X109299501Y-73244868D01*
X109302415Y-73269992D01*
X109347794Y-73372766D01*
X109427233Y-73452205D01*
X109530006Y-73497584D01*
X109530009Y-73497585D01*
X109555135Y-73500500D01*
X110250500Y-73500499D01*
X110285148Y-73514851D01*
X110299500Y-73549499D01*
X110299500Y-75651000D01*
X110285148Y-75685648D01*
X110250500Y-75700000D01*
X108969500Y-75700000D01*
X108934852Y-75685648D01*
X108920500Y-75651000D01*
X108920500Y-75335687D01*
X108920500Y-75335684D01*
X108914068Y-75286827D01*
X108904591Y-75266503D01*
X108900000Y-75245795D01*
X108900000Y-74754204D01*
X108904590Y-74733497D01*
X108914068Y-74713173D01*
X108920500Y-74664316D01*
X108920500Y-74315684D01*
X108914068Y-74266827D01*
X108864065Y-74159596D01*
X108864064Y-74159595D01*
X108864063Y-74159593D01*
X108780406Y-74075936D01*
X108780404Y-74075935D01*
X108673175Y-74025933D01*
X108673174Y-74025932D01*
X108663401Y-74024645D01*
X108624316Y-74019500D01*
X108175684Y-74019500D01*
X108143112Y-74023788D01*
X108126825Y-74025932D01*
X108126824Y-74025933D01*
X108019595Y-74075935D01*
X108019593Y-74075936D01*
X107935936Y-74159593D01*
X107935935Y-74159595D01*
X107885933Y-74266824D01*
X107885932Y-74266825D01*
X107879500Y-74315687D01*
X107879500Y-74365157D01*
X107865148Y-74399805D01*
X107830500Y-74414157D01*
X107795852Y-74399805D01*
X107584531Y-74188484D01*
X107576746Y-74178339D01*
X107540460Y-74115489D01*
X107484511Y-74059540D01*
X107424499Y-74024892D01*
X107401669Y-73995139D01*
X107400000Y-73982457D01*
X107400000Y-73700000D01*
X107300512Y-73700000D01*
X107265864Y-73685648D01*
X107259770Y-73678223D01*
X107244552Y-73655447D01*
X107204795Y-73628882D01*
X107178231Y-73611133D01*
X107119748Y-73599500D01*
X107039562Y-73599500D01*
X106349000Y-73599500D01*
X106314352Y-73585148D01*
X106300000Y-73550500D01*
X106300000Y-73449500D01*
X106314352Y-73414852D01*
X106349000Y-73400500D01*
X107119745Y-73400500D01*
X107119748Y-73400500D01*
X107178231Y-73388867D01*
X107244552Y-73344552D01*
X107288867Y-73278231D01*
X107300500Y-73219748D01*
X107300500Y-72980252D01*
X107288867Y-72921769D01*
X107262230Y-72881904D01*
X107244554Y-72855450D01*
X107244552Y-72855448D01*
X107221775Y-72840228D01*
X107200941Y-72809044D01*
X107200000Y-72799487D01*
X107200000Y-71249500D01*
X107214352Y-71214852D01*
X107249000Y-71200500D01*
X107251562Y-71200500D01*
X108029933Y-71200500D01*
X108064581Y-71214852D01*
G37*
%TD.AperFunction*%
%TD*%
%TA.AperFunction,Conductor*%
%TO.N,Net-(IC1-OUT2)*%
G36*
X108523442Y-67957778D02*
G01*
X108610931Y-68014004D01*
X108658842Y-68028071D01*
X108735223Y-68050499D01*
X108735228Y-68050500D01*
X108864772Y-68050500D01*
X108864776Y-68050499D01*
X108893245Y-68042139D01*
X108989069Y-68014004D01*
X109076557Y-67957778D01*
X109103048Y-67950000D01*
X110250500Y-67950000D01*
X110285148Y-67964352D01*
X110299500Y-67999000D01*
X110299500Y-69801000D01*
X110285148Y-69835648D01*
X110250500Y-69850000D01*
X108949000Y-69850000D01*
X108914352Y-69835648D01*
X108900000Y-69801000D01*
X108900000Y-69700000D01*
X108876012Y-69700000D01*
X108841364Y-69685648D01*
X108835270Y-69678223D01*
X108820052Y-69655447D01*
X108780295Y-69628882D01*
X108753731Y-69611133D01*
X108695248Y-69599500D01*
X108199000Y-69599500D01*
X108164352Y-69585148D01*
X108150000Y-69550500D01*
X108150000Y-67999000D01*
X108164352Y-67964352D01*
X108199000Y-67950000D01*
X108496952Y-67950000D01*
X108523442Y-67957778D01*
G37*
%TD.AperFunction*%
%TD*%
D41*
X96600000Y-67400000D03*
X109056929Y-80998452D03*
X104900000Y-77200000D03*
X102900000Y-68300000D03*
X98990000Y-86650000D03*
X101100000Y-69000000D03*
X95400000Y-86800000D03*
X105900000Y-86800000D03*
X97400000Y-65500000D03*
X108800000Y-67600000D03*
X99114318Y-81106682D03*
X109650000Y-85450000D03*
X95400000Y-64800000D03*
X99900000Y-65500000D03*
X100900000Y-66700000D03*
X99400000Y-71800000D03*
X106600000Y-69000000D03*
X98100000Y-77800000D03*
X102600000Y-77200000D03*
X106600000Y-77900000D03*
X109500000Y-64800000D03*
X107000000Y-80600000D03*
X107600000Y-65500000D03*
X104100000Y-70000000D03*
X96200000Y-87100000D03*
X107210000Y-83300000D03*
X101500000Y-73200000D03*
X102500000Y-65500000D03*
X99400000Y-73500000D03*
X105900000Y-65500000D03*
X104400000Y-67200000D03*
X108010000Y-76730000D03*
X106100000Y-86000000D03*
X96200000Y-79700000D03*
X99400000Y-70100000D03*
X104500000Y-79800000D03*
X100990000Y-79900000D03*
X108400000Y-72800000D03*
X104200000Y-65500000D03*
X106600000Y-72500000D03*
X108400000Y-74490000D03*
X98325000Y-85375000D03*
X97900000Y-80000000D03*
X100100000Y-75000000D03*
X107610000Y-71600000D03*
X105200000Y-81300000D03*
X108400000Y-71900000D03*
X107600000Y-70300000D03*
X101100000Y-75000000D03*
X99800000Y-77100000D03*
X97300000Y-82400000D03*
X105800000Y-78000000D03*
X106800000Y-75600000D03*
X101067675Y-77200000D03*
X104500000Y-76500000D03*
X98500000Y-81700000D03*
X96200000Y-77800000D03*
X106750000Y-78800000D03*
X109200000Y-83900000D03*
X107180000Y-84300000D03*
X109100000Y-82880000D03*
X109750000Y-65900000D03*
X95926207Y-68666576D03*
X95394479Y-80649999D03*
X96200000Y-76900000D03*
X96300000Y-76050000D03*
X96400000Y-73500000D03*
X107350000Y-67640001D03*
X106000000Y-67300000D03*
X96400000Y-71800000D03*
X96400000Y-70900000D03*
X96400000Y-69800000D03*
X101800000Y-76800000D03*
X95493504Y-84828936D03*
X101403345Y-79213976D03*
X96267377Y-84132624D03*
X96400000Y-66500000D03*
X97400000Y-66400000D03*
X98508006Y-65621349D03*
X101200000Y-65900000D03*
X102300000Y-66300000D03*
X103367573Y-66100000D03*
X108550000Y-65750000D03*
X106845608Y-65928145D03*
X108900000Y-76200000D03*
X104700000Y-66197944D03*
X109500000Y-77750000D03*
X108700000Y-77200000D03*
D42*
X100500000Y-82350000D03*
X104500000Y-82350000D03*
X100500000Y-86210000D03*
X104500000Y-86210000D03*
D43*
X105750000Y-85000000D03*
X104800000Y-85000000D03*
X103850000Y-85000000D03*
X102950000Y-85000000D03*
X102050000Y-85000000D03*
X100200000Y-85000000D03*
X99250000Y-85000000D03*
X99250000Y-83560000D03*
X100200000Y-83560000D03*
X101150000Y-83560000D03*
X102050000Y-83560000D03*
X102950000Y-83560000D03*
X104800000Y-83560000D03*
X105750000Y-83560000D03*
D41*
X103800000Y-73600000D03*
X103800000Y-74600000D03*
X104700000Y-73600000D03*
X104700000Y-74600000D03*
X105600000Y-73600000D03*
X105600000Y-74600000D03*
M02*
