M48
; DRILL file {KiCad 8.0.6} date 2024-10-29T18:21:18+0100
; FORMAT={-:-/ absolute / metric / decimal}
; #@! TF.CreationDate,2024-10-29T18:21:18+01:00
; #@! TF.GenerationSoftware,Kicad,Pcbnew,8.0.6
; #@! TF.FileFunction,MixedPlating,1,4
FMAT,2
METRIC
; #@! TA.AperFunction,Plated,PTH,ViaDrill
T1C0.300
; #@! TA.AperFunction,Plated,PTH,ComponentDrill
T2C0.300
; #@! TA.AperFunction,Plated,PTH,ComponentDrill
T3C0.500
; #@! TA.AperFunction,Plated,PTH,ComponentDrill
T4C0.610
%
G90
G05
T1
X95.394Y-80.65
X95.4Y-64.8
X95.4Y-86.8
X95.494Y-84.829
X95.926Y-68.667
X96.2Y-76.9
X96.2Y-77.8
X96.2Y-79.7
X96.2Y-87.1
X96.267Y-84.133
X96.3Y-76.05
X96.4Y-66.5
X96.4Y-69.8
X96.4Y-70.9
X96.4Y-71.8
X96.4Y-73.5
X96.6Y-67.4
X97.3Y-82.4
X97.4Y-65.5
X97.4Y-66.4
X97.9Y-80.0
X98.1Y-77.8
X98.325Y-85.375
X98.5Y-81.7
X98.508Y-65.621
X98.99Y-86.65
X99.114Y-81.107
X99.4Y-70.1
X99.4Y-71.8
X99.4Y-73.5
X99.8Y-77.1
X99.9Y-65.5
X100.1Y-75.0
X100.9Y-66.7
X100.99Y-79.9
X101.068Y-77.2
X101.1Y-69.0
X101.1Y-75.0
X101.2Y-65.9
X101.403Y-79.214
X101.5Y-73.2
X101.8Y-76.8
X102.3Y-66.3
X102.5Y-65.5
X102.6Y-77.2
X102.9Y-68.3
X103.368Y-66.1
X104.1Y-70.0
X104.2Y-65.5
X104.4Y-67.2
X104.5Y-76.5
X104.5Y-79.8
X104.7Y-66.198
X104.9Y-77.2
X105.2Y-81.3
X105.8Y-78.0
X105.9Y-65.5
X105.9Y-86.8
X106.0Y-67.3
X106.1Y-86.0
X106.6Y-69.0
X106.6Y-72.5
X106.6Y-77.9
X106.75Y-78.8
X106.8Y-75.6
X106.846Y-65.928
X107.0Y-80.6
X107.18Y-84.3
X107.21Y-83.3
X107.35Y-67.64
X107.6Y-65.5
X107.6Y-70.3
X107.61Y-71.6
X108.01Y-76.73
X108.4Y-71.9
X108.4Y-72.8
X108.4Y-74.49
X108.55Y-65.75
X108.7Y-77.2
X108.8Y-67.6
X108.9Y-76.2
X109.057Y-80.998
X109.1Y-82.88
X109.2Y-83.9
X109.5Y-64.8
X109.5Y-77.75
X109.65Y-85.45
X109.75Y-65.9
T2
X103.8Y-73.6
X103.8Y-74.6
X104.7Y-73.6
X104.7Y-74.6
X105.6Y-73.6
X105.6Y-74.6
T3
X99.25Y-83.56
X99.25Y-85.0
X100.2Y-83.56
X100.2Y-85.0
X101.15Y-83.56
X102.05Y-83.56
X102.05Y-85.0
X102.95Y-83.56
X102.95Y-85.0
X103.85Y-85.0
X104.8Y-83.56
X104.8Y-85.0
X105.75Y-83.56
X105.75Y-85.0
T4
G00X101.0Y-82.35
M15
G01X100.0Y-82.35
M16
G05
G00X101.0Y-86.21
M15
G01X100.0Y-86.21
M16
G05
G00X105.0Y-82.35
M15
G01X104.0Y-82.35
M16
G05
G00X105.0Y-86.21
M15
G01X104.0Y-86.21
M16
G05
M30
