%TF.GenerationSoftware,KiCad,Pcbnew,8.0.6*%
%TF.CreationDate,2024-10-29T18:21:18+01:00*%
%TF.ProjectId,openWifiDecoder,6f70656e-5769-4666-9944-65636f646572,rev?*%
%TF.SameCoordinates,Original*%
%TF.FileFunction,Soldermask,Bot*%
%TF.FilePolarity,Negative*%
%FSLAX46Y46*%
G04 Gerber Fmt 4.6, Leading zero omitted, Abs format (unit mm)*
G04 Created by KiCad (PCBNEW 8.0.6) date 2024-10-29 18:21:18*
%MOMM*%
%LPD*%
G01*
G04 APERTURE LIST*
G04 Aperture macros list*
%AMRoundRect*
0 Rectangle with rounded corners*
0 $1 Rounding radius*
0 $2 $3 $4 $5 $6 $7 $8 $9 X,Y pos of 4 corners*
0 Add a 4 corners polygon primitive as box body*
4,1,4,$2,$3,$4,$5,$6,$7,$8,$9,$2,$3,0*
0 Add four circle primitives for the rounded corners*
1,1,$1+$1,$2,$3*
1,1,$1+$1,$4,$5*
1,1,$1+$1,$6,$7*
1,1,$1+$1,$8,$9*
0 Add four rect primitives between the rounded corners*
20,1,$1+$1,$2,$3,$4,$5,0*
20,1,$1+$1,$4,$5,$6,$7,0*
20,1,$1+$1,$6,$7,$8,$9,0*
20,1,$1+$1,$8,$9,$2,$3,0*%
G04 Aperture macros list end*
%ADD10O,2.100000X1.200000*%
%ADD11C,0.700000*%
%ADD12RoundRect,0.140000X-0.140000X-0.170000X0.140000X-0.170000X0.140000X0.170000X-0.140000X0.170000X0*%
%ADD13RoundRect,0.100000X-0.400000X0.400000X-0.400000X-0.400000X0.400000X-0.400000X0.400000X0.400000X0*%
%ADD14RoundRect,0.100000X0.400000X0.400000X-0.400000X0.400000X-0.400000X-0.400000X0.400000X-0.400000X0*%
%ADD15RoundRect,0.135000X-0.135000X-0.185000X0.135000X-0.185000X0.135000X0.185000X-0.135000X0.185000X0*%
%ADD16RoundRect,0.140000X0.170000X-0.140000X0.170000X0.140000X-0.170000X0.140000X-0.170000X-0.140000X0*%
%ADD17RoundRect,0.135000X-0.185000X0.135000X-0.185000X-0.135000X0.185000X-0.135000X0.185000X0.135000X0*%
%ADD18RoundRect,0.050000X0.225000X0.050000X-0.225000X0.050000X-0.225000X-0.050000X0.225000X-0.050000X0*%
%ADD19RoundRect,0.050000X0.050000X-0.225000X0.050000X0.225000X-0.050000X0.225000X-0.050000X-0.225000X0*%
%ADD20RoundRect,0.150000X-0.150000X0.512500X-0.150000X-0.512500X0.150000X-0.512500X0.150000X0.512500X0*%
%ADD21RoundRect,0.250000X-0.250000X-0.475000X0.250000X-0.475000X0.250000X0.475000X-0.250000X0.475000X0*%
%ADD22RoundRect,0.135000X0.135000X0.185000X-0.135000X0.185000X-0.135000X-0.185000X0.135000X-0.185000X0*%
%ADD23RoundRect,0.140000X0.140000X0.170000X-0.140000X0.170000X-0.140000X-0.170000X0.140000X-0.170000X0*%
%ADD24RoundRect,0.140000X-0.170000X0.140000X-0.170000X-0.140000X0.170000X-0.140000X0.170000X0.140000X0*%
%ADD25R,0.200000X0.200000*%
%ADD26O,0.850000X0.200000*%
%ADD27R,0.400000X0.575000*%
%ADD28R,0.400000X0.675000*%
%ADD29R,2.600000X1.950000*%
%ADD30RoundRect,0.135000X0.185000X-0.135000X0.185000X0.135000X-0.185000X0.135000X-0.185000X-0.135000X0*%
%ADD31RoundRect,0.150000X0.512500X0.150000X-0.512500X0.150000X-0.512500X-0.150000X0.512500X-0.150000X0*%
%ADD32R,0.475000X0.300000*%
%ADD33RoundRect,0.100000X-0.400000X-0.400000X0.400000X-0.400000X0.400000X0.400000X-0.400000X0.400000X0*%
%ADD34RoundRect,0.150000X0.150000X-0.512500X0.150000X0.512500X-0.150000X0.512500X-0.150000X-0.512500X0*%
G04 APERTURE END LIST*
D10*
%TO.C,USB1*%
X100500000Y-82350000D03*
X104500000Y-82350000D03*
X100500000Y-86210000D03*
X104500000Y-86210000D03*
D11*
X105750000Y-85000000D03*
X104800000Y-85000000D03*
X103850000Y-85000000D03*
X102950000Y-85000000D03*
X102050000Y-85000000D03*
X100200000Y-85000000D03*
X99250000Y-85000000D03*
X99250000Y-83560000D03*
X100200000Y-83560000D03*
X101150000Y-83560000D03*
X102050000Y-83560000D03*
X102950000Y-83560000D03*
X104800000Y-83560000D03*
X105750000Y-83560000D03*
%TD*%
D12*
%TO.C,C13*%
X107220000Y-78000000D03*
X108180000Y-78000000D03*
%TD*%
D13*
%TO.C,J1*%
X110000000Y-68800000D03*
X110000000Y-70800000D03*
%TD*%
D14*
%TO.C,IO15*%
X108500000Y-64500000D03*
%TD*%
%TO.C,IO18*%
X110000000Y-78800000D03*
%TD*%
D15*
%TO.C,R8*%
X107490000Y-85300000D03*
X108510000Y-85300000D03*
%TD*%
D16*
%TO.C,C14*%
X106600000Y-86280000D03*
X106600000Y-85320000D03*
%TD*%
D17*
%TO.C,R5*%
X108400000Y-74490000D03*
X108400000Y-75510000D03*
%TD*%
D12*
%TO.C,C11*%
X97120000Y-86300000D03*
X98080000Y-86300000D03*
%TD*%
D14*
%TO.C,IO5*%
X95000000Y-71700000D03*
%TD*%
D18*
%TO.C,U4*%
X98200000Y-82300000D03*
X98200000Y-82700000D03*
X98200000Y-83100000D03*
X98200000Y-83500000D03*
X98200000Y-83900000D03*
X98200000Y-84300000D03*
D19*
X97700000Y-84800000D03*
X97300000Y-84800000D03*
X96900000Y-84800000D03*
X96500000Y-84800000D03*
X96100000Y-84800000D03*
X95700000Y-84800000D03*
D18*
X95200000Y-84300000D03*
X95200000Y-83900000D03*
X95200000Y-83500000D03*
X95200000Y-83100000D03*
X95200000Y-82700000D03*
X95200000Y-82300000D03*
D19*
X95700000Y-81800000D03*
X96100000Y-81800000D03*
X96500000Y-81800000D03*
X96900000Y-81800000D03*
X97300000Y-81800000D03*
X97700000Y-81800000D03*
%TD*%
D16*
%TO.C,C10*%
X108800000Y-73580000D03*
X108800000Y-72620000D03*
%TD*%
D20*
%TO.C,U1*%
X97150000Y-76962500D03*
X98100000Y-76962500D03*
X99050000Y-76962500D03*
X99050000Y-79237500D03*
X97150000Y-79237500D03*
%TD*%
D12*
%TO.C,C4*%
X98420000Y-80700000D03*
X99380000Y-80700000D03*
%TD*%
D14*
%TO.C,IO13*%
X104500000Y-64500000D03*
%TD*%
%TO.C,RX0*%
X107300000Y-67100000D03*
%TD*%
%TO.C,IO19*%
X110000000Y-80800000D03*
%TD*%
D17*
%TO.C,R9*%
X102500000Y-85990000D03*
X102500000Y-87010000D03*
%TD*%
D14*
%TO.C,IO9*%
X96500000Y-64500000D03*
%TD*%
%TO.C,IO1*%
X95000000Y-79700000D03*
%TD*%
D15*
%TO.C,R13*%
X107180000Y-84300000D03*
X108200000Y-84300000D03*
%TD*%
D21*
%TO.C,C2*%
X98350000Y-66800000D03*
X100250000Y-66800000D03*
%TD*%
D22*
%TO.C,R4*%
X107610000Y-71600000D03*
X106590000Y-71600000D03*
%TD*%
D12*
%TO.C,C5*%
X103420000Y-67700000D03*
X104380000Y-67700000D03*
%TD*%
D20*
%TO.C,U5*%
X101750000Y-78062500D03*
X102700000Y-78062500D03*
X103650000Y-78062500D03*
X103650000Y-80337500D03*
X101750000Y-80337500D03*
%TD*%
D23*
%TO.C,C8*%
X96080000Y-86300000D03*
X95120000Y-86300000D03*
%TD*%
D14*
%TO.C,IO12*%
X102500000Y-64500000D03*
%TD*%
D23*
%TO.C,C7*%
X97480000Y-80700000D03*
X96520000Y-80700000D03*
%TD*%
%TO.C,C15*%
X108170000Y-83300000D03*
X107210000Y-83300000D03*
%TD*%
D24*
%TO.C,C12*%
X105000000Y-79820000D03*
X105000000Y-80780000D03*
%TD*%
D14*
%TO.C,IO16*%
X110000000Y-66800000D03*
%TD*%
D13*
%TO.C,IO7*%
X95000000Y-67700000D03*
%TD*%
D14*
%TO.C,IO14*%
X106500000Y-64500000D03*
%TD*%
D13*
%TO.C,IO6*%
X95000000Y-69700000D03*
%TD*%
D25*
%TO.C,U7*%
X102400000Y-75100000D03*
D26*
X102725000Y-75100000D03*
D25*
X102400000Y-74700000D03*
D26*
X102725000Y-74700000D03*
D25*
X102400000Y-74300000D03*
D26*
X102725000Y-74300000D03*
D25*
X102400000Y-73900000D03*
D26*
X102725000Y-73900000D03*
D25*
X102400000Y-73500000D03*
D26*
X102725000Y-73500000D03*
D25*
X102400000Y-73100000D03*
D26*
X102725000Y-73100000D03*
X106675000Y-73100000D03*
D25*
X107000000Y-73100000D03*
D26*
X106675000Y-73500000D03*
D25*
X107000000Y-73500000D03*
D26*
X106675000Y-73900000D03*
D25*
X107000000Y-73900000D03*
D26*
X106675000Y-74300000D03*
D25*
X107000000Y-74300000D03*
D26*
X106675000Y-74700000D03*
D25*
X107000000Y-74700000D03*
D26*
X106675000Y-75100000D03*
D25*
X107000000Y-75100000D03*
D27*
X103600000Y-72735000D03*
D28*
X103600000Y-72787500D03*
X103600000Y-75412500D03*
D27*
X103600000Y-75465000D03*
D29*
X104700000Y-74100000D03*
X104700000Y-74100000D03*
D27*
X105800000Y-72735000D03*
D28*
X105800000Y-72787500D03*
X105800000Y-75412500D03*
D27*
X105800000Y-75465000D03*
%TD*%
D13*
%TO.C,BAT1*%
X110000000Y-72800000D03*
X110000000Y-74800000D03*
%TD*%
D12*
%TO.C,C6*%
X106420000Y-68450000D03*
X107380000Y-68450000D03*
%TD*%
D14*
%TO.C,IO2*%
X95000000Y-77700000D03*
%TD*%
D17*
%TO.C,R7*%
X100400000Y-79790000D03*
X100400000Y-80810000D03*
%TD*%
D14*
%TO.C,IO11*%
X100500000Y-64500000D03*
%TD*%
D13*
%TO.C,IO3*%
X95000000Y-75700000D03*
%TD*%
D30*
%TO.C,R10*%
X105000000Y-78710000D03*
X105000000Y-77690000D03*
%TD*%
D14*
%TO.C,TX0*%
X105700000Y-66800000D03*
%TD*%
D12*
%TO.C,C1*%
X98820000Y-68400000D03*
X99780000Y-68400000D03*
%TD*%
D14*
%TO.C,IO17*%
X110000000Y-76800000D03*
%TD*%
%TO.C,IO10*%
X98500000Y-64500000D03*
%TD*%
D22*
%TO.C,R6*%
X106910000Y-76500000D03*
X105890000Y-76500000D03*
%TD*%
D31*
%TO.C,U2*%
X104937500Y-69050000D03*
X104937500Y-70000000D03*
X104937500Y-70950000D03*
X102662500Y-70950000D03*
X102662500Y-69050000D03*
%TD*%
D13*
%TO.C,J24*%
X110000000Y-82800000D03*
X110000000Y-84800000D03*
X110000000Y-86800000D03*
%TD*%
D24*
%TO.C,C3*%
X100400000Y-77720000D03*
X100400000Y-78680000D03*
%TD*%
D13*
%TO.C,IO8*%
X95000000Y-65700000D03*
%TD*%
D15*
%TO.C,R12*%
X107490000Y-86300000D03*
X108510000Y-86300000D03*
%TD*%
D32*
%TO.C,IC1*%
X106762000Y-70450000D03*
X106762000Y-69950000D03*
X106762000Y-69450000D03*
X108438000Y-69450000D03*
X108438000Y-69950000D03*
X108438000Y-70450000D03*
%TD*%
D24*
%TO.C,C9*%
X101500000Y-73200000D03*
X101500000Y-74160000D03*
%TD*%
D33*
%TO.C,IO4*%
X95000000Y-73700000D03*
%TD*%
D34*
%TO.C,U6*%
X108250000Y-81737500D03*
X107300000Y-81737500D03*
X106350000Y-81737500D03*
X106350000Y-79462500D03*
X108250000Y-79462500D03*
%TD*%
M02*
